  0
SECTION
  2
HEADER
  9
$ANGBASE
  50
0.0
  9
$ANGDIR
  70
1
  9
$MEASUREMENT
  70
0
  0
ENDSEC
  0
SECTION
  2
TABLES
  0
TABLE
  2
LTYPE
  70
4
  0
LTYPE
  5
40F
  2
CONTINUOUS
  70
0
  3
Solid line
  72
65
  73
0
  40
0.0
  0
LTYPE
  5
410
  2
DASHDOT
 70
0
  3
Dash Dot ____ _ ____ _
 72
65
 73
4
 40
2.0
 49
1.25
 49
-0.25
 49
0.25
 49
-0.25
  0
LTYPE
  5
411
  2
DASHED
 70
0
  3
Dashed __ __ __ __ __
 72
65
 73
2
 40
0.75
 49
0.5
 49
-0.25
  0
LTYPE
  5
43B
  2
DOTTED
 70
0
  3
Dotted .  .  .  .
 72
65
 73
2
 40
0.2
 49
0.0
 49
-0.2
  0
ENDTAB
  0
TABLE
  2
STYLE
  70
4
  0
STYLE
  2
KICAD
  70
0
  40
0
  41
1
  42
1
  50
0
  71
0
  3
isocp.shx
  0
STYLE
  2
KICADB
  70
0
  40
0
  41
1
  42
1
  50
0
  71
0
  3
isocp.shx
  0
STYLE
  2
KICADI
  70
0
  40
0
  41
1
  42
1
  50
15
  71
0
  3
isocp.shx
  0
STYLE
  2
KICADBI
  70
0
  40
0
  41
1
  42
1
  50
15
  71
0
  3
isocp.shx
  0
ENDTAB
  0
TABLE
  2
LAYER
  70
1
  0
LAYER
  2
BLACK
  70
0
  62
7
  6
CONTINUOUS
  0
ENDTAB
  0
ENDSEC
  0
SECTION
  2
ENTITIES
0
LINE
8
BLACK
6
CONTINUOUS
10
5.6377952755905509
20
-4.2667322834645667
11
5.890748031496063
21
-4.2667322834645667
0
LINE
8
BLACK
6
CONTINUOUS
10
5.890748031496063
20
-4.2667322834645667
11
5.8908953937007871
21
-4.2667615748031498
0
LINE
8
BLACK
6
CONTINUOUS
10
5.8908953937007871
20
-4.2667615748031498
11
5.8909597637795272
21
-4.2667553149606299
0
LINE
8
BLACK
6
CONTINUOUS
10
5.8909597637795272
20
-4.2667553149606299
11
5.8910088976377954
21
-4.2667841732283467
0
LINE
8
BLACK
6
CONTINUOUS
10
5.8910088976377954
20
-4.2667841732283467
11
5.8911246850393697
21
-4.266807204724409
0
LINE
8
BLACK
6
CONTINUOUS
10
5.8911246850393697
20
-4.266807204724409
11
5.8912335826771649
21
-4.2669161023622042
0
LINE
8
BLACK
6
CONTINUOUS
10
5.8912335826771649
20
-4.2669161023622042
11
5.8914842913385828
21
-4.2670633464566929
0
LINE
8
BLACK
6
CONTINUOUS
10
5.8914842913385828
20
-4.2670633464566929
11
5.9057147637795273
21
-4.2842066535433068
0
LINE
8
BLACK
6
CONTINUOUS
10
5.9057147637795273
20
-4.2842066535433068
11
5.9187888582677166
21
-4.3022473622047244
0
LINE
8
BLACK
6
CONTINUOUS
10
5.9187888582677166
20
-4.3022473622047244
11
5.9306501968503937
21
-4.321107598425197
0
LINE
8
BLACK
6
CONTINUOUS
10
5.9306501968503937
20
-4.321107598425197
11
5.9412475196850396
21
-4.3407059448818899
0
LINE
8
BLACK
6
CONTINUOUS
10
5.9412475196850396
20
-4.3407059448818899
11
5.9505351181102357
21
-4.3609578740157477
0
LINE
8
BLACK
6
CONTINUOUS
10
5.9505351181102357
20
-4.3609578740157477
11
5.958472913385827
21
-4.3817759055118106
0
LINE
8
BLACK
6
CONTINUOUS
10
5.958472913385827
20
-4.3817759055118106
11
5.9650266535433065
21
-4.4030702362204721
0
LINE
8
BLACK
6
CONTINUOUS
10
5.9650266535433065
20
-4.4030702362204721
11
5.970167992125984
21
-4.4247489370078741
0
LINE
8
BLACK
6
CONTINUOUS
10
5.970167992125984
20
-4.4247489370078741
11
5.9738748031496058
21
-4.4467184251968499
0
LINE
8
BLACK
6
CONTINUOUS
10
5.9738748031496058
20
-4.4467184251968499
11
5.9761310629921258
21
-4.4688838976377951
0
LINE
8
BLACK
6
CONTINUOUS
10
5.9761310629921258
20
-4.4688838976377951
11
5.976927007874016
21
-4.4911497244094489
0
LINE
8
BLACK
6
CONTINUOUS
10
5.976927007874016
20
-4.4911497244094489
11
5.9762592519685036
21
-4.5134197244094487
0
LINE
8
BLACK
6
CONTINUOUS
10
5.9762592519685036
20
-4.5134197244094487
11
5.9741306692913385
21
-4.5355978346456691
0
LINE
8
BLACK
6
CONTINUOUS
10
5.9741306692913385
20
-4.5355978346456691
11
5.9705503937007869
21
-4.5575883070866139
0
LINE
8
BLACK
6
CONTINUOUS
10
5.9705503937007869
20
-4.5575883070866139
11
5.9655339370078737
21
-4.5792962598425193
0
LINE
8
BLACK
6
CONTINUOUS
10
5.9655339370078737
20
-4.5792962598425193
11
5.959102952755905
21
-4.6006279527559055
0
LINE
8
BLACK
6
CONTINUOUS
10
5.959102952755905
20
-4.6006279527559055
11
5.9512851574803145
21
-4.6214913385826772
0
LINE
8
BLACK
6
CONTINUOUS
10
5.9512851574803145
20
-4.6214913385826772
11
5.9421142913385827
21
-4.6417963779527556
0
LINE
8
BLACK
6
CONTINUOUS
10
5.9421142913385827
20
-4.6417963779527556
11
5.9316299606299214
21
-4.6614554330708664
0
LINE
8
BLACK
6
CONTINUOUS
10
5.9316299606299214
20
-4.6614554330708664
11
5.919877440944882
21
-4.6803836614173226
0
LINE
8
BLACK
6
CONTINUOUS
10
5.919877440944882
20
-4.6803836614173226
11
5.9069074015748031
21
-4.6984993307086613
0
LINE
8
BLACK
6
CONTINUOUS
10
5.9069074015748031
20
-4.6984993307086613
11
5.892775866141732
21
-4.7157242913385824
0
LINE
8
BLACK
6
CONTINUOUS
10
5.892775866141732
20
-4.7157242913385824
11
5.8927756692913382
21
-4.7157243700787399
0
LINE
8
BLACK
6
CONTINUOUS
10
5.8927756692913382
20
-4.7157243700787399
11
5.8922015354330703
21
-4.7163774015748032
0
LINE
8
BLACK
6
CONTINUOUS
10
5.8922015354330703
20
-4.7163774015748032
11
5.8916256299212595
21
-4.7170290551181102
0
LINE
8
BLACK
6
CONTINUOUS
10
5.8916256299212595
20
-4.7170290551181102
11
5.8910480314960632
21
-4.7176792519685042
0
LINE
8
BLACK
6
CONTINUOUS
10
5.8910480314960632
20
-4.7176792519685042
11
5.8910480708661419
21
-4.7176792519685042
0
LINE
8
BLACK
6
CONTINUOUS
10
5.8910480708661419
20
-4.7176792519685042
11
5.8907964566929136
21
-4.7178263385826771
0
LINE
8
BLACK
6
CONTINUOUS
10
5.8907964566929136
20
-4.7178263385826771
11
5.8906905905511806
21
-4.7179318110236217
0
LINE
8
BLACK
6
CONTINUOUS
10
5.8906905905511806
20
-4.7179318110236217
11
5.8905781496062994
21
-4.7179539370078736
0
LINE
8
BLACK
6
CONTINUOUS
10
5.8905781496062994
20
-4.7179539370078736
11
5.8905229133858263
21
-4.7179862598425197
0
LINE
8
BLACK
6
CONTINUOUS
10
5.8905229133858263
20
-4.7179862598425197
11
5.8904506692913383
21
-4.7179790551181098
0
LINE
8
BLACK
6
CONTINUOUS
10
5.8904506692913383
20
-4.7179790551181098
11
5.8903137795275589
21
-4.7180060236220474
0
LINE
8
BLACK
6
CONTINUOUS
10
5.8903137795275589
20
-4.7180060236220474
11
5.6377933858267717
21
-4.7175196850393704
0
LINE
8
BLACK
6
CONTINUOUS
10
5.6377933858267717
20
-4.7175196850393704
11
5.3844086220472436
21
-4.7170317322834645
0
LINE
8
BLACK
6
CONTINUOUS
10
5.3844086220472436
20
-4.7170317322834645
11
5.384261181102362
21
-4.7170020866141735
0
LINE
8
BLACK
6
CONTINUOUS
10
5.384261181102362
20
-4.7170020866141735
11
5.3841969291338581
21
-4.717008267716535
0
LINE
8
BLACK
6
CONTINUOUS
10
5.3841969291338581
20
-4.717008267716535
11
5.384147913385827
21
-4.7169793307086616
0
LINE
8
BLACK
6
CONTINUOUS
10
5.384147913385827
20
-4.7169793307086616
11
5.3840321259842518
21
-4.7169561023622046
0
LINE
8
BLACK
6
CONTINUOUS
10
5.3840321259842518
20
-4.7169561023622046
11
5.3839233464566929
21
-4.7168468897637794
0
LINE
8
BLACK
6
CONTINUOUS
10
5.3839233464566929
20
-4.7168468897637794
11
5.3836729921259838
21
-4.716699251968504
0
LINE
8
BLACK
6
CONTINUOUS
10
5.3836729921259838
20
-4.716699251968504
11
5.3836729921259838
21
-4.7166992125984253
0
LINE
8
BLACK
6
CONTINUOUS
10
5.3836729921259838
20
-4.7166992125984253
11
5.3694394881889762
21
-4.6994818110236221
0
LINE
8
BLACK
6
CONTINUOUS
10
5.3694394881889762
20
-4.6994818110236221
11
5.3563703543307088
21
-4.6813646850393695
0
LINE
8
BLACK
6
CONTINUOUS
10
5.3563703543307088
20
-4.6813646850393695
11
5.3445223228346457
21
-4.6624264566929137
0
LINE
8
BLACK
6
CONTINUOUS
10
5.3445223228346457
20
-4.6624264566929137
11
5.3339468110236217
21
-4.6427492913385828
0
LINE
8
BLACK
6
CONTINUOUS
10
5.3339468110236217
20
-4.6427492913385828
11
5.3246896850393703
21
-4.6224185826771649
0
LINE
8
BLACK
6
CONTINUOUS
10
5.3246896850393703
20
-4.6224185826771649
11
5.3167911417322831
21
-4.6015225196850391
0
LINE
8
BLACK
6
CONTINUOUS
10
5.3167911417322831
20
-4.6015225196850391
11
5.310285393700787
21
-4.5801518110236223
0
LINE
8
BLACK
6
CONTINUOUS
10
5.310285393700787
20
-4.5801518110236223
11
5.3052007086614168
21
-4.5583991338582672
0
LINE
8
BLACK
6
CONTINUOUS
10
5.3052007086614168
20
-4.5583991338582672
11
5.3015591732283465
21
-4.5363588976377951
0
LINE
8
BLACK
6
CONTINUOUS
10
5.3015591732283465
20
-4.5363588976377951
11
5.2993765354330709
21
-4.5141267322834642
0
LINE
8
BLACK
6
CONTINUOUS
10
5.2993765354330709
20
-4.5141267322834642
11
5.2986623228346454
21
-4.4917991338582679
0
LINE
8
BLACK
6
CONTINUOUS
10
5.2986623228346454
20
-4.4917991338582679
11
5.299419606299212
21
-4.4694729527559058
0
LINE
8
BLACK
6
CONTINUOUS
10
5.299419606299212
20
-4.4694729527559058
11
5.3016450787401572
21
-4.4472450393700784
0
LINE
8
BLACK
6
CONTINUOUS
10
5.3016450787401572
20
-4.4472450393700784
11
5.3053290944881892
21
-4.4252118897637791
0
LINE
8
BLACK
6
CONTINUOUS
10
5.3053290944881892
20
-4.4252118897637791
11
5.3104556692913381
21
-4.4034690551181104
0
LINE
8
BLACK
6
CONTINUOUS
10
5.3104556692913381
20
-4.4034690551181104
11
5.317002598425197
21
-4.3821109055118113
0
LINE
8
BLACK
6
CONTINUOUS
10
5.317002598425197
20
-4.3821109055118113
11
5.3249414173228349
21
-4.3612301181102362
0
LINE
8
BLACK
6
CONTINUOUS
10
5.3249414173228349
20
-4.3612301181102362
11
5.3342377165354327
21
-4.3409172834645666
0
LINE
8
BLACK
6
CONTINUOUS
10
5.3342377165354327
20
-4.3409172834645666
11
5.344851141732283
21
-4.3212605511811022
0
LINE
8
BLACK
6
CONTINUOUS
10
5.344851141732283
20
-4.3212605511811022
11
5.3567356692913384
21
-4.3023451968503936
0
LINE
8
BLACK
6
CONTINUOUS
10
5.3567356692913384
20
-4.3023451968503936
11
5.3698396850393699
21
-4.2842532677165357
0
LINE
8
BLACK
6
CONTINUOUS
10
5.3698396850393699
20
-4.2842532677165357
11
5.3841063385826766
21
-4.2670633464566929
0
LINE
8
BLACK
6
CONTINUOUS
10
5.3841063385826766
20
-4.2670633464566929
11
5.3841063385826766
21
-4.2670633070866142
0
LINE
8
BLACK
6
CONTINUOUS
10
5.3841063385826766
20
-4.2670633070866142
11
5.3843568897637795
21
-4.266916141732283
0
LINE
8
BLACK
6
CONTINUOUS
10
5.3843568897637795
20
-4.266916141732283
11
5.3844658661417322
21
-4.266807204724409
0
LINE
8
BLACK
6
CONTINUOUS
10
5.3844658661417322
20
-4.266807204724409
11
5.3845816535433073
21
-4.2667841338582679
0
LINE
8
BLACK
6
CONTINUOUS
10
5.3845816535433073
20
-4.2667841338582679
11
5.3846308661417321
21
-4.2667552755905511
0
LINE
8
BLACK
6
CONTINUOUS
10
5.3846308661417321
20
-4.2667552755905511
11
5.3846952755905511
21
-4.266761535433071
0
LINE
8
BLACK
6
CONTINUOUS
10
5.3846952755905511
20
-4.266761535433071
11
5.3848425196850389
21
-4.2667322834645667
0
LINE
8
BLACK
6
CONTINUOUS
10
5.3848425196850389
20
-4.2667322834645667
11
5.6377952755905509
21
-4.2667322834645667
0
LINE
8
BLACK
6
CONTINUOUS
10
5.3852851181102359
20
-4.268700787401575
11
5.3782042913385828
21
-4.2766801574803148
0
LINE
8
BLACK
6
CONTINUOUS
10
5.3782042913385828
20
-4.2766801574803148
11
5.3645835433070861
21
-4.2942378346456689
0
LINE
8
BLACK
6
CONTINUOUS
10
5.3645835433070861
20
-4.2942378346456689
11
5.352148228346457
21
-4.312654094488189
0
LINE
8
BLACK
6
CONTINUOUS
10
5.352148228346457
20
-4.312654094488189
11
5.3409523622047246
21
-4.3318490944881889
0
LINE
8
BLACK
6
CONTINUOUS
10
5.3409523622047246
20
-4.3318490944881889
11
5.3310444881889767
21
-4.3517395669291341
0
LINE
8
BLACK
6
CONTINUOUS
10
5.3310444881889767
20
-4.3517395669291341
11
5.3224676377952758
21
-4.372239133858268
0
LINE
8
BLACK
6
CONTINUOUS
10
5.3224676377952758
20
-4.372239133858268
11
5.315258937007874
21
-4.3932588976377955
0
LINE
8
BLACK
6
CONTINUOUS
10
5.315258937007874
20
-4.3932588976377955
11
5.3094497244094487
21
-4.4147076771653539
0
LINE
8
BLACK
6
CONTINUOUS
10
5.3094497244094487
20
-4.4147076771653539
11
5.3050652362204724
21
-4.4364923228346456
0
LINE
8
BLACK
6
CONTINUOUS
10
5.3050652362204724
20
-4.4364923228346456
11
5.3021244488188977
21
-4.4585183858267712
0
LINE
8
BLACK
6
CONTINUOUS
10
5.3021244488188977
20
-4.4585183858267712
11
5.3006401181102358
21
-4.4806902755905513
0
LINE
8
BLACK
6
CONTINUOUS
10
5.3006401181102358
20
-4.4806902755905513
11
5.3006187007874015
21
-4.5029117716535429
0
LINE
8
BLACK
6
CONTINUOUS
10
5.3006187007874015
20
-4.5029117716535429
11
5.3020602755905513
21
-4.5250864960629924
0
LINE
8
BLACK
6
CONTINUOUS
10
5.3020602755905513
20
-4.5250864960629924
11
5.304958622047244
21
-4.5471181889763779
0
LINE
8
BLACK
6
CONTINUOUS
10
5.304958622047244
20
-4.5471181889763779
11
5.3093011417322833
21
-4.5689112598425199
0
LINE
8
BLACK
6
CONTINUOUS
10
5.3093011417322833
20
-4.5689112598425199
11
5.3150689763779528
21
-4.5903711811023618
0
LINE
8
BLACK
6
CONTINUOUS
10
5.3150689763779528
20
-4.5903711811023618
11
5.3222371259842518
21
-4.6114048031496058
0
LINE
8
BLACK
6
CONTINUOUS
10
5.3222371259842518
20
-4.6114048031496058
11
5.3307744881889763
21
-4.6319208661417326
0
LINE
8
BLACK
6
CONTINUOUS
10
5.3307744881889763
20
-4.6319208661417326
11
5.3406439763779527
21
-4.651830393700787
0
LINE
8
BLACK
6
CONTINUOUS
10
5.3406439763779527
20
-4.651830393700787
11
5.3518028346456692
21
-4.6710469291338583
0
LINE
8
BLACK
6
CONTINUOUS
10
5.3518028346456692
20
-4.6710469291338583
11
5.3642025984251971
21
-4.6894871653543309
0
LINE
8
BLACK
6
CONTINUOUS
10
5.3642025984251971
20
-4.6894871653543309
11
5.3777894881889763
21
-4.7070710236220474
0
LINE
8
BLACK
6
CONTINUOUS
10
5.3777894881889763
20
-4.7070710236220474
11
5.3848549606299212
21
-4.71506405511811
0
LINE
8
BLACK
6
CONTINUOUS
10
5.3848549606299212
20
-4.71506405511811
11
5.6377971653543302
21
-4.715551181102362
0
LINE
8
BLACK
6
CONTINUOUS
10
5.6377971653543302
20
-4.715551181102362
11
5.889874842519685
21
-4.7160366535433074
0
LINE
8
BLACK
6
CONTINUOUS
10
5.889874842519685
20
-4.7160366535433074
11
5.8904389763779523
21
-4.7154000393700786
0
LINE
8
BLACK
6
CONTINUOUS
10
5.8904389763779523
20
-4.7154000393700786
11
5.8910107086614172
21
-4.7147514173228346
0
LINE
8
BLACK
6
CONTINUOUS
10
5.8910107086614172
20
-4.7147514173228346
11
5.8912957480314958
21
-4.7144263779527558
0
LINE
8
BLACK
6
CONTINUOUS
10
5.8912957480314958
20
-4.7144263779527558
11
5.8912957874015746
21
-4.7144264173228345
0
LINE
8
BLACK
6
CONTINUOUS
10
5.8912957874015746
20
-4.7144264173228345
11
5.8912958267716533
21
-4.7144263779527558
0
LINE
8
BLACK
6
CONTINUOUS
10
5.8912958267716533
20
-4.7144263779527558
11
5.8986009055118105
21
-4.7060938976377953
0
LINE
8
BLACK
6
CONTINUOUS
10
5.8986009055118105
20
-4.7060938976377953
11
5.9120875196850395
21
-4.6885072440944882
0
LINE
8
BLACK
6
CONTINUOUS
10
5.9120875196850395
20
-4.6885072440944882
11
5.9243902755905511
21
-4.6700729921259843
0
LINE
8
BLACK
6
CONTINUOUS
10
5.9243902755905511
20
-4.6700729921259843
11
5.9354560629921256
21
-4.6508707086614169
0
LINE
8
BLACK
6
CONTINUOUS
10
5.9354560629921256
20
-4.6508707086614169
11
5.945237125984252
21
-4.6309832677165357
0
LINE
8
BLACK
6
CONTINUOUS
10
5.945237125984252
20
-4.6309832677165357
11
5.9536912204724404
21
-4.6104965354330707
0
LINE
8
BLACK
6
CONTINUOUS
10
5.9536912204724404
20
-4.6104965354330707
11
5.960781889763779
21
-4.5894988582677163
0
LINE
8
BLACK
6
CONTINUOUS
10
5.960781889763779
20
-4.5894988582677163
11
5.9664785433070868
21
-4.5680809448818893
0
LINE
8
BLACK
6
CONTINUOUS
10
5.9664785433070868
20
-4.5680809448818893
11
5.9707565354330709
21
-4.5463351968503938
0
LINE
8
BLACK
6
CONTINUOUS
10
5.9707565354330709
20
-4.5463351968503938
11
5.9735974409448813
21
-4.5243554330708662
0
LINE
8
BLACK
6
CONTINUOUS
10
5.9735974409448813
20
-4.5243554330708662
11
5.9749890157480312
21
-4.5022366141732286
0
LINE
8
BLACK
6
CONTINUOUS
10
5.9749890157480312
20
-4.5022366141732286
11
5.9749251968503936
21
-4.4800741338582677
0
LINE
8
BLACK
6
CONTINUOUS
10
5.9749251968503936
20
-4.4800741338582677
11
5.9734063385826772
21
-4.4579637007874018
0
LINE
8
BLACK
6
CONTINUOUS
10
5.9734063385826772
20
-4.4579637007874018
11
5.9704388976377949
21
-4.4360006692913387
0
LINE
8
BLACK
6
CONTINUOUS
10
5.9704388976377949
20
-4.4360006692913387
11
5.9660357874015748
21
-4.4142799212598423
0
LINE
8
BLACK
6
CONTINUOUS
10
5.9660357874015748
20
-4.4142799212598423
11
5.9602159448818899
21
-4.3928951574803152
0
LINE
8
BLACK
6
CONTINUOUS
10
5.9602159448818899
20
-4.3928951574803152
11
5.9530044881889763
21
-4.3719386614173228
0
LINE
8
BLACK
6
CONTINUOUS
10
5.9530044881889763
20
-4.3719386614173228
11
5.9444325590551177
21
-4.351500905511811
0
LINE
8
BLACK
6
CONTINUOUS
10
5.9444325590551177
20
-4.351500905511811
11
5.9345371653543308
21
-4.3316701181102362
0
LINE
8
BLACK
6
CONTINUOUS
10
5.9345371653543308
20
-4.3316701181102362
11
5.9233610236220473
21
-4.3125318503937011
0
LINE
8
BLACK
6
CONTINUOUS
10
5.9233610236220473
20
-4.3125318503937011
11
5.9109523228346452
21
-4.2941687795275589
0
LINE
8
BLACK
6
CONTINUOUS
10
5.9109523228346452
20
-4.2941687795275589
11
5.8973646850393697
21
-4.2766600393700784
0
LINE
8
BLACK
6
CONTINUOUS
10
5.8973646850393697
20
-4.2766600393700784
11
5.8903053149606297
21
-4.268700787401575
0
LINE
8
BLACK
6
CONTINUOUS
10
5.8903053149606297
20
-4.268700787401575
11
5.6377952755905509
21
-4.268700787401575
0
LINE
8
BLACK
6
CONTINUOUS
10
5.6377952755905509
20
-4.268700787401575
11
5.3852851181102359
21
-4.268700787401575
0
LINE
8
BLACK
6
CONTINUOUS
10
6.3595235433070867
20
-1.9296942913385826
11
6.3732599606299214
21
-1.932426653543307
0
LINE
8
BLACK
6
CONTINUOUS
10
6.3732599606299214
20
-1.932426653543307
11
6.3866624409448818
21
-1.9364922440944881
0
LINE
8
BLACK
6
CONTINUOUS
10
6.3866624409448818
20
-1.9364922440944881
11
6.3996018503937009
21
-1.9418519291338583
0
LINE
8
BLACK
6
CONTINUOUS
10
6.3996018503937009
20
-1.9418519291338583
11
6.4119536220472435
21
-1.948454094488189
0
LINE
8
BLACK
6
CONTINUOUS
10
6.4119536220472435
20
-1.948454094488189
11
6.4235988188976378
21
-1.956235157480315
0
LINE
8
BLACK
6
CONTINUOUS
10
6.4235988188976378
20
-1.956235157480315
11
6.4344252362204726
21
-1.965120157480315
0
LINE
8
BLACK
6
CONTINUOUS
10
6.4344252362204726
20
-1.965120157480315
11
6.4443286614173223
21
-1.9750235826771654
0
LINE
8
BLACK
6
CONTINUOUS
10
6.4443286614173223
20
-1.9750235826771654
11
6.4532136614173226
21
-1.9858499999999999
0
LINE
8
BLACK
6
CONTINUOUS
10
6.4532136614173226
20
-1.9858499999999999
11
6.4609947244094483
21
-1.9974951968503936
0
LINE
8
BLACK
6
CONTINUOUS
10
6.4609947244094483
20
-1.9974951968503936
11
6.4675968897637794
21
-2.0098469685039371
0
LINE
8
BLACK
6
CONTINUOUS
10
6.4675968897637794
20
-2.0098469685039371
11
6.4729565748031499
21
-2.0227863779527557
0
LINE
8
BLACK
6
CONTINUOUS
10
6.4729565748031499
20
-2.0227863779527557
11
6.477022165354331
21
-2.0361888582677166
0
LINE
8
BLACK
6
CONTINUOUS
10
6.477022165354331
20
-2.0361888582677166
11
6.4797545275590549
21
-2.0499252755905513
0
LINE
8
BLACK
6
CONTINUOUS
10
6.4797545275590549
20
-2.0499252755905513
11
6.4811273228346451
21
-2.0638633858267714
0
LINE
8
BLACK
6
CONTINUOUS
10
6.4811273228346451
20
-2.0638633858267714
11
6.4811273228346451
21
-2.0778688976377953
0
LINE
8
BLACK
6
CONTINUOUS
10
6.4811273228346451
20
-2.0778688976377953
11
6.4797545275590549
21
-2.0918070078740159
0
LINE
8
BLACK
6
CONTINUOUS
10
6.4797545275590549
20
-2.0918070078740159
11
6.477022165354331
21
-2.1055434251968506
0
LINE
8
BLACK
6
CONTINUOUS
10
6.477022165354331
20
-2.1055434251968506
11
6.4729565748031499
21
-2.1189459055118109
0
LINE
8
BLACK
6
CONTINUOUS
10
6.4729565748031499
20
-2.1189459055118109
11
6.4675968897637794
21
-2.1318853149606301
0
LINE
8
BLACK
6
CONTINUOUS
10
6.4675968897637794
20
-2.1318853149606301
11
6.4609947244094483
21
-2.1442370866141731
0
LINE
8
BLACK
6
CONTINUOUS
10
6.4609947244094483
20
-2.1442370866141731
11
6.4532136614173226
21
-2.155882283464567
0
LINE
8
BLACK
6
CONTINUOUS
10
6.4532136614173226
20
-2.155882283464567
11
6.4443286614173223
21
-2.1667087007874017
0
LINE
8
BLACK
6
CONTINUOUS
10
6.4443286614173223
20
-2.1667087007874017
11
6.4344252362204726
21
-2.1766121259842519
0
LINE
8
BLACK
6
CONTINUOUS
10
6.4344252362204726
20
-2.1766121259842519
11
6.4235988188976378
21
-2.1854971259842517
0
LINE
8
BLACK
6
CONTINUOUS
10
6.4235988188976378
20
-2.1854971259842517
11
6.4119536220472435
21
-2.1932781889763779
0
LINE
8
BLACK
6
CONTINUOUS
10
6.4119536220472435
20
-2.1932781889763779
11
6.3996018503937009
21
-2.1998803543307086
0
LINE
8
BLACK
6
CONTINUOUS
10
6.3996018503937009
20
-2.1998803543307086
11
6.3866624409448818
21
-2.2052400393700786
0
LINE
8
BLACK
6
CONTINUOUS
10
6.3866624409448818
20
-2.2052400393700786
11
6.3732599606299214
21
-2.2093056299212597
0
LINE
8
BLACK
6
CONTINUOUS
10
6.3732599606299214
20
-2.2093056299212597
11
6.3595235433070867
21
-2.2120379921259841
0
LINE
8
BLACK
6
CONTINUOUS
10
6.3595235433070867
20
-2.2120379921259841
11
6.3455854330708661
21
-2.2134107874015747
0
LINE
8
BLACK
6
CONTINUOUS
10
6.3455854330708661
20
-2.2134107874015747
11
6.3315799212598423
21
-2.2134107874015747
0
LINE
8
BLACK
6
CONTINUOUS
10
6.3315799212598423
20
-2.2134107874015747
11
6.3176418110236217
21
-2.2120379921259841
0
LINE
8
BLACK
6
CONTINUOUS
10
6.3176418110236217
20
-2.2120379921259841
11
6.303905393700787
21
-2.2093056299212597
0
LINE
8
BLACK
6
CONTINUOUS
10
6.303905393700787
20
-2.2093056299212597
11
6.2905029133858266
21
-2.2052400393700786
0
LINE
8
BLACK
6
CONTINUOUS
10
6.2905029133858266
20
-2.2052400393700786
11
6.2775635039370075
21
-2.1998803543307086
0
LINE
8
BLACK
6
CONTINUOUS
10
6.2775635039370075
20
-2.1998803543307086
11
6.2652117322834648
21
-2.1932781889763779
0
LINE
8
BLACK
6
CONTINUOUS
10
6.2652117322834648
20
-2.1932781889763779
11
6.2535665354330705
21
-2.1854971259842517
0
LINE
8
BLACK
6
CONTINUOUS
10
6.2535665354330705
20
-2.1854971259842517
11
6.2427401181102358
21
-2.1766121259842519
0
LINE
8
BLACK
6
CONTINUOUS
10
6.2427401181102358
20
-2.1766121259842519
11
6.232836692913386
21
-2.1667087007874017
0
LINE
8
BLACK
6
CONTINUOUS
10
6.232836692913386
20
-2.1667087007874017
11
6.2239516929133858
21
-2.155882283464567
0
LINE
8
BLACK
6
CONTINUOUS
10
6.2239516929133858
20
-2.155882283464567
11
6.21617062992126
21
-2.1442370866141731
0
LINE
8
BLACK
6
CONTINUOUS
10
6.21617062992126
20
-2.1442370866141731
11
6.2095684645669289
21
-2.1318853149606301
0
LINE
8
BLACK
6
CONTINUOUS
10
6.2095684645669289
20
-2.1318853149606301
11
6.2042087795275593
21
-2.1189459055118109
0
LINE
8
BLACK
6
CONTINUOUS
10
6.2042087795275593
20
-2.1189459055118109
11
6.2001431889763774
21
-2.1055434251968506
0
LINE
8
BLACK
6
CONTINUOUS
10
6.2001431889763774
20
-2.1055434251968506
11
6.1974108267716534
21
-2.0918070078740159
0
LINE
8
BLACK
6
CONTINUOUS
10
6.1974108267716534
20
-2.0918070078740159
11
6.1960380314960632
21
-2.0778688976377953
0
LINE
8
BLACK
6
CONTINUOUS
10
6.1960380314960632
20
-2.0778688976377953
11
6.1960380314960632
21
-2.0639516535433069
0
LINE
8
BLACK
6
CONTINUOUS
10
6.1960380314960632
20
-2.0639516535433069
11
6.1960380314960632
21
-2.0638633858267714
0
LINE
8
BLACK
6
CONTINUOUS
10
6.1960380314960632
20
-2.0638633858267714
11
6.1974108267716534
21
-2.0499252755905513
0
LINE
8
BLACK
6
CONTINUOUS
10
6.1974108267716534
20
-2.0499252755905513
11
6.2001431889763774
21
-2.0361888582677166
0
LINE
8
BLACK
6
CONTINUOUS
10
6.2001431889763774
20
-2.0361888582677166
11
6.2042087795275593
21
-2.0227863779527557
0
LINE
8
BLACK
6
CONTINUOUS
10
6.2042087795275593
20
-2.0227863779527557
11
6.2095684645669289
21
-2.0098469685039371
0
LINE
8
BLACK
6
CONTINUOUS
10
6.2095684645669289
20
-2.0098469685039371
11
6.21617062992126
21
-1.9974951968503936
0
LINE
8
BLACK
6
CONTINUOUS
10
6.21617062992126
20
-1.9974951968503936
11
6.2239516929133858
21
-1.9858499999999999
0
LINE
8
BLACK
6
CONTINUOUS
10
6.2239516929133858
20
-1.9858499999999999
11
6.232836692913386
21
-1.9750235826771654
0
LINE
8
BLACK
6
CONTINUOUS
10
6.232836692913386
20
-1.9750235826771654
11
6.2427401181102358
21
-1.965120157480315
0
LINE
8
BLACK
6
CONTINUOUS
10
6.2427401181102358
20
-1.965120157480315
11
6.2535665354330705
21
-1.956235157480315
0
LINE
8
BLACK
6
CONTINUOUS
10
6.2535665354330705
20
-1.956235157480315
11
6.2652117322834648
21
-1.948454094488189
0
LINE
8
BLACK
6
CONTINUOUS
10
6.2652117322834648
20
-1.948454094488189
11
6.2775635039370075
21
-1.9418519291338583
0
LINE
8
BLACK
6
CONTINUOUS
10
6.2775635039370075
20
-1.9418519291338583
11
6.2905029133858266
21
-1.9364922440944881
0
LINE
8
BLACK
6
CONTINUOUS
10
6.2905029133858266
20
-1.9364922440944881
11
6.303905393700787
21
-1.932426653543307
0
LINE
8
BLACK
6
CONTINUOUS
10
6.303905393700787
20
-1.932426653543307
11
6.3176418110236217
21
-1.9296942913385826
0
LINE
8
BLACK
6
CONTINUOUS
10
6.3176418110236217
20
-1.9296942913385826
11
6.3315799212598423
21
-1.9283214960629922
0
LINE
8
BLACK
6
CONTINUOUS
10
6.3315799212598423
20
-1.9283214960629922
11
6.3455854330708661
21
-1.9283214960629922
0
LINE
8
BLACK
6
CONTINUOUS
10
6.3455854330708661
20
-1.9283214960629922
11
6.3595235433070867
21
-1.9296942913385826
0
LINE
8
BLACK
6
CONTINUOUS
10
6.1978346456692908
20
-2.0777806299212598
11
6.1991901574803148
21
-2.0915430708661416
0
LINE
8
BLACK
6
CONTINUOUS
10
6.1991901574803148
20
-2.0915430708661416
11
6.2018880314960629
21
-2.1051063779527559
0
LINE
8
BLACK
6
CONTINUOUS
10
6.2018880314960629
20
-2.1051063779527559
11
6.2059024015748028
21
-2.1183399212598424
0
LINE
8
BLACK
6
CONTINUOUS
10
6.2059024015748028
20
-2.1183399212598424
11
6.211194527559055
21
-2.1311162598425195
0
LINE
8
BLACK
6
CONTINUOUS
10
6.211194527559055
20
-2.1311162598425195
11
6.2177135039370075
21
-2.1433123622047243
0
LINE
8
BLACK
6
CONTINUOUS
10
6.2177135039370075
20
-2.1433123622047243
11
6.2253964566929136
21
-2.1548107480314962
0
LINE
8
BLACK
6
CONTINUOUS
10
6.2253964566929136
20
-2.1548107480314962
11
6.234169488188976
21
-2.1655007086614173
0
LINE
8
BLACK
6
CONTINUOUS
10
6.234169488188976
20
-2.1655007086614173
11
6.2439481102362206
21
-2.1752793307086615
0
LINE
8
BLACK
6
CONTINUOUS
10
6.2439481102362206
20
-2.1752793307086615
11
6.2546380708661413
21
-2.1840523622047243
0
LINE
8
BLACK
6
CONTINUOUS
10
6.2546380708661413
20
-2.1840523622047243
11
6.2661364566929132
21
-2.19173531496063
0
LINE
8
BLACK
6
CONTINUOUS
10
6.2661364566929132
20
-2.19173531496063
11
6.2783325590551176
21
-2.1982542913385825
0
LINE
8
BLACK
6
CONTINUOUS
10
6.2783325590551176
20
-2.1982542913385825
11
6.2911088976377956
21
-2.2035464173228347
0
LINE
8
BLACK
6
CONTINUOUS
10
6.2911088976377956
20
-2.2035464173228347
11
6.3043424409448816
21
-2.2075607874015746
0
LINE
8
BLACK
6
CONTINUOUS
10
6.3043424409448816
20
-2.2075607874015746
11
6.317905748031496
21
-2.2102586614173227
0
LINE
8
BLACK
6
CONTINUOUS
10
6.317905748031496
20
-2.2102586614173227
11
6.3316681889763782
21
-2.2116141732283463
0
LINE
8
BLACK
6
CONTINUOUS
10
6.3316681889763782
20
-2.2116141732283463
11
6.3454971653543302
21
-2.2116141732283463
0
LINE
8
BLACK
6
CONTINUOUS
10
6.3454971653543302
20
-2.2116141732283463
11
6.3592596062992124
21
-2.2102586614173227
0
LINE
8
BLACK
6
CONTINUOUS
10
6.3592596062992124
20
-2.2102586614173227
11
6.3728229133858267
21
-2.2075607874015746
0
LINE
8
BLACK
6
CONTINUOUS
10
6.3728229133858267
20
-2.2075607874015746
11
6.3860564566929137
21
-2.2035464173228347
0
LINE
8
BLACK
6
CONTINUOUS
10
6.3860564566929137
20
-2.2035464173228347
11
6.3988327952755908
21
-2.1982542913385825
0
LINE
8
BLACK
6
CONTINUOUS
10
6.3988327952755908
20
-2.1982542913385825
11
6.4110288976377952
21
-2.19173531496063
0
LINE
8
BLACK
6
CONTINUOUS
10
6.4110288976377952
20
-2.19173531496063
11
6.422527283464567
21
-2.1840523622047243
0
LINE
8
BLACK
6
CONTINUOUS
10
6.422527283464567
20
-2.1840523622047243
11
6.4332172440944877
21
-2.1752793307086615
0
LINE
8
BLACK
6
CONTINUOUS
10
6.4332172440944877
20
-2.1752793307086615
11
6.4429958661417324
21
-2.1655007086614173
0
LINE
8
BLACK
6
CONTINUOUS
10
6.4429958661417324
20
-2.1655007086614173
11
6.4517688976377947
21
-2.1548107480314962
0
LINE
8
BLACK
6
CONTINUOUS
10
6.4517688976377947
20
-2.1548107480314962
11
6.4594518503937008
21
-2.1433123622047243
0
LINE
8
BLACK
6
CONTINUOUS
10
6.4594518503937008
20
-2.1433123622047243
11
6.4659708267716534
21
-2.1311162598425195
0
LINE
8
BLACK
6
CONTINUOUS
10
6.4659708267716534
20
-2.1311162598425195
11
6.4712629527559056
21
-2.1183399212598424
0
LINE
8
BLACK
6
CONTINUOUS
10
6.4712629527559056
20
-2.1183399212598424
11
6.4752773228346454
21
-2.1051063779527559
0
LINE
8
BLACK
6
CONTINUOUS
10
6.4752773228346454
20
-2.1051063779527559
11
6.4779751968503936
21
-2.0915430708661416
0
LINE
8
BLACK
6
CONTINUOUS
10
6.4779751968503936
20
-2.0915430708661416
11
6.4793307086614176
21
-2.0777806299212598
0
LINE
8
BLACK
6
CONTINUOUS
10
6.4793307086614176
20
-2.0777806299212598
11
6.4793307086614176
21
-2.0639516535433069
0
LINE
8
BLACK
6
CONTINUOUS
10
6.4793307086614176
20
-2.0639516535433069
11
6.4779751968503936
21
-2.0501892125984251
0
LINE
8
BLACK
6
CONTINUOUS
10
6.4779751968503936
20
-2.0501892125984251
11
6.4752773228346454
21
-2.0366259055118108
0
LINE
8
BLACK
6
CONTINUOUS
10
6.4752773228346454
20
-2.0366259055118108
11
6.4712629527559056
21
-2.0233923622047243
0
LINE
8
BLACK
6
CONTINUOUS
10
6.4712629527559056
20
-2.0233923622047243
11
6.4659708267716534
21
-2.0106160236220472
0
LINE
8
BLACK
6
CONTINUOUS
10
6.4659708267716534
20
-2.0106160236220472
11
6.4594518503937008
21
-1.9984199212598426
0
LINE
8
BLACK
6
CONTINUOUS
10
6.4594518503937008
20
-1.9984199212598426
11
6.4517688976377947
21
-1.9869215354330709
0
LINE
8
BLACK
6
CONTINUOUS
10
6.4517688976377947
20
-1.9869215354330709
11
6.4429958661417324
21
-1.9762315748031496
0
LINE
8
BLACK
6
CONTINUOUS
10
6.4429958661417324
20
-1.9762315748031496
11
6.4332172440944877
21
-1.9664529527559054
0
LINE
8
BLACK
6
CONTINUOUS
10
6.4332172440944877
20
-1.9664529527559054
11
6.422527283464567
21
-1.9576799212598426
0
LINE
8
BLACK
6
CONTINUOUS
10
6.422527283464567
20
-1.9576799212598426
11
6.4110288976377952
21
-1.9499969685039369
0
LINE
8
BLACK
6
CONTINUOUS
10
6.4110288976377952
20
-1.9499969685039369
11
6.3988327952755908
21
-1.9434779921259842
0
LINE
8
BLACK
6
CONTINUOUS
10
6.3988327952755908
20
-1.9434779921259842
11
6.3860564566929137
21
-1.9381858661417322
0
LINE
8
BLACK
6
CONTINUOUS
10
6.3860564566929137
20
-1.9381858661417322
11
6.3728229133858267
21
-1.9341714960629921
0
LINE
8
BLACK
6
CONTINUOUS
10
6.3728229133858267
20
-1.9341714960629921
11
6.3592596062992124
21
-1.9314736220472442
0
LINE
8
BLACK
6
CONTINUOUS
10
6.3592596062992124
20
-1.9314736220472442
11
6.3454971653543302
21
-1.9301181102362204
0
LINE
8
BLACK
6
CONTINUOUS
10
6.3454971653543302
20
-1.9301181102362204
11
6.3316681889763782
21
-1.9301181102362204
0
LINE
8
BLACK
6
CONTINUOUS
10
6.3316681889763782
20
-1.9301181102362204
11
6.317905748031496
21
-1.9314736220472442
0
LINE
8
BLACK
6
CONTINUOUS
10
6.317905748031496
20
-1.9314736220472442
11
6.3043424409448816
21
-1.9341714960629921
0
LINE
8
BLACK
6
CONTINUOUS
10
6.3043424409448816
20
-1.9341714960629921
11
6.2911088976377956
21
-1.9381858661417322
0
LINE
8
BLACK
6
CONTINUOUS
10
6.2911088976377956
20
-1.9381858661417322
11
6.2783325590551176
21
-1.9434779921259842
0
LINE
8
BLACK
6
CONTINUOUS
10
6.2783325590551176
20
-1.9434779921259842
11
6.2661364566929132
21
-1.9499969685039369
0
LINE
8
BLACK
6
CONTINUOUS
10
6.2661364566929132
20
-1.9499969685039369
11
6.2546380708661413
21
-1.9576799212598426
0
LINE
8
BLACK
6
CONTINUOUS
10
6.2546380708661413
20
-1.9576799212598426
11
6.2439481102362206
21
-1.9664529527559054
0
LINE
8
BLACK
6
CONTINUOUS
10
6.2439481102362206
20
-1.9664529527559054
11
6.234169488188976
21
-1.9762315748031496
0
LINE
8
BLACK
6
CONTINUOUS
10
6.234169488188976
20
-1.9762315748031496
11
6.2253964566929136
21
-1.9869215354330709
0
LINE
8
BLACK
6
CONTINUOUS
10
6.2253964566929136
20
-1.9869215354330709
11
6.2177135039370075
21
-1.9984199212598426
0
LINE
8
BLACK
6
CONTINUOUS
10
6.2177135039370075
20
-1.9984199212598426
11
6.211194527559055
21
-2.0106160236220472
0
LINE
8
BLACK
6
CONTINUOUS
10
6.211194527559055
20
-2.0106160236220472
11
6.2059024015748028
21
-2.0233923622047243
0
LINE
8
BLACK
6
CONTINUOUS
10
6.2059024015748028
20
-2.0233923622047243
11
6.2018880314960629
21
-2.0366259055118108
0
LINE
8
BLACK
6
CONTINUOUS
10
6.2018880314960629
20
-2.0366259055118108
11
6.1991901574803148
21
-2.0501892125984251
0
LINE
8
BLACK
6
CONTINUOUS
10
6.1991901574803148
20
-2.0501892125984251
11
6.1978346456692908
21
-2.0639516535433069
0
LINE
8
BLACK
6
CONTINUOUS
10
6.1978346456692908
20
-2.0639516535433069
11
6.1978346456692908
21
-2.0777806299212598
0
LINE
8
BLACK
6
CONTINUOUS
10
6.4050688582677164
20
-1.7713058661417322
11
6.4052673622047243
21
-1.7712977952755906
0
LINE
8
BLACK
6
CONTINUOUS
10
6.4052673622047243
20
-1.7712977952755906
11
6.4186531889763776
21
-1.7720685039370079
0
LINE
8
BLACK
6
CONTINUOUS
10
6.4186531889763776
20
-1.7720685039370079
11
6.4190446456692909
21
-1.7721299212598425
0
LINE
8
BLACK
6
CONTINUOUS
10
6.4190446456692909
20
-1.7721299212598425
11
6.4194393700787398
21
-1.7721593307086614
0
LINE
8
BLACK
6
CONTINUOUS
10
6.4194393700787398
20
-1.7721593307086614
11
6.4326833858267713
21
-1.7744660629921258
0
LINE
8
BLACK
6
CONTINUOUS
10
6.4326833858267713
20
-1.7744660629921258
11
6.4330638582677162
21
-1.7745716141732284
0
LINE
8
BLACK
6
CONTINUOUS
10
6.4330638582677162
20
-1.7745716141732284
11
6.4334513385826773
21
-1.7746456692913386
0
LINE
8
BLACK
6
CONTINUOUS
10
6.4334513385826773
20
-1.7746456692913386
11
6.4464163779527555
21
-1.7784718503937007
0
LINE
8
BLACK
6
CONTINUOUS
10
6.4464163779527555
20
-1.7784718503937007
11
6.4467807874015746
21
-1.7786195669291338
0
LINE
8
BLACK
6
CONTINUOUS
10
6.4467807874015746
20
-1.7786195669291338
11
6.4471561417322834
21
-1.7787368897637794
0
LINE
8
BLACK
6
CONTINUOUS
10
6.4471561417322834
20
-1.7787368897637794
11
6.4596733464566931
21
-1.7840451181102361
0
LINE
8
BLACK
6
CONTINUOUS
10
6.4596733464566931
20
-1.7840451181102361
11
6.4598849606299211
21
-1.7841605118110235
0
LINE
8
BLACK
6
CONTINUOUS
10
6.4598849606299211
20
-1.7841605118110235
11
6.4601093307086614
21
-1.7842482677165354
0
LINE
8
BLACK
6
CONTINUOUS
10
6.4601093307086614
20
-1.7842482677165354
11
6.4613835826771648
21
-1.7848970078740156
0
LINE
8
BLACK
6
CONTINUOUS
10
6.4613835826771648
20
-1.7848970078740156
11
6.9169431496062987
21
-1.7848970078740156
0
LINE
8
BLACK
6
CONTINUOUS
10
6.9169431496062987
20
-1.7848970078740156
11
6.917204527559055
21
-1.7849227559055119
0
LINE
8
BLACK
6
CONTINUOUS
10
6.917204527559055
20
-1.7849227559055119
11
6.9174672047244092
21
-1.784916968503937
0
LINE
8
BLACK
6
CONTINUOUS
10
6.9174672047244092
20
-1.784916968503937
11
6.9205725984251965
21
-1.7851538582677164
0
LINE
8
BLACK
6
CONTINUOUS
10
6.9205725984251965
20
-1.7851538582677164
11
6.9206937007874014
21
-1.785175157480315
0
LINE
8
BLACK
6
CONTINUOUS
10
6.9206937007874014
20
-1.785175157480315
11
6.9208166535433069
21
-1.7851768503937007
0
LINE
8
BLACK
6
CONTINUOUS
10
6.9208166535433069
20
-1.7851768503937007
11
6.9208982677165354
21
-1.7851859842519684
0
LINE
8
BLACK
6
CONTINUOUS
10
6.9208982677165354
20
-1.7851859842519684
11
6.9649532283464568
21
-1.7864435039370079
0
LINE
8
BLACK
6
CONTINUOUS
10
6.9649532283464568
20
-1.7864435039370079
11
6.9650747244094484
21
-1.7864589763779528
0
LINE
8
BLACK
6
CONTINUOUS
10
6.9650747244094484
20
-1.7864589763779528
11
6.965196850393701
21
-1.7864548031496064
0
LINE
8
BLACK
6
CONTINUOUS
10
6.965196850393701
20
-1.7864548031496064
11
7.0093328740157474
21
-1.7892805118110235
0
LINE
8
BLACK
6
CONTINUOUS
10
7.0093328740157474
20
-1.7892805118110235
11
7.0094537401574799
21
-1.7893002755905512
0
LINE
8
BLACK
6
CONTINUOUS
10
7.0094537401574799
20
-1.7893002755905512
11
7.0095766141732279
21
-1.7893004330708662
0
LINE
8
BLACK
6
CONTINUOUS
10
7.0095766141732279
20
-1.7893004330708662
11
7.0534783070866141
21
-1.7936799999999999
0
LINE
8
BLACK
6
CONTINUOUS
10
7.0534783070866141
20
-1.7936799999999999
11
7.0535988582677165
21
-1.7937041338582678
0
LINE
8
BLACK
6
CONTINUOUS
10
7.0535988582677165
20
-1.7937041338582678
11
7.0537216535433069
21
-1.7937086614173228
0
LINE
8
BLACK
6
CONTINUOUS
10
7.0537216535433069
20
-1.7937086614173228
11
7.0973579921259837
21
-1.7996355511811024
0
LINE
8
BLACK
6
CONTINUOUS
10
7.0973579921259837
20
-1.7996355511811024
11
7.097477755905512
21
-1.7996639763779527
0
LINE
8
BLACK
6
CONTINUOUS
10
7.097477755905512
20
-1.7996639763779527
11
7.0976005905511812
21
-1.7996729133858267
0
LINE
8
BLACK
6
CONTINUOUS
10
7.0976005905511812
20
-1.7996729133858267
11
7.1409387401574804
21
-1.8071400787401575
0
LINE
8
BLACK
6
CONTINUOUS
10
7.1409387401574804
20
-1.8071400787401575
11
7.141057677165354
21
-1.8071728346456692
0
LINE
8
BLACK
6
CONTINUOUS
10
7.141057677165354
20
-1.8071728346456692
11
7.1411801574803144
21
-1.8071861417322834
0
LINE
8
BLACK
6
CONTINUOUS
10
7.1411801574803144
20
-1.8071861417322834
11
7.1841852755905506
21
-1.8161857874015748
0
LINE
8
BLACK
6
CONTINUOUS
10
7.1841852755905506
20
-1.8161857874015748
11
7.1843030708661413
21
-1.8162227952755905
0
LINE
8
BLACK
6
CONTINUOUS
10
7.1843030708661413
20
-1.8162227952755905
11
7.1844250787401576
21
-1.8162404724409449
0
LINE
8
BLACK
6
CONTINUOUS
10
7.1844250787401576
20
-1.8162404724409449
11
7.2270603543307086
21
-1.8267638582677166
0
LINE
8
BLACK
6
CONTINUOUS
10
7.2270603543307086
20
-1.8267638582677166
11
7.2271765748031491
21
-1.8268049606299213
0
LINE
8
BLACK
6
CONTINUOUS
10
7.2271765748031491
20
-1.8268049606299213
11
7.2272981102362204
21
-1.8268270472440944
0
LINE
8
BLACK
6
CONTINUOUS
10
7.2272981102362204
20
-1.8268270472440944
11
7.2695246850393698
21
-1.8388642125984251
0
LINE
8
BLACK
6
CONTINUOUS
10
7.2695246850393698
20
-1.8388642125984251
11
7.2696394488188973
21
-1.8389094881889763
0
LINE
8
BLACK
6
CONTINUOUS
10
7.2696394488188973
20
-1.8389094881889763
11
7.2697600393700785
21
-1.8389358661417323
0
LINE
8
BLACK
6
CONTINUOUS
10
7.2697600393700785
20
-1.8389358661417323
11
7.3115371653543306
21
-1.8524753543307086
0
LINE
8
BLACK
6
CONTINUOUS
10
7.3115371653543306
20
-1.8524753543307086
11
7.3116503937007868
21
-1.8525247637795275
0
LINE
8
BLACK
6
CONTINUOUS
10
7.3116503937007868
20
-1.8525247637795275
11
7.3117698031496063
21
-1.8525553937007873
0
LINE
8
BLACK
6
CONTINUOUS
10
7.3117698031496063
20
-1.8525553937007873
11
7.3530548818897632
21
-1.8675841732283465
0
LINE
8
BLACK
6
CONTINUOUS
10
7.3530548818897632
20
-1.8675841732283465
11
7.3531661023622048
21
-1.8676375196850394
0
LINE
8
BLACK
6
CONTINUOUS
10
7.3531661023622048
20
-1.8676375196850394
11
7.3532844094488183
21
-1.8676724015748032
0
LINE
8
BLACK
6
CONTINUOUS
10
7.3532844094488183
20
-1.8676724015748032
11
7.394033188976378
21
-1.8841755118110235
0
LINE
8
BLACK
6
CONTINUOUS
10
7.394033188976378
20
-1.8841755118110235
11
7.3941423228346457
21
-1.8842327559055119
0
LINE
8
BLACK
6
CONTINUOUS
10
7.3941423228346457
20
-1.8842327559055119
11
7.3942592913385825
21
-1.8842718110236221
0
LINE
8
BLACK
6
CONTINUOUS
10
7.3942592913385825
20
-1.8842718110236221
11
7.4344257086614167
21
-1.9022321653543306
0
LINE
8
BLACK
6
CONTINUOUS
10
7.4344257086614167
20
-1.9022321653543306
11
7.4345325590551177
21
-1.9022931496062991
0
LINE
8
BLACK
6
CONTINUOUS
10
7.4345325590551177
20
-1.9022931496062991
11
7.4346481102362203
21
-1.9023363779527558
0
LINE
8
BLACK
6
CONTINUOUS
10
7.4346481102362203
20
-1.9023363779527558
11
7.474184881889764
21
-1.9217347244094487
0
LINE
8
BLACK
6
CONTINUOUS
10
7.474184881889764
20
-1.9217347244094487
11
7.4742896850393699
21
-1.9217996062992126
0
LINE
8
BLACK
6
CONTINUOUS
10
7.4742896850393699
20
-1.9217996062992126
11
7.4744032677165348
21
-1.9218467716535432
0
LINE
8
BLACK
6
CONTINUOUS
10
7.4744032677165348
20
-1.9218467716535432
11
7.5132618503937003
21
-1.9426613385826772
0
LINE
8
BLACK
6
CONTINUOUS
10
7.5132618503937003
20
-1.9426613385826772
11
7.5133641338582677
21
-1.9427298031496063
0
LINE
8
BLACK
6
CONTINUOUS
10
7.5133641338582677
20
-1.9427298031496063
11
7.5134759448818897
21
-1.9427809842519685
0
LINE
8
BLACK
6
CONTINUOUS
10
7.5134759448818897
20
-1.9427809842519685
11
7.5516068110236221
21
-1.9649875196850393
0
LINE
8
BLACK
6
CONTINUOUS
10
7.5516068110236221
20
-1.9649875196850393
11
7.5517063385826768
21
-1.965059409448819
0
LINE
8
BLACK
6
CONTINUOUS
10
7.5517063385826768
20
-1.965059409448819
11
7.5518164173228346
21
-1.9651146062992126
0
LINE
8
BLACK
6
CONTINUOUS
10
7.5518164173228346
20
-1.9651146062992126
11
7.5891693307086614
21
-1.9886861811023622
0
LINE
8
BLACK
6
CONTINUOUS
10
7.5891693307086614
20
-1.9886861811023622
11
7.5892663779527556
21
-1.988761653543307
0
LINE
8
BLACK
6
CONTINUOUS
10
7.5892663779527556
20
-1.988761653543307
11
7.5893741338582679
21
-1.9888205905511811
0
LINE
8
BLACK
6
CONTINUOUS
10
7.5893741338582679
20
-1.9888205905511811
11
7.625898503937008
21
-2.0137276771653543
0
LINE
8
BLACK
6
CONTINUOUS
10
7.625898503937008
20
-2.0137276771653543
11
7.6259925984251966
21
-2.0138064173228347
0
LINE
8
BLACK
6
CONTINUOUS
10
7.6259925984251966
20
-2.0138064173228347
11
7.6260983070866137
21
-2.0138691732283465
0
LINE
8
BLACK
6
CONTINUOUS
10
7.6260983070866137
20
-2.0138691732283465
11
7.6617434251968506
21
-2.0400794488188976
0
LINE
8
BLACK
6
CONTINUOUS
10
7.6617434251968506
20
-2.0400794488188976
11
7.6618347244094487
21
-2.0401614960629919
0
LINE
8
BLACK
6
CONTINUOUS
10
7.6618347244094487
20
-2.0401614960629919
11
7.661937992125984
21
-2.0402279133858268
0
LINE
8
BLACK
6
CONTINUOUS
10
7.661937992125984
20
-2.0402279133858268
11
7.6966533858267718
21
-2.0677064960629923
0
LINE
8
BLACK
6
CONTINUOUS
10
7.6966533858267718
20
-2.0677064960629923
11
7.6967416141732281
21
-2.0677916929133859
0
LINE
8
BLACK
6
CONTINUOUS
10
7.6967416141732281
20
-2.0677916929133859
11
7.6968425196850392
21
-2.0678617322834647
0
LINE
8
BLACK
6
CONTINUOUS
10
7.6968425196850392
20
-2.0678617322834647
11
7.7305782677165356
21
-2.0965709842519686
0
LINE
8
BLACK
6
CONTINUOUS
10
7.7305782677165356
20
-2.0965709842519686
11
7.73066342519685
21
-2.0966592519685037
0
LINE
8
BLACK
6
CONTINUOUS
10
7.73066342519685
20
-2.0966592519685037
11
7.7307617716535431
21
-2.0967328346456693
0
LINE
8
BLACK
6
CONTINUOUS
10
7.7307617716535431
20
-2.0967328346456693
11
7.763468858267716
21
-2.1266328740157481
0
LINE
8
BLACK
6
CONTINUOUS
10
7.763468858267716
20
-2.1266328740157481
11
7.7635509448818896
21
-2.1267242519685037
0
LINE
8
BLACK
6
CONTINUOUS
10
7.7635509448818896
20
-2.1267242519685037
11
7.7636464960629921
21
-2.1268011811023619
0
LINE
8
BLACK
6
CONTINUOUS
10
7.7636464960629921
20
-2.1268011811023619
11
7.7952770866141732
21
-2.1578496456692915
0
LINE
8
BLACK
6
CONTINUOUS
10
7.7952770866141732
20
-2.1578496456692915
11
7.795336220472441
21
-2.1579203543307086
0
LINE
8
BLACK
6
CONTINUOUS
10
7.795336220472441
20
-2.1579203543307086
11
7.795406377952756
21
-2.1579799999999998
0
LINE
8
BLACK
6
CONTINUOUS
10
7.795406377952756
20
-2.1579799999999998
11
7.8108028346456688
21
-2.1739205118110236
0
LINE
8
BLACK
6
CONTINUOUS
10
7.8108028346456688
20
-2.1739205118110236
11
7.8108410236220474
21
-2.1739687401574801
0
LINE
8
BLACK
6
CONTINUOUS
10
7.8108410236220474
20
-2.1739687401574801
11
7.8108870866141729
21
-2.1740093307086612
0
LINE
8
BLACK
6
CONTINUOUS
10
7.8108870866141729
20
-2.1740093307086612
11
7.8259985039370079
21
-2.190221535433071
0
LINE
8
BLACK
6
CONTINUOUS
10
7.8259985039370079
20
-2.190221535433071
11
7.826035826771653
21
-2.1902704330708662
0
LINE
8
BLACK
6
CONTINUOUS
10
7.826035826771653
20
-2.1902704330708662
11
7.8260811811023618
21
-2.1903118503937007
0
LINE
8
BLACK
6
CONTINUOUS
10
7.8260811811023618
20
-2.1903118503937007
11
7.8408979527559053
21
-2.2067855118110238
0
LINE
8
BLACK
6
CONTINUOUS
10
7.8408979527559053
20
-2.2067855118110238
11
7.8409343307086612
21
-2.2068349212598424
0
LINE
8
BLACK
6
CONTINUOUS
10
7.8409343307086612
20
-2.2068349212598424
11
7.84097905511811
21
-2.2068772834645669
0
LINE
8
BLACK
6
CONTINUOUS
10
7.84097905511811
20
-2.2068772834645669
11
7.8555027952755907
21
-2.2236142913385826
0
LINE
8
BLACK
6
CONTINUOUS
10
7.8555027952755907
20
-2.2236142913385826
11
7.8555383464566928
21
-2.2236644881889762
0
LINE
8
BLACK
6
CONTINUOUS
10
7.8555383464566928
20
-2.2236644881889762
11
7.8555822834645666
21
-2.2237075590551179
0
LINE
8
BLACK
6
CONTINUOUS
10
7.8555822834645666
20
-2.2237075590551179
11
7.8697980314960629
21
-2.2406906299212599
0
LINE
8
BLACK
6
CONTINUOUS
10
7.8697980314960629
20
-2.2406906299212599
11
7.8698326771653537
21
-2.2407414173228344
0
LINE
8
BLACK
6
CONTINUOUS
10
7.8698326771653537
20
-2.2407414173228344
11
7.8698759055118108
21
-2.2407853543307086
0
LINE
8
BLACK
6
CONTINUOUS
10
7.8698759055118108
20
-2.2407853543307086
11
7.8837909448818895
21
-2.2580232677165353
0
LINE
8
BLACK
6
CONTINUOUS
10
7.8837909448818895
20
-2.2580232677165353
11
7.8838246850393698
21
-2.2580746850393698
0
LINE
8
BLACK
6
CONTINUOUS
10
7.8838246850393698
20
-2.2580746850393698
11
7.8838671259842519
21
-2.2581193700787403
0
LINE
8
BLACK
6
CONTINUOUS
10
7.8838671259842519
20
-2.2581193700787403
11
7.8974616535433073
21
-2.2755874409448817
0
LINE
8
BLACK
6
CONTINUOUS
10
7.8974616535433073
20
-2.2755874409448817
11
7.8974944881889764
21
-2.2756394488188976
0
LINE
8
BLACK
6
CONTINUOUS
10
7.8974944881889764
20
-2.2756394488188976
11
7.8975361417322834
21
-2.2756849212598427
0
LINE
8
BLACK
6
CONTINUOUS
10
7.8975361417322834
20
-2.2756849212598427
11
7.9108225590551182
21
-2.2933992125984251
0
LINE
8
BLACK
6
CONTINUOUS
10
7.9108225590551182
20
-2.2933992125984251
11
7.9108544094488185
21
-2.2934516929133859
0
LINE
8
BLACK
6
CONTINUOUS
10
7.9108544094488185
20
-2.2934516929133859
11
7.9108953543307088
21
-2.2934980314960631
0
LINE
8
BLACK
6
CONTINUOUS
10
7.9108953543307088
20
-2.2934980314960631
11
7.9238496062992123
21
-2.311426181102362
0
LINE
8
BLACK
6
CONTINUOUS
10
7.9238496062992123
20
-2.311426181102362
11
7.9238806692913384
21
-2.3114795275590549
0
LINE
8
BLACK
6
CONTINUOUS
10
7.9238806692913384
20
-2.3114795275590549
11
7.9239206299212599
21
-2.311526377952756
0
LINE
8
BLACK
6
CONTINUOUS
10
7.9239206299212599
20
-2.311526377952756
11
7.9365597244094488
21
-2.3296919291338583
0
LINE
8
BLACK
6
CONTINUOUS
10
7.9365597244094488
20
-2.3296919291338583
11
7.9365898818897636
21
-2.3297458661417321
0
LINE
8
BLACK
6
CONTINUOUS
10
7.9365898818897636
20
-2.3297458661417321
11
7.9366289763779525
21
-2.3297934251968502
0
LINE
8
BLACK
6
CONTINUOUS
10
7.9366289763779525
20
-2.3297934251968502
11
7.9489252755905513
21
-2.3481565748031494
0
LINE
8
BLACK
6
CONTINUOUS
10
7.9489252755905513
20
-2.3481565748031494
11
7.948954330708661
21
-2.3482108267716533
0
LINE
8
BLACK
6
CONTINUOUS
10
7.948954330708661
20
-2.3482108267716533
11
7.9489927952755908
21
-2.3482593307086614
0
LINE
8
BLACK
6
CONTINUOUS
10
7.9489927952755908
20
-2.3482593307086614
11
7.9609670866141728
21
-2.366850866141732
0
LINE
8
BLACK
6
CONTINUOUS
10
7.9609670866141728
20
-2.366850866141732
11
7.9609951968503934
21
-2.3669057086614171
0
LINE
8
BLACK
6
CONTINUOUS
10
7.9609951968503934
20
-2.3669057086614171
11
7.9610327952755906
21
-2.3669548818897637
0
LINE
8
BLACK
6
CONTINUOUS
10
7.9610327952755906
20
-2.3669548818897637
11
7.9726547244094483
21
-2.3857275590551179
0
LINE
8
BLACK
6
CONTINUOUS
10
7.9726547244094483
20
-2.3857275590551179
11
7.9726818897637797
21
-2.3857829527559056
0
LINE
8
BLACK
6
CONTINUOUS
10
7.9726818897637797
20
-2.3857829527559056
11
7.9727186220472444
21
-2.3858328346456692
0
LINE
8
BLACK
6
CONTINUOUS
10
7.9727186220472444
20
-2.3858328346456692
11
7.9840120472440947
21
-2.404824960629921
0
LINE
8
BLACK
6
CONTINUOUS
10
7.9840120472440947
20
-2.404824960629921
11
7.9840383070866139
21
-2.4048809842519683
0
LINE
8
BLACK
6
CONTINUOUS
10
7.9840383070866139
20
-2.4048809842519683
11
7.9840740551181097
21
-2.4049314173228344
0
LINE
8
BLACK
6
CONTINUOUS
10
7.9840740551181097
20
-2.4049314173228344
11
7.9950066535433066
21
-2.4240883070866142
0
LINE
8
BLACK
6
CONTINUOUS
10
7.9950066535433066
20
-2.4240883070866142
11
7.9950318503937003
21
-2.4241446850393702
0
LINE
8
BLACK
6
CONTINUOUS
10
7.9950318503937003
20
-2.4241446850393702
11
7.995066811023622
21
-2.424195905511811
0
LINE
8
BLACK
6
CONTINUOUS
10
7.995066811023622
20
-2.424195905511811
11
8.0056646850393705
21
-2.4435631889763778
0
LINE
8
BLACK
6
CONTINUOUS
10
8.0056646850393705
20
-2.4435631889763778
11
8.0056889370078732
21
-2.4436201574803147
0
LINE
8
BLACK
6
CONTINUOUS
10
8.0056889370078732
20
-2.4436201574803147
11
8.0057229527559048
21
-2.4436719685039368
0
LINE
8
BLACK
6
CONTINUOUS
10
8.0057229527559048
20
-2.4436719685039368
11
8.0159525196850385
21
-2.4631879133858265
0
LINE
8
BLACK
6
CONTINUOUS
10
8.0159525196850385
20
-2.4631879133858265
11
8.0159757086614167
21
-2.463245275590551
0
LINE
8
BLACK
6
CONTINUOUS
10
8.0159757086614167
20
-2.463245275590551
11
8.0160088582677158
21
-2.4632977559055118
0
LINE
8
BLACK
6
CONTINUOUS
10
8.0160088582677158
20
-2.4632977559055118
11
8.0258977952755899
21
-2.4830151181102362
0
LINE
8
BLACK
6
CONTINUOUS
10
8.0258977952755899
20
-2.4830151181102362
11
8.025920039370078
21
-2.4830730314960627
0
LINE
8
BLACK
6
CONTINUOUS
10
8.025920039370078
20
-2.4830730314960627
11
8.0259521653543313
21
-2.4831260236220474
0
LINE
8
BLACK
6
CONTINUOUS
10
8.0259521653543313
20
-2.4831260236220474
11
8.0354664173228336
21
-2.5029762598425198
0
LINE
8
BLACK
6
CONTINUOUS
10
8.0354664173228336
20
-2.5029762598425198
11
8.0354875196850397
21
-2.5030343307086613
0
LINE
8
BLACK
6
CONTINUOUS
10
8.0354875196850397
20
-2.5030343307086613
11
8.0355188582677162
21
-2.5030881496062993
0
LINE
8
BLACK
6
CONTINUOUS
10
8.0355188582677162
20
-2.5030881496062993
11
8.0446869291338583
21
-2.5231307086614172
0
LINE
8
BLACK
6
CONTINUOUS
10
8.0446869291338583
20
-2.5231307086614172
11
8.0447070866141726
21
-2.5231894488188975
0
LINE
8
BLACK
6
CONTINUOUS
10
8.0447070866141726
20
-2.5231894488188975
11
8.0447373228346457
21
-2.5232435826771651
0
LINE
8
BLACK
6
CONTINUOUS
10
8.0447373228346457
20
-2.5232435826771651
11
8.053525236220473
21
-2.5434036614173228
0
LINE
8
BLACK
6
CONTINUOUS
10
8.053525236220473
20
-2.5434036614173228
11
8.0535443307086609
21
-2.5434627165354331
0
LINE
8
BLACK
6
CONTINUOUS
10
8.0535443307086609
20
-2.5434627165354331
11
8.0535736614173228
21
-2.5435175196850395
0
LINE
8
BLACK
6
CONTINUOUS
10
8.0535736614173228
20
-2.5435175196850395
11
8.0620101181102353
21
-2.5638609448818896
0
LINE
8
BLACK
6
CONTINUOUS
10
8.0620101181102353
20
-2.5638609448818896
11
8.0620281889763774
21
-2.5639204330708663
0
LINE
8
BLACK
6
CONTINUOUS
10
8.0620281889763774
20
-2.5639204330708663
11
8.0620564960629917
21
-2.5639757086614172
0
LINE
8
BLACK
6
CONTINUOUS
10
8.0620564960629917
20
-2.5639757086614172
11
8.0701082283464558
21
-2.5844219291338582
0
LINE
8
BLACK
6
CONTINUOUS
10
8.0701082283464558
20
-2.5844219291338582
11
8.0701251968503929
21
-2.5844816535433068
0
LINE
8
BLACK
6
CONTINUOUS
10
8.0701251968503929
20
-2.5844816535433068
11
8.0701525590551171
21
-2.5845375196850395
0
LINE
8
BLACK
6
CONTINUOUS
10
8.0701525590551171
20
-2.5845375196850395
11
8.0778479133858259
21
-2.6051581102362205
0
LINE
8
BLACK
6
CONTINUOUS
10
8.0778479133858259
20
-2.6051581102362205
11
8.0778638188976384
21
-2.6052181496062992
0
LINE
8
BLACK
6
CONTINUOUS
10
8.0778638188976384
20
-2.6052181496062992
11
8.0778901968503938
21
-2.605274566929134
0
LINE
8
BLACK
6
CONTINUOUS
10
8.0778901968503938
20
-2.605274566929134
11
8.0851972047244089
21
-2.6259837795275591
0
LINE
8
BLACK
6
CONTINUOUS
10
8.0851972047244089
20
-2.6259837795275591
11
8.0852120472440951
21
-2.6260442519685037
0
LINE
8
BLACK
6
CONTINUOUS
10
8.0852120472440951
20
-2.6260442519685037
11
8.0852373622047242
21
-2.6261009842519685
0
LINE
8
BLACK
6
CONTINUOUS
10
8.0852373622047242
20
-2.6261009842519685
11
8.0921832677165355
21
-2.6469757480314962
0
LINE
8
BLACK
6
CONTINUOUS
10
8.0921832677165355
20
-2.6469757480314962
11
8.0921970078740149
21
-2.647036338582677
0
LINE
8
BLACK
6
CONTINUOUS
10
8.0921970078740149
20
-2.647036338582677
11
8.0922213385826769
21
-2.6470936614173226
0
LINE
8
BLACK
6
CONTINUOUS
10
8.0922213385826769
20
-2.6470936614173226
11
8.0987761023622049
21
-2.6680436220472439
0
LINE
8
BLACK
6
CONTINUOUS
10
8.0987761023622049
20
-2.6680436220472439
11
8.098788740157481
21
-2.6681045275590551
0
LINE
8
BLACK
6
CONTINUOUS
10
8.098788740157481
20
-2.6681045275590551
11
8.0988120472440936
21
-2.6681622440944883
0
LINE
8
BLACK
6
CONTINUOUS
10
8.0988120472440936
20
-2.6681622440944883
11
8.1050011811023612
21
-2.6892690157480312
0
LINE
8
BLACK
6
CONTINUOUS
10
8.1050011811023612
20
-2.6892690157480312
11
8.1050127165354322
21
-2.689330157480315
0
LINE
8
BLACK
6
CONTINUOUS
10
8.1050127165354322
20
-2.689330157480315
11
8.1050349999999991
21
-2.689388307086614
0
LINE
8
BLACK
6
CONTINUOUS
10
8.1050349999999991
20
-2.689388307086614
11
8.1108309055118113
21
-2.7105575984251966
0
LINE
8
BLACK
6
CONTINUOUS
10
8.1108309055118113
20
-2.7105575984251966
11
8.1108413385826772
21
-2.7106189370078742
0
LINE
8
BLACK
6
CONTINUOUS
10
8.1108413385826772
20
-2.7106189370078742
11
8.1108625590551178
21
-2.7106774409448819
0
LINE
8
BLACK
6
CONTINUOUS
10
8.1108625590551178
20
-2.7106774409448819
11
8.1162886614173235
21
-2.7319949212598424
0
LINE
8
BLACK
6
CONTINUOUS
10
8.1162886614173235
20
-2.7319949212598424
11
8.1162979921259844
21
-2.732056338582677
0
LINE
8
BLACK
6
CONTINUOUS
10
8.1162979921259844
20
-2.732056338582677
11
8.1163181889763774
21
-2.7321153543307086
0
LINE
8
BLACK
6
CONTINUOUS
10
8.1163181889763774
20
-2.7321153543307086
11
8.1213495669291333
21
-2.7534835039370078
0
LINE
8
BLACK
6
CONTINUOUS
10
8.1213495669291333
20
-2.7534835039370078
11
8.1213577952755909
21
-2.7535451574803149
0
LINE
8
BLACK
6
CONTINUOUS
10
8.1213577952755909
20
-2.7535451574803149
11
8.1213768897637788
21
-2.753604409448819
0
LINE
8
BLACK
6
CONTINUOUS
10
8.1213768897637788
20
-2.753604409448819
11
8.1260344488188974
21
-2.7751122440944882
0
LINE
8
BLACK
6
CONTINUOUS
10
8.1260344488188974
20
-2.7751122440944882
11
8.1260415748031498
21
-2.7751741732283466
0
LINE
8
BLACK
6
CONTINUOUS
10
8.1260415748031498
20
-2.7751741732283466
11
8.1260595669291344
21
-2.775233622047244
0
LINE
8
BLACK
6
CONTINUOUS
10
8.1260595669291344
20
-2.775233622047244
11
8.1303214566929132
21
-2.7967811811023622
0
LINE
8
BLACK
6
CONTINUOUS
10
8.1303214566929132
20
-2.7967811811023622
11
8.1303274409448818
21
-2.7968429527559056
0
LINE
8
BLACK
6
CONTINUOUS
10
8.1303274409448818
20
-2.7968429527559056
11
8.1303444094488189
21
-2.796902874015748
0
LINE
8
BLACK
6
CONTINUOUS
10
8.1303444094488189
20
-2.796902874015748
11
8.1342286614173229
21
-2.8185817716535433
0
LINE
8
BLACK
6
CONTINUOUS
10
8.1342286614173229
20
-2.8185817716535433
11
8.1342335433070865
21
-2.8186436614173229
0
LINE
8
BLACK
6
CONTINUOUS
10
8.1342335433070865
20
-2.8186436614173229
11
8.1342494094488185
21
-2.8187038188976379
0
LINE
8
BLACK
6
CONTINUOUS
10
8.1342494094488185
20
-2.8187038188976379
11
8.1377375196850394
21
-2.8404122440944883
0
LINE
8
BLACK
6
CONTINUOUS
10
8.1377375196850394
20
-2.8404122440944883
11
8.1377412992125979
21
-2.8404744094488188
0
LINE
8
BLACK
6
CONTINUOUS
10
8.1377412992125979
20
-2.8404744094488188
11
8.1377560236220479
21
-2.8405346062992125
0
LINE
8
BLACK
6
CONTINUOUS
10
8.1377560236220479
20
-2.8405346062992125
11
8.1408628346456684
21
-2.8623661811023622
0
LINE
8
BLACK
6
CONTINUOUS
10
8.1408628346456684
20
-2.8623661811023622
11
8.1408655118110236
21
-2.8624282677165356
0
LINE
8
BLACK
6
CONTINUOUS
10
8.1408655118110236
20
-2.8624282677165356
11
8.1408791338582667
21
-2.8624887401574801
0
LINE
8
BLACK
6
CONTINUOUS
10
8.1408791338582667
20
-2.8624887401574801
11
8.1435896456692909
21
-2.8843405905511812
0
LINE
8
BLACK
6
CONTINUOUS
10
8.1435896456692909
20
-2.8843405905511812
11
8.1435911811023622
21
-2.8844026771653541
0
LINE
8
BLACK
6
CONTINUOUS
10
8.1435911811023622
20
-2.8844026771653541
11
8.1436037401574808
21
-2.8844633464566929
0
LINE
8
BLACK
6
CONTINUOUS
10
8.1436037401574808
20
-2.8844633464566929
11
8.1459293700787399
21
-2.9064303149606299
0
LINE
8
BLACK
6
CONTINUOUS
10
8.1459293700787399
20
-2.9064303149606299
11
8.1459298031496061
21
-2.9064920472440945
0
LINE
8
BLACK
6
CONTINUOUS
10
8.1459298031496061
20
-2.9064920472440945
11
8.1459412992125984
21
-2.9065531496062991
0
LINE
8
BLACK
6
CONTINUOUS
10
8.1459412992125984
20
-2.9065531496062991
11
8.1478707480314956
21
-2.928531968503937
0
LINE
8
BLACK
6
CONTINUOUS
10
8.1478707480314956
20
-2.928531968503937
11
8.1478700787401568
21
-2.9285940157480312
0
LINE
8
BLACK
6
CONTINUOUS
10
8.1478700787401568
20
-2.9285940157480312
11
8.1478803937007864
21
-2.9286548818897638
0
LINE
8
BLACK
6
CONTINUOUS
10
8.1478803937007864
20
-2.9286548818897638
11
8.1494216141732281
21
-2.9507408661417323
0
LINE
8
BLACK
6
CONTINUOUS
10
8.1494216141732281
20
-2.9507408661417323
11
8.1494198425196842
21
-2.9508025984251969
0
LINE
8
BLACK
6
CONTINUOUS
10
8.1494198425196842
20
-2.9508025984251969
11
8.1494290944881893
21
-2.950863779527559
0
LINE
8
BLACK
6
CONTINUOUS
10
8.1494290944881893
20
-2.950863779527559
11
8.1505743700787399
21
-2.9729541338582677
0
LINE
8
BLACK
6
CONTINUOUS
10
8.1505743700787399
20
-2.9729541338582677
11
8.1505714960629927
21
-2.9730157086614173
0
LINE
8
BLACK
6
CONTINUOUS
10
8.1505714960629927
20
-2.9730157086614173
11
8.1505796456692909
21
-2.9730769291338581
0
LINE
8
BLACK
6
CONTINUOUS
10
8.1505796456692909
20
-2.9730769291338581
11
8.1513333858267707
21
-2.9952667716535433
0
LINE
8
BLACK
6
CONTINUOUS
10
8.1513333858267707
20
-2.9952667716535433
11
8.1513285826771646
21
-2.9953408267716535
0
LINE
8
BLACK
6
CONTINUOUS
10
8.1513285826771646
20
-2.9953408267716535
11
8.1513368110236222
21
-2.9954145275590549
0
LINE
8
BLACK
6
CONTINUOUS
10
8.1513368110236222
20
-2.9954145275590549
11
8.1517277952755904
21
-3.0266764960629922
0
LINE
8
BLACK
6
CONTINUOUS
10
8.1517277952755904
20
-3.0266764960629922
11
8.1517188188976384
21
-3.0267806692913384
0
LINE
8
BLACK
6
CONTINUOUS
10
8.1517188188976384
20
-3.0267806692913384
11
8.1517272440944879
21
-3.026884842519685
0
LINE
8
BLACK
6
CONTINUOUS
10
8.1517272440944879
20
-3.026884842519685
11
8.1509443307086613
21
-3.0710384251968503
0
LINE
8
BLACK
6
CONTINUOUS
10
8.1509443307086613
20
-3.0710384251968503
11
8.1509301181102352
21
-3.0711602755905512
0
LINE
8
BLACK
6
CONTINUOUS
10
8.1509301181102352
20
-3.0711602755905512
11
8.1509356692913393
21
-3.0712832283464566
0
LINE
8
BLACK
6
CONTINUOUS
10
8.1509356692913393
20
-3.0712832283464566
11
8.1485908267716525
21
-3.1152477165354329
0
LINE
8
BLACK
6
CONTINUOUS
10
8.1485908267716525
20
-3.1152477165354329
11
8.1485722047244096
21
-3.1153696456692912
0
LINE
8
BLACK
6
CONTINUOUS
10
8.1485722047244096
20
-3.1153696456692912
11
8.1485733464566934
21
-3.1154926771653542
0
LINE
8
BLACK
6
CONTINUOUS
10
8.1485733464566934
20
-3.1154926771653542
11
8.1446724015748035
21
-3.159241535433071
0
LINE
8
BLACK
6
CONTINUOUS
10
8.1446724015748035
20
-3.159241535433071
11
8.1446494094488191
21
-3.1593627559055117
0
LINE
8
BLACK
6
CONTINUOUS
10
8.1446494094488191
20
-3.1593627559055117
11
8.1446461811023614
21
-3.1594861811023622
0
LINE
8
BLACK
6
CONTINUOUS
10
8.1446461811023614
20
-3.1594861811023622
11
8.1391950393700778
21
-3.2029908661417323
0
LINE
8
BLACK
6
CONTINUOUS
10
8.1391950393700778
20
-3.2029908661417323
11
8.1391677165354324
21
-3.2031113385826773
0
LINE
8
BLACK
6
CONTINUOUS
10
8.1391677165354324
20
-3.2031113385826773
11
8.1391600393700791
21
-3.2032348425196848
0
LINE
8
BLACK
6
CONTINUOUS
10
8.1391600393700791
20
-3.2032348425196848
11
8.132164921259843
21
-3.2464647637795276
0
LINE
8
BLACK
6
CONTINUOUS
10
8.132164921259843
20
-3.2464647637795276
11
8.1321332677165348
21
-3.2465842519685038
0
LINE
8
BLACK
6
CONTINUOUS
10
8.1321332677165348
20
-3.2465842519685038
11
8.1321211811023613
21
-3.246707559055118
0
LINE
8
BLACK
6
CONTINUOUS
10
8.1321211811023613
20
-3.246707559055118
11
8.123588897637795
21
-3.2896302755905511
0
LINE
8
BLACK
6
CONTINUOUS
10
8.123588897637795
20
-3.2896302755905511
11
8.1235529527559045
21
-3.2897487401574801
0
LINE
8
BLACK
6
CONTINUOUS
10
8.1235529527559045
20
-3.2897487401574801
11
8.1235364566929125
21
-3.2898714173228347
0
LINE
8
BLACK
6
CONTINUOUS
10
8.1235364566929125
20
-3.2898714173228347
11
8.1134745275590543
21
-3.3324522834645669
0
LINE
8
BLACK
6
CONTINUOUS
10
8.1134745275590543
20
-3.3324522834645669
11
8.113434330708662
21
-3.3325694488188975
0
LINE
8
BLACK
6
CONTINUOUS
10
8.113434330708662
20
-3.3325694488188975
11
8.1134134645669285
21
-3.3326914173228346
0
LINE
8
BLACK
6
CONTINUOUS
10
8.1134134645669285
20
-3.3326914173228346
11
8.1018305118110234
21
-3.3748937401574803
0
LINE
8
BLACK
6
CONTINUOUS
10
8.1018305118110234
20
-3.3748937401574803
11
8.1017862204724409
21
-3.3750091732283463
0
LINE
8
BLACK
6
CONTINUOUS
10
8.1017862204724409
20
-3.3750091732283463
11
8.1017609842519676
21
-3.3751304330708662
0
LINE
8
BLACK
6
CONTINUOUS
10
8.1017609842519676
20
-3.3751304330708662
11
8.0886669291338578
21
-3.4169153149606299
0
LINE
8
BLACK
6
CONTINUOUS
10
8.0886669291338578
20
-3.4169153149606299
11
8.088618503937008
21
-3.417029212598425
0
LINE
8
BLACK
6
CONTINUOUS
10
8.088618503937008
20
-3.417029212598425
11
8.0885889763779524
21
-3.4171492519685041
0
LINE
8
BLACK
6
CONTINUOUS
10
8.0885889763779524
20
-3.4171492519685041
11
8.073995157480315
21
-3.4584759448818896
0
LINE
8
BLACK
6
CONTINUOUS
10
8.073995157480315
20
-3.4584759448818896
11
8.07394279527559
21
-3.4585877559055116
0
LINE
8
BLACK
6
CONTINUOUS
10
8.07394279527559
20
-3.4585877559055116
11
8.0739090157480309
21
-3.4587066929133856
0
LINE
8
BLACK
6
CONTINUOUS
10
8.0739090157480309
20
-3.4587066929133856
11
8.0578287007874021
21
-3.4995323622047243
0
LINE
8
BLACK
6
CONTINUOUS
10
8.0578287007874021
20
-3.4995323622047243
11
8.0577724015748036
21
-3.4996422440944883
0
LINE
8
BLACK
6
CONTINUOUS
10
8.0577724015748036
20
-3.4996422440944883
11
8.0577344488188967
21
-3.4997596456692914
0
LINE
8
BLACK
6
CONTINUOUS
10
8.0577344488188967
20
-3.4997596456692914
11
8.0401827165354334
21
-3.5400396456692911
0
LINE
8
BLACK
6
CONTINUOUS
10
8.0401827165354334
20
-3.5400396456692911
11
8.0401437795275594
21
-3.5401093700787403
0
LINE
8
BLACK
6
CONTINUOUS
10
8.0401437795275594
20
-3.5401093700787403
11
8.0401175590551173
21
-3.5401845275590551
0
LINE
8
BLACK
6
CONTINUOUS
10
8.0401175590551173
20
-3.5401845275590551
11
8.0353398818897634
21
-3.5504931102362205
0
LINE
8
BLACK
6
CONTINUOUS
10
8.0353398818897634
20
-3.5504931102362205
11
8.0353398818897634
21
-3.5600925196850395
0
LINE
8
BLACK
6
CONTINUOUS
10
8.0353398818897634
20
-3.5600925196850395
11
8.0432875984251968
21
-3.5668444488188977
0
LINE
8
BLACK
6
CONTINUOUS
10
8.0432875984251968
20
-3.5668444488188977
11
8.0434948031496063
21
-3.5670588188976375
0
LINE
8
BLACK
6
CONTINUOUS
10
8.0434948031496063
20
-3.5670588188976375
11
8.0437241338582677
21
-3.56724905511811
0
LINE
8
BLACK
6
CONTINUOUS
10
8.0437241338582677
20
-3.56724905511811
11
8.0485237795275584
21
-3.5720993307086615
0
LINE
8
BLACK
6
CONTINUOUS
10
8.0485237795275584
20
-3.5720993307086615
11
8.0486493700787403
21
-3.5722540157480314
0
LINE
8
BLACK
6
CONTINUOUS
10
8.0486493700787403
20
-3.5722540157480314
11
8.0487951968503939
21
-3.5723899212598424
0
LINE
8
BLACK
6
CONTINUOUS
10
8.0487951968503939
20
-3.5723899212598424
11
8.0533076771653533
21
-3.5775097637795277
0
LINE
8
BLACK
6
CONTINUOUS
10
8.0533076771653533
20
-3.5775097637795277
11
8.0534242913385832
21
-3.5776716535433071
0
LINE
8
BLACK
6
CONTINUOUS
10
8.0534242913385832
20
-3.5776716535433071
11
8.0535622440944881
21
-3.5778159842519686
0
LINE
8
BLACK
6
CONTINUOUS
10
8.0535622440944881
20
-3.5778159842519686
11
8.0577685433070858
21
-3.583184251968504
0
LINE
8
BLACK
6
CONTINUOUS
10
8.0577685433070858
20
-3.583184251968504
11
8.0578759448818893
21
-3.5833531102362204
0
LINE
8
BLACK
6
CONTINUOUS
10
8.0578759448818893
20
-3.5833531102362204
11
8.0580055905511809
21
-3.5835055511811023
0
LINE
8
BLACK
6
CONTINUOUS
10
8.0580055905511809
20
-3.5835055511811023
11
8.0618992519685033
21
-3.5891162992125984
0
LINE
8
BLACK
6
CONTINUOUS
10
8.0618992519685033
20
-3.5891162992125984
11
8.061996850393701
21
-3.5892914566929135
0
LINE
8
BLACK
6
CONTINUOUS
10
8.061996850393701
20
-3.5892914566929135
11
8.0621177559055113
21
-3.5894515354330707
0
LINE
8
BLACK
6
CONTINUOUS
10
8.0621177559055113
20
-3.5894515354330707
11
8.0656664960629918
21
-3.5952582283464567
0
LINE
8
BLACK
6
CONTINUOUS
10
8.0656664960629918
20
-3.5952582283464567
11
8.065754094488188
21
-3.5954394488188974
0
LINE
8
BLACK
6
CONTINUOUS
10
8.065754094488188
20
-3.5954394488188974
11
8.0658657086614163
21
-3.5956066535433071
0
LINE
8
BLACK
6
CONTINUOUS
10
8.0658657086614163
20
-3.5956066535433071
11
8.0690793700787395
21
-3.6016270866141733
0
LINE
8
BLACK
6
CONTINUOUS
10
8.0690793700787395
20
-3.6016270866141733
11
8.0691563385826761
21
-3.6018132283464568
0
LINE
8
BLACK
6
CONTINUOUS
10
8.0691563385826761
20
-3.6018132283464568
11
8.0692584251968498
21
-3.601987401574803
0
LINE
8
BLACK
6
CONTINUOUS
10
8.0692584251968498
20
-3.601987401574803
11
8.0720990157480319
21
-3.6081501968503935
0
LINE
8
BLACK
6
CONTINUOUS
10
8.0720990157480319
20
-3.6081501968503935
11
8.0721652362204726
21
-3.608341220472441
0
LINE
8
BLACK
6
CONTINUOUS
10
8.0721652362204726
20
-3.608341220472441
11
8.0722570866141723
21
-3.6085213385826771
0
LINE
8
BLACK
6
CONTINUOUS
10
8.0722570866141723
20
-3.6085213385826771
11
8.0747434645669287
21
-3.6148686220472439
0
LINE
8
BLACK
6
CONTINUOUS
10
8.0747434645669287
20
-3.6148686220472439
11
8.0747984645669284
21
-3.6150635039370078
0
LINE
8
BLACK
6
CONTINUOUS
10
8.0747984645669284
20
-3.6150635039370078
11
8.0748797637795278
21
-3.61524905511811
0
LINE
8
BLACK
6
CONTINUOUS
10
8.0748797637795278
20
-3.61524905511811
11
8.0769758661417317
21
-3.6216885826771654
0
LINE
8
BLACK
6
CONTINUOUS
10
8.0769758661417317
20
-3.6216885826771654
11
8.0770194094488179
21
-3.6218865748031495
0
LINE
8
BLACK
6
CONTINUOUS
10
8.0770194094488179
20
-3.6218865748031495
11
8.0770897637795276
21
-3.6220768503937006
0
LINE
8
BLACK
6
CONTINUOUS
10
8.0770897637795276
20
-3.6220768503937006
11
8.0788156299212588
21
-3.6286720078740156
0
LINE
8
BLACK
6
CONTINUOUS
10
8.0788156299212588
20
-3.6286720078740156
11
8.0788474803149608
21
-3.6288723228346456
0
LINE
8
BLACK
6
CONTINUOUS
10
8.0788474803149608
20
-3.6288723228346456
11
8.0789065354330702
21
-3.6290663779527557
0
LINE
8
BLACK
6
CONTINUOUS
10
8.0789065354330702
20
-3.6290663779527557
11
8.0802339763779525
21
-3.6357104724409446
0
LINE
8
BLACK
6
CONTINUOUS
10
8.0802339763779525
20
-3.6357104724409446
11
8.0802539763779517
21
-3.635912086614173
0
LINE
8
BLACK
6
CONTINUOUS
10
8.0802539763779517
20
-3.635912086614173
11
8.0803015354330707
21
-3.6361091338582678
0
LINE
8
BLACK
6
CONTINUOUS
10
8.0803015354330707
20
-3.6361091338582678
11
8.0812454724409442
21
-3.6428810629921258
0
LINE
8
BLACK
6
CONTINUOUS
10
8.0812454724409442
20
-3.6428810629921258
11
8.0812571653543301
21
-3.6431709842519684
0
LINE
8
BLACK
6
CONTINUOUS
10
8.0812571653543301
20
-3.6431709842519684
11
8.0813012598425189
21
-3.6434577165354329
0
LINE
8
BLACK
6
CONTINUOUS
10
8.0813012598425189
20
-3.6434577165354329
11
8.0819969685039368
21
-3.6562363385826773
0
LINE
8
BLACK
6
CONTINUOUS
10
8.0819969685039368
20
-3.6562363385826773
11
8.0819887401574793
21
-3.6564238976377954
0
LINE
8
BLACK
6
CONTINUOUS
10
8.0819887401574793
20
-3.6564238976377954
11
8.0820071653543302
21
-3.6566108661417323
0
LINE
8
BLACK
6
CONTINUOUS
10
8.0820071653543302
20
-3.6566108661417323
11
8.0820071653543302
21
-3.9336156692913384
0
LINE
8
BLACK
6
CONTINUOUS
10
8.0820071653543302
20
-3.9336156692913384
11
8.084811299212598
21
-3.9366257086614174
0
LINE
8
BLACK
6
CONTINUOUS
10
8.084811299212598
20
-3.9366257086614174
11
8.0849322834645676
21
-3.9367842519685037
0
LINE
8
BLACK
6
CONTINUOUS
10
8.0849322834645676
20
-3.9367842519685037
11
8.085073858267716
21
-3.9369244094488187
0
LINE
8
BLACK
6
CONTINUOUS
10
8.085073858267716
20
-3.9369244094488187
11
8.0894328346456685
21
-3.9421814960629922
0
LINE
8
BLACK
6
CONTINUOUS
10
8.0894328346456685
20
-3.9421814960629922
11
8.089544566929133
21
-3.942346929133858
0
LINE
8
BLACK
6
CONTINUOUS
10
8.089544566929133
20
-3.942346929133858
11
8.0896779133858274
21
-3.9424951181102363
0
LINE
8
BLACK
6
CONTINUOUS
10
8.0896779133858274
20
-3.9424951181102363
11
8.0937231102362208
21
-3.947991181102362
0
LINE
8
BLACK
6
CONTINUOUS
10
8.0937231102362208
20
-3.947991181102362
11
8.0938252362204715
21
-3.948162992125984
0
LINE
8
BLACK
6
CONTINUOUS
10
8.0938252362204715
20
-3.948162992125984
11
8.0939502755905508
21
-3.9483192913385827
0
LINE
8
BLACK
6
CONTINUOUS
10
8.0939502755905508
20
-3.9483192913385827
11
8.0976771653543302
21
-3.9540506299212597
0
LINE
8
BLACK
6
CONTINUOUS
10
8.0976771653543302
20
-3.9540506299212597
11
8.0977694094488193
21
-3.9542285826771653
0
LINE
8
BLACK
6
CONTINUOUS
10
8.0977694094488193
20
-3.9542285826771653
11
8.097885275590551
21
-3.9543919685039368
0
LINE
8
BLACK
6
CONTINUOUS
10
8.097885275590551
20
-3.9543919685039368
11
8.1012621259842525
21
-3.960309960629921
0
LINE
8
BLACK
6
CONTINUOUS
10
8.1012621259842525
20
-3.960309960629921
11
8.1013440157480314
21
-3.9604931496062989
0
LINE
8
BLACK
6
CONTINUOUS
10
8.1013440157480314
20
-3.9604931496062989
11
8.1014505905511811
21
-3.9606637007874013
0
LINE
8
BLACK
6
CONTINUOUS
10
8.1014505905511811
20
-3.9606637007874013
11
8.1044875590551175
21
-3.9667881889763779
0
LINE
8
BLACK
6
CONTINUOUS
10
8.1044875590551175
20
-3.9667881889763779
11
8.1045588582677155
21
-3.9669763779527556
0
LINE
8
BLACK
6
CONTINUOUS
10
8.1045588582677155
20
-3.9669763779527556
11
8.1046553937007868
21
-3.967152992125984
0
LINE
8
BLACK
6
CONTINUOUS
10
8.1046553937007868
20
-3.967152992125984
11
8.1073164960629924
21
-3.9734112992125983
0
LINE
8
BLACK
6
CONTINUOUS
10
8.1073164960629924
20
-3.9734112992125983
11
8.1073768503937007
21
-3.9736037795275592
0
LINE
8
BLACK
6
CONTINUOUS
10
8.1073768503937007
20
-3.9736037795275592
11
8.1074630708661424
21
-3.9737860629921258
0
LINE
8
BLACK
6
CONTINUOUS
10
8.1074630708661424
20
-3.9737860629921258
11
8.1097659055118108
21
-3.9802216535433068
0
LINE
8
BLACK
6
CONTINUOUS
10
8.1097659055118108
20
-3.9802216535433068
11
8.1098149212598418
21
-3.9804174803149603
0
LINE
8
BLACK
6
CONTINUOUS
10
8.1098149212598418
20
-3.9804174803149603
11
8.1098904724409451
21
-3.9806047244094489
0
LINE
8
BLACK
6
CONTINUOUS
10
8.1098904724409451
20
-3.9806047244094489
11
8.1118019291338577
21
-3.9871251968503936
0
LINE
8
BLACK
6
CONTINUOUS
10
8.1118019291338577
20
-3.9871251968503936
11
8.1118394488188983
21
-3.9873236614173226
0
LINE
8
BLACK
6
CONTINUOUS
10
8.1118394488188983
20
-3.9873236614173226
11
8.1119039763779526
21
-3.9875151968503935
0
LINE
8
BLACK
6
CONTINUOUS
10
8.1119039763779526
20
-3.9875151968503935
11
8.1134418503937002
21
-3.9941842125984253
0
LINE
8
BLACK
6
CONTINUOUS
10
8.1134418503937002
20
-3.9941842125984253
11
8.1134677165354336
21
-3.9943845275590548
0
LINE
8
BLACK
6
CONTINUOUS
10
8.1134677165354336
20
-3.9943845275590548
11
8.1135208267716532
21
-3.9945791732283462
0
LINE
8
BLACK
6
CONTINUOUS
10
8.1135208267716532
20
-3.9945791732283462
11
8.1146603149606289
21
-4.0012910629921263
0
LINE
8
BLACK
6
CONTINUOUS
10
8.1146603149606289
20
-4.0012910629921263
11
8.11467437007874
21
-4.0014919685039372
0
LINE
8
BLACK
6
CONTINUOUS
10
8.11467437007874
20
-4.0014919685039372
11
8.1147160629921267
21
-4.0016894094488187
0
LINE
8
BLACK
6
CONTINUOUS
10
8.1147160629921267
20
-4.0016894094488187
11
8.1154692125984251
21
-4.0085222834645666
0
LINE
8
BLACK
6
CONTINUOUS
10
8.1154692125984251
20
-4.0085222834645666
11
8.115471968503936
21
-4.0087624409448814
0
LINE
8
BLACK
6
CONTINUOUS
10
8.115471968503936
20
-4.0087624409448814
11
8.1155051181102369
21
-4.0090003149606295
0
LINE
8
BLACK
6
CONTINUOUS
10
8.1155051181102369
20
-4.0090003149606295
11
8.1158890551181102
21
-4.018549251968504
0
LINE
8
BLACK
6
CONTINUOUS
10
8.1158890551181102
20
-4.018549251968504
11
8.1158809842519677
21
-4.0186879133858264
0
LINE
8
BLACK
6
CONTINUOUS
10
8.1158809842519677
20
-4.0186879133858264
11
8.1158946062992126
21
-4.018826062992126
0
LINE
8
BLACK
6
CONTINUOUS
10
8.1158946062992126
20
-4.018826062992126
11
8.1158946062992126
21
-4.2555774803149609
0
LINE
8
BLACK
6
CONTINUOUS
10
8.1158946062992126
20
-4.2555774803149609
11
8.1186935826771656
21
-4.2584138188976377
0
LINE
8
BLACK
6
CONTINUOUS
10
8.1186935826771656
20
-4.2584138188976377
11
8.1188191338582669
21
-4.2585688582677168
0
LINE
8
BLACK
6
CONTINUOUS
10
8.1188191338582669
20
-4.2585688582677168
11
8.1189648425196843
21
-4.2587050787401575
0
LINE
8
BLACK
6
CONTINUOUS
10
8.1189648425196843
20
-4.2587050787401575
11
8.1234629133858274
21
-4.263823346456693
0
LINE
8
BLACK
6
CONTINUOUS
10
8.1234629133858274
20
-4.263823346456693
11
8.1235794488188979
21
-4.2639855905511812
0
LINE
8
BLACK
6
CONTINUOUS
10
8.1235794488188979
20
-4.2639855905511812
11
8.1237171259842516
21
-4.2641300787401573
0
LINE
8
BLACK
6
CONTINUOUS
10
8.1237171259842516
20
-4.2641300787401573
11
8.1279125196850384
21
-4.2695005511811024
0
LINE
8
BLACK
6
CONTINUOUS
10
8.1279125196850384
20
-4.2695005511811024
11
8.1280196062992118
21
-4.2696694881889758
0
LINE
8
BLACK
6
CONTINUOUS
10
8.1280196062992118
20
-4.2696694881889758
11
8.1281490551181097
21
-4.2698221259842519
0
LINE
8
BLACK
6
CONTINUOUS
10
8.1281490551181097
20
-4.2698221259842519
11
8.1320325196850387
21
-4.2754355511811024
0
LINE
8
BLACK
6
CONTINUOUS
10
8.1320325196850387
20
-4.2754355511811024
11
8.1321298425196851
21
-4.2756107480314958
0
LINE
8
BLACK
6
CONTINUOUS
10
8.1321298425196851
20
-4.2756107480314958
11
8.1322503543307079
21
-4.2757708267716534
0
LINE
8
BLACK
6
CONTINUOUS
10
8.1322503543307079
20
-4.2757708267716534
11
8.1357927952755897
21
-4.2815855511811023
0
LINE
8
BLACK
6
CONTINUOUS
10
8.1357927952755897
20
-4.2815855511811023
11
8.1358800000000002
21
-4.2817665748031493
0
LINE
8
BLACK
6
CONTINUOUS
10
8.1358800000000002
20
-4.2817665748031493
11
8.1359912598425197
21
-4.2819337401574806
0
LINE
8
BLACK
6
CONTINUOUS
10
8.1359912598425197
20
-4.2819337401574806
11
8.1391994488188981
21
-4.2879630708661418
0
LINE
8
BLACK
6
CONTINUOUS
10
8.1391994488188981
20
-4.2879630708661418
11
8.1392760236220472
21
-4.2881490157480311
0
LINE
8
BLACK
6
CONTINUOUS
10
8.1392760236220472
20
-4.2881490157480311
11
8.139377598425197
21
-4.2883227559055115
0
LINE
8
BLACK
6
CONTINUOUS
10
8.139377598425197
20
-4.2883227559055115
11
8.1422164566929141
21
-4.2945008661417319
0
LINE
8
BLACK
6
CONTINUOUS
10
8.1422164566929141
20
-4.2945008661417319
11
8.1422822047244097
21
-4.2946912598425193
0
LINE
8
BLACK
6
CONTINUOUS
10
8.1422822047244097
20
-4.2946912598425193
11
8.1423736614173219
21
-4.2948710629921258
0
LINE
8
BLACK
6
CONTINUOUS
10
8.1423736614173219
20
-4.2948710629921258
11
8.1448590944881882
21
-4.3012348031496064
0
LINE
8
BLACK
6
CONTINUOUS
10
8.1448590944881882
20
-4.3012348031496064
11
8.1449137401574809
21
-4.3014292125984248
0
LINE
8
BLACK
6
CONTINUOUS
10
8.1449137401574809
20
-4.3014292125984248
11
8.1449945275590547
21
-4.3016139763779524
0
LINE
8
BLACK
6
CONTINUOUS
10
8.1449945275590547
20
-4.3016139763779524
11
8.1470925196850388
21
-4.3080767322834648
0
LINE
8
BLACK
6
CONTINUOUS
10
8.1470925196850388
20
-4.3080767322834648
11
8.1471357480314968
21
-4.3082740157480313
0
LINE
8
BLACK
6
CONTINUOUS
10
8.1471357480314968
20
-4.3082740157480313
11
8.1472056692913384
21
-4.3084634645669286
0
LINE
8
BLACK
6
CONTINUOUS
10
8.1472056692913384
20
-4.3084634645669286
11
8.1489340944881885
21
-4.3150831889763781
0
LINE
8
BLACK
6
CONTINUOUS
10
8.1489340944881885
20
-4.3150831889763781
11
8.1489656692913393
21
-4.3152824409448822
0
LINE
8
BLACK
6
CONTINUOUS
10
8.1489656692913393
20
-4.3152824409448822
11
8.1490244094488187
21
-4.3154756299212593
0
LINE
8
BLACK
6
CONTINUOUS
10
8.1490244094488187
20
-4.3154756299212593
11
8.1503562992125982
21
-4.3221507874015748
0
LINE
8
BLACK
6
CONTINUOUS
10
8.1503562992125982
20
-4.3221507874015748
11
8.1503761417322824
21
-4.3223512992125981
0
LINE
8
BLACK
6
CONTINUOUS
10
8.1503761417322824
20
-4.3223512992125981
11
8.1504234645669289
21
-4.3225473228346454
0
LINE
8
BLACK
6
CONTINUOUS
10
8.1504234645669289
20
-4.3225473228346454
11
8.1513723622047234
21
-4.3293516535433074
0
LINE
8
BLACK
6
CONTINUOUS
10
8.1513723622047234
20
-4.3293516535433074
11
8.1513840551181094
21
-4.3296414566929133
0
LINE
8
BLACK
6
CONTINUOUS
10
8.1513840551181094
20
-4.3296414566929133
11
8.1514281496062999
21
-4.3299279921259846
0
LINE
8
BLACK
6
CONTINUOUS
10
8.1514281496062999
20
-4.3299279921259846
11
8.1521351574803145
21
-4.342888503937008
0
LINE
8
BLACK
6
CONTINUOUS
10
8.1521351574803145
20
-4.342888503937008
11
8.1521269291338587
21
-4.3430764566929136
0
LINE
8
BLACK
6
CONTINUOUS
10
8.1521269291338587
20
-4.3430764566929136
11
8.1521453937007866
21
-4.343263818897638
0
LINE
8
BLACK
6
CONTINUOUS
10
8.1521453937007866
20
-4.343263818897638
11
8.1521453937007866
21
-5.4119925984251971
0
LINE
8
BLACK
6
CONTINUOUS
10
8.1521453937007866
20
-5.4119925984251971
11
8.1521287401574796
21
-5.412161456692913
0
LINE
8
BLACK
6
CONTINUOUS
10
8.1521287401574796
20
-5.412161456692913
11
8.1521370866141734
21
-5.4123311417322837
0
LINE
8
BLACK
6
CONTINUOUS
10
8.1521370866141734
20
-5.4123311417322837
11
8.1520635433070865
21
-5.4138259448818893
0
LINE
8
BLACK
6
CONTINUOUS
10
8.1520635433070865
20
-5.4138259448818893
11
8.1520625590551177
21
-5.4138324409448817
0
LINE
8
BLACK
6
CONTINUOUS
10
8.1520625590551177
20
-5.4138324409448817
11
8.1520628740157477
21
-5.4138387401574803
0
LINE
8
BLACK
6
CONTINUOUS
10
8.1520628740157477
20
-5.4138387401574803
11
8.1520180708661414
21
-5.4147157874015743
0
LINE
8
BLACK
6
CONTINUOUS
10
8.1520180708661414
20
-5.4147157874015743
11
8.15206059055118
21
-5.4153531102362207
0
LINE
8
BLACK
6
CONTINUOUS
10
8.15206059055118
20
-5.4153531102362207
11
8.1520606299212588
21
-5.4153533070866144
0
LINE
8
BLACK
6
CONTINUOUS
10
8.1520606299212588
20
-5.4153533070866144
11
8.1521301181102359
21
-5.4163945275590546
0
LINE
8
BLACK
6
CONTINUOUS
10
8.1521301181102359
20
-5.4163945275590546
11
8.1521201181102363
21
-5.4167105118110239
0
LINE
8
BLACK
6
CONTINUOUS
10
8.1521201181102363
20
-5.4167105118110239
11
8.152143228346457
21
-5.4170255511811023
0
LINE
8
BLACK
6
CONTINUOUS
10
8.152143228346457
20
-5.4170255511811023
11
8.1519471653543309
21
-5.4248664173228347
0
LINE
8
BLACK
6
CONTINUOUS
10
8.1519471653543309
20
-5.4248664173228347
11
8.1519256299212604
21
-5.4250400393700788
0
LINE
8
BLACK
6
CONTINUOUS
10
8.1519256299212604
20
-5.4250400393700788
11
8.1519296062992126
21
-5.4252150393700784
0
LINE
8
BLACK
6
CONTINUOUS
10
8.1519296062992126
20
-5.4252150393700784
11
8.1513444881889754
21
-5.4329325590551178
0
LINE
8
BLACK
6
CONTINUOUS
10
8.1513444881889754
20
-5.4329325590551178
11
8.1513138188976377
21
-5.4331070472440945
0
LINE
8
BLACK
6
CONTINUOUS
10
8.1513138188976377
20
-5.4331070472440945
11
8.1513087401574804
21
-5.4332841732283459
0
LINE
8
BLACK
6
CONTINUOUS
10
8.1513087401574804
20
-5.4332841732283459
11
8.150341417322835
21
-5.4408614566929137
0
LINE
8
BLACK
6
CONTINUOUS
10
8.150341417322835
20
-5.4408614566929137
11
8.1503014960629923
21
-5.4410357086614169
0
LINE
8
BLACK
6
CONTINUOUS
10
8.1503014960629923
20
-5.4410357086614169
11
8.1502871259842511
21
-5.441213818897638
0
LINE
8
BLACK
6
CONTINUOUS
10
8.1502871259842511
20
-5.441213818897638
11
8.1489415748031497
21
-5.4486623622047246
0
LINE
8
BLACK
6
CONTINUOUS
10
8.1489415748031497
20
-5.4486623622047246
11
8.1488677952755904
21
-5.4489219291338582
0
LINE
8
BLACK
6
CONTINUOUS
10
8.1488677952755904
20
-5.4489219291338582
11
8.1488252362204729
21
-5.4491879133858268
0
LINE
8
BLACK
6
CONTINUOUS
10
8.1488252362204729
20
-5.4491879133858268
11
8.1450113779527555
21
-5.4637073228346456
0
LINE
8
BLACK
6
CONTINUOUS
10
8.1450113779527555
20
-5.4637073228346456
11
8.1448861417322824
21
-5.4640449999999996
0
LINE
8
BLACK
6
CONTINUOUS
10
8.1448861417322824
20
-5.4640449999999996
11
8.1447924803149601
21
-5.4643927559055117
0
LINE
8
BLACK
6
CONTINUOUS
10
8.1447924803149601
20
-5.4643927559055117
11
8.1394885039370077
21
-5.4784263385826772
0
LINE
8
BLACK
6
CONTINUOUS
10
8.1394885039370077
20
-5.4784263385826772
11
8.1393302755905506
21
-5.4787460629921263
0
LINE
8
BLACK
6
CONTINUOUS
10
8.1393302755905506
20
-5.4787460629921263
11
8.1392021259842515
21
-5.4790796850393697
0
LINE
8
BLACK
6
CONTINUOUS
10
8.1392021259842515
20
-5.4790796850393697
11
8.132399921259843
21
-5.4926403149606298
0
LINE
8
BLACK
6
CONTINUOUS
10
8.132399921259843
20
-5.4926403149606298
11
8.1322129527559053
21
-5.4929364173228343
0
LINE
8
BLACK
6
CONTINUOUS
10
8.1322129527559053
20
-5.4929364173228343
11
8.1320549999999994
21
-5.4932487401574805
0
LINE
8
BLACK
6
CONTINUOUS
10
8.1320549999999994
20
-5.4932487401574805
11
8.1237297637795276
21
-5.5063381889763781
0
LINE
8
BLACK
6
CONTINUOUS
10
8.1237297637795276
20
-5.5063381889763781
11
8.1235201968503929
21
-5.5066055511811021
0
LINE
8
BLACK
6
CONTINUOUS
10
8.1235201968503929
20
-5.5066055511811021
11
8.1233377952755905
21
-5.5068922047244095
0
LINE
8
BLACK
6
CONTINUOUS
10
8.1233377952755905
20
-5.5068922047244095
11
8.1134513385826779
21
-5.5194992519685036
0
LINE
8
BLACK
6
CONTINUOUS
10
8.1134513385826779
20
-5.5194992519685036
11
8.1132252362204724
21
-5.5197355511811024
0
LINE
8
BLACK
6
CONTINUOUS
10
8.1132252362204724
20
-5.5197355511811024
11
8.1130245669291341
21
-5.5199933070866143
0
LINE
8
BLACK
6
CONTINUOUS
10
8.1130245669291341
20
-5.5199933070866143
11
8.1015291732283465
21
-5.5320921653543307
0
LINE
8
BLACK
6
CONTINUOUS
10
8.1015291732283465
20
-5.5320921653543307
11
8.1012927952755902
21
-5.5322964566929134
0
LINE
8
BLACK
6
CONTINUOUS
10
8.1012927952755902
20
-5.5322964566929134
11
8.1010796850393696
21
-5.5325242519685034
0
LINE
8
BLACK
6
CONTINUOUS
10
8.1010796850393696
20
-5.5325242519685034
11
8.0879231496062989
21
-5.5440737007874015
0
LINE
8
BLACK
6
CONTINUOUS
10
8.0879231496062989
20
-5.5440737007874015
11
8.0876823228346453
21
-5.5442464173228343
0
LINE
8
BLACK
6
CONTINUOUS
10
8.0876823228346453
20
-5.5442464173228343
11
8.087461771653544
21
-5.5444448818897634
0
LINE
8
BLACK
6
CONTINUOUS
10
8.087461771653544
20
-5.5444448818897634
11
8.0725919291338588
21
-5.5553886614173225
0
LINE
8
BLACK
6
CONTINUOUS
10
8.0725919291338588
20
-5.5553886614173225
11
8.0723509055118114
21
-5.5555318897637793
0
LINE
8
BLACK
6
CONTINUOUS
10
8.0723509055118114
20
-5.5555318897637793
11
8.0721276377952762
21
-5.5557021259842516
0
LINE
8
BLACK
6
CONTINUOUS
10
8.0721276377952762
20
-5.5557021259842516
11
8.0554977559055114
21
-5.5659697637795276
0
LINE
8
BLACK
6
CONTINUOUS
10
8.0554977559055114
20
-5.5659697637795276
11
8.0552598818897643
21
-5.5660861023622044
0
LINE
8
BLACK
6
CONTINUOUS
10
8.0552598818897643
20
-5.5660861023622044
11
8.0550375984251961
21
-5.5662300393700788
0
LINE
8
BLACK
6
CONTINUOUS
10
8.0550375984251961
20
-5.5662300393700788
11
8.0366106692913384
21
-5.5757385826771655
0
LINE
8
BLACK
6
CONTINUOUS
10
8.0366106692913384
20
-5.5757385826771655
11
8.0363785826771643
21
-5.5758307874015749
0
LINE
8
BLACK
6
CONTINUOUS
10
8.0363785826771643
20
-5.5758307874015749
11
8.0361598031496069
21
-5.5759509448818898
0
LINE
8
BLACK
6
CONTINUOUS
10
8.0361598031496069
20
-5.5759509448818898
11
8.0159129921259833
21
-5.5846073228346453
0
LINE
8
BLACK
6
CONTINUOUS
10
8.0159129921259833
20
-5.5846073228346453
11
8.0156884645669297
21
-5.5846781889763779
0
LINE
8
BLACK
6
CONTINUOUS
10
8.0156884645669297
20
-5.5846781889763779
11
8.0154748818897641
21
-5.5847772047244097
0
LINE
8
BLACK
6
CONTINUOUS
10
8.0154748818897641
20
-5.5847772047244097
11
7.9934025590551183
21
-5.592480984251968
0
LINE
8
BLACK
6
CONTINUOUS
10
7.9934025590551183
20
-5.592480984251968
11
7.9931865354330709
21
-5.5925332677165356
0
LINE
8
BLACK
6
CONTINUOUS
10
7.9931865354330709
20
-5.5925332677165356
11
7.9929793307086614
21
-5.5926135826771652
0
LINE
8
BLACK
6
CONTINUOUS
10
7.9929793307086614
20
-5.5926135826771652
11
7.9690957086614169
21
-5.5992601181102364
0
LINE
8
BLACK
6
CONTINUOUS
10
7.9690957086614169
20
-5.5992601181102364
11
7.9688886220472437
21
-5.5992963385826773
0
LINE
8
BLACK
6
CONTINUOUS
10
7.9688886220472437
20
-5.5992963385826773
11
7.9686884645669291
21
-5.5993601968503937
0
LINE
8
BLACK
6
CONTINUOUS
10
7.9686884645669291
20
-5.5993601968503937
11
7.9430286614173227
21
-5.6048440157480313
0
LINE
8
BLACK
6
CONTINUOUS
10
7.9430286614173227
20
-5.6048440157480313
11
7.9428308267716536
21
-5.6048663385826769
0
LINE
8
BLACK
6
CONTINUOUS
10
7.9428308267716536
20
-5.6048663385826769
11
7.9426377165354332
21
-5.6049158661417318
0
LINE
8
BLACK
6
CONTINUOUS
10
7.9426377165354332
20
-5.6049158661417318
11
7.9152578346456695
21
-5.6091336614173226
0
LINE
8
BLACK
6
CONTINUOUS
10
7.9152578346456695
20
-5.6091336614173226
11
7.9150686614173225
21
-5.6091439763779523
0
LINE
8
BLACK
6
CONTINUOUS
10
7.9150686614173225
20
-5.6091439763779523
11
7.9148830314960632
21
-5.6091809055118107
0
LINE
8
BLACK
6
CONTINUOUS
10
7.9148830314960632
20
-5.6091809055118107
11
7.88585905511811
21
-5.6120345275590546
0
LINE
8
BLACK
6
CONTINUOUS
10
7.88585905511811
20
-5.6120345275590546
11
7.8856784645669293
21
-5.6120344881889759
0
LINE
8
BLACK
6
CONTINUOUS
10
7.8856784645669293
20
-5.6120344881889759
11
7.885499763779527
21
-5.6120603937007871
0
LINE
8
BLACK
6
CONTINUOUS
10
7.885499763779527
20
-5.6120603937007871
11
7.8549257086614173
21
-5.6134591338582673
0
LINE
8
BLACK
6
CONTINUOUS
10
7.8549257086614173
20
-5.6134591338582673
11
7.8548031889763781
21
-5.6134526771653546
0
LINE
8
BLACK
6
CONTINUOUS
10
7.8548031889763781
20
-5.6134526771653546
11
7.8546811811023618
21
-5.6134659842519685
0
LINE
8
BLACK
6
CONTINUOUS
10
7.8546811811023618
20
-5.6134659842519685
11
7.8415801574803146
21
-5.6135997637795274
0
LINE
8
BLACK
6
CONTINUOUS
10
7.8415801574803146
20
-5.6135997637795274
11
7.8415024015748029
21
-5.6135928740157475
0
LINE
8
BLACK
6
CONTINUOUS
10
7.8415024015748029
20
-5.6135928740157475
11
7.8414246062992126
21
-5.6135996062992124
0
LINE
8
BLACK
6
CONTINUOUS
10
7.8414246062992126
20
-5.6135996062992124
11
7.8255910236220467
21
-5.6134037401574801
0
LINE
8
BLACK
6
CONTINUOUS
10
7.8255910236220467
20
-5.6134037401574801
11
7.8255041338582672
21
-5.6133940944881893
0
LINE
8
BLACK
6
CONTINUOUS
10
7.8255041338582672
20
-5.6133940944881893
11
7.8254172440944876
21
-5.6133993700787403
0
LINE
8
BLACK
6
CONTINUOUS
10
7.8254172440944876
20
-5.6133993700787403
11
7.8099012992125987
21
-5.6128156692913382
0
LINE
8
BLACK
6
CONTINUOUS
10
7.8099012992125987
20
-5.6128156692913382
11
7.8098128740157478
21
-5.6128035826771656
0
LINE
8
BLACK
6
CONTINUOUS
10
7.8098128740157478
20
-5.6128035826771656
11
7.8097236614173227
21
-5.6128066929133853
0
LINE
8
BLACK
6
CONTINUOUS
10
7.8097236614173227
20
-5.6128066929133853
11
7.7946157874015745
21
-5.6118472440944878
0
LINE
8
BLACK
6
CONTINUOUS
10
7.7946157874015745
20
-5.6118472440944878
11
7.7945256299212593
21
-5.6118325196850396
0
LINE
8
BLACK
6
CONTINUOUS
10
7.7945256299212593
20
-5.6118325196850396
11
7.7944340551181099
21
-5.6118333070866138
0
LINE
8
BLACK
6
CONTINUOUS
10
7.7944340551181099
20
-5.6118333070866138
11
7.7796590551181097
21
-5.610501771653543
0
LINE
8
BLACK
6
CONTINUOUS
10
7.7796590551181097
20
-5.610501771653543
11
7.7795669291338578
21
-5.6104842125984247
0
LINE
8
BLACK
6
CONTINUOUS
10
7.7795669291338578
20
-5.6104842125984247
11
7.7794732283464567
21
-5.6104824803149604
0
LINE
8
BLACK
6
CONTINUOUS
10
7.7794732283464567
20
-5.6104824803149604
11
7.7651475590551176
21
-5.6087987401574804
0
LINE
8
BLACK
6
CONTINUOUS
10
7.7651475590551176
20
-5.6087987401574804
11
7.7650535039370077
21
-5.6087781496062989
0
LINE
8
BLACK
6
CONTINUOUS
10
7.7650535039370077
20
-5.6087781496062989
11
7.7649574409448814
21
-5.6087737007874017
0
LINE
8
BLACK
6
CONTINUOUS
10
7.7649574409448814
20
-5.6087737007874017
11
7.7509781102362201
21
-5.6067347637795271
0
LINE
8
BLACK
6
CONTINUOUS
10
7.7509781102362201
20
-5.6067347637795271
11
7.7508820472440947
21
-5.6067109448818897
0
LINE
8
BLACK
6
CONTINUOUS
10
7.7508820472440947
20
-5.6067109448818897
11
7.7507837007874016
21
-5.6067035433070869
0
LINE
8
BLACK
6
CONTINUOUS
10
7.7507837007874016
20
-5.6067035433070869
11
7.7372898818897635
21
-5.6043398818897634
0
LINE
8
BLACK
6
CONTINUOUS
10
7.7372898818897635
20
-5.6043398818897634
11
7.7371921259842518
21
-5.6043126377952754
0
LINE
8
BLACK
6
CONTINUOUS
10
7.7371921259842518
20
-5.6043126377952754
11
7.7370910236220469
21
-5.6043020472440945
0
LINE
8
BLACK
6
CONTINUOUS
10
7.7370910236220469
20
-5.6043020472440945
11
7.7239546456692914
21
-5.601601023622047
0
LINE
8
BLACK
6
CONTINUOUS
10
7.7239546456692914
20
-5.601601023622047
11
7.7238548425196845
21
-5.6015700393700785
0
LINE
8
BLACK
6
CONTINUOUS
10
7.7238548425196845
20
-5.6015700393700785
11
7.7237514566929129
21
-5.601556023622047
0
LINE
8
BLACK
6
CONTINUOUS
10
7.7237514566929129
20
-5.601556023622047
11
7.7111303149606298
21
-5.59856094488189
0
LINE
8
BLACK
6
CONTINUOUS
10
7.7111303149606298
20
-5.59856094488189
11
7.71102874015748
21
-5.5985260236220471
0
LINE
8
BLACK
6
CONTINUOUS
10
7.71102874015748
20
-5.5985260236220471
11
7.7109226771653541
21
-5.598508267716535
0
LINE
8
BLACK
6
CONTINUOUS
10
7.7109226771653541
20
-5.598508267716535
11
7.6986677559055119
21
-5.5951944488188978
0
LINE
8
BLACK
6
CONTINUOUS
10
7.6986677559055119
20
-5.5951944488188978
11
7.698564251968504
21
-5.5951551968503939
0
LINE
8
BLACK
6
CONTINUOUS
10
7.698564251968504
20
-5.5951551968503939
11
7.6984557874015742
21
-5.5951334645669286
0
LINE
8
BLACK
6
CONTINUOUS
10
7.6984557874015742
20
-5.5951334645669286
11
7.6867381889763777
21
-5.5915587007874015
0
LINE
8
BLACK
6
CONTINUOUS
10
7.6867381889763777
20
-5.5915587007874015
11
7.6866327952755906
21
-5.5915148425196852
0
LINE
8
BLACK
6
CONTINUOUS
10
7.6866327952755906
20
-5.5915148425196852
11
7.686521889763779
21
-5.591488779527559
0
LINE
8
BLACK
6
CONTINUOUS
10
7.686521889763779
20
-5.591488779527559
11
7.6751770078740158
21
-5.5876142519685041
0
LINE
8
BLACK
6
CONTINUOUS
10
7.6751770078740158
20
-5.5876142519685041
11
7.6750700393700786
21
-5.5875655511811022
0
LINE
8
BLACK
6
CONTINUOUS
10
7.6750700393700786
20
-5.5875655511811022
11
7.6749566929133852
21
-5.5875348031496062
0
LINE
8
BLACK
6
CONTINUOUS
10
7.6749566929133852
20
-5.5875348031496062
11
7.6641627165354329
21
-5.583433661417323
0
LINE
8
BLACK
6
CONTINUOUS
10
7.6641627165354329
20
-5.583433661417323
11
7.6640541338582677
21
-5.58337968503937
0
LINE
8
BLACK
6
CONTINUOUS
10
7.6640541338582677
20
-5.58337968503937
11
7.6639384251968501
21
-5.5833438976377954
0
LINE
8
BLACK
6
CONTINUOUS
10
7.6639384251968501
20
-5.5833438976377954
11
7.6535213779527558
21
-5.5789621259842521
0
LINE
8
BLACK
6
CONTINUOUS
10
7.6535213779527558
20
-5.5789621259842521
11
7.6534115748031493
21
-5.5789026771653543
0
LINE
8
BLACK
6
CONTINUOUS
10
7.6534115748031493
20
-5.5789026771653543
11
7.6532936220472436
21
-5.5788614566929136
0
LINE
8
BLACK
6
CONTINUOUS
10
7.6532936220472436
20
-5.5788614566929136
11
7.6434324409448813
21
-5.5742873228346452
0
LINE
8
BLACK
6
CONTINUOUS
10
7.6434324409448813
20
-5.5742873228346452
11
7.6433213385826768
21
-5.5742218503937009
0
LINE
8
BLACK
6
CONTINUOUS
10
7.6433213385826768
20
-5.5742218503937009
11
7.6432014566929132
21
-5.5741748818897641
0
LINE
8
BLACK
6
CONTINUOUS
10
7.6432014566929132
20
-5.5741748818897641
11
7.6337191732283465
21
-5.5693390551181103
0
LINE
8
BLACK
6
CONTINUOUS
10
7.6337191732283465
20
-5.5693390551181103
11
7.633607283464567
21
-5.569267362204724
0
LINE
8
BLACK
6
CONTINUOUS
10
7.633607283464567
20
-5.569267362204724
11
7.6334855905511807
21
-5.5692142125984248
0
LINE
8
BLACK
6
CONTINUOUS
10
7.6334855905511807
20
-5.5692142125984248
11
7.6245557086614175
21
-5.5642186220472443
0
LINE
8
BLACK
6
CONTINUOUS
10
7.6245557086614175
20
-5.5642186220472443
11
7.6244433070866142
21
-5.5641403543307089
0
LINE
8
BLACK
6
CONTINUOUS
10
7.6244433070866142
20
-5.5641403543307089
11
7.6243201181102362
21
-5.5640806299212597
0
LINE
8
BLACK
6
CONTINUOUS
10
7.6243201181102362
20
-5.5640806299212597
11
7.6157693307086616
21
-5.5588418503937005
0
LINE
8
BLACK
6
CONTINUOUS
10
7.6157693307086616
20
-5.5588418503937005
11
7.6156566929133858
21
-5.5587566141732285
0
LINE
8
BLACK
6
CONTINUOUS
10
7.6156566929133858
20
-5.5587566141732285
11
7.615532519685039
21
-5.5586899999999995
0
LINE
8
BLACK
6
CONTINUOUS
10
7.615532519685039
20
-5.5586899999999995
11
7.6075229921259844
21
-5.5533211811023619
0
LINE
8
BLACK
6
CONTINUOUS
10
7.6075229921259844
20
-5.5533211811023619
11
7.6074109448818898
21
-5.5532289370078738
0
LINE
8
BLACK
6
CONTINUOUS
10
7.6074109448818898
20
-5.5532289370078738
11
7.6072857874015742
21
-5.553154881889764
0
LINE
8
BLACK
6
CONTINUOUS
10
7.6072857874015742
20
-5.553154881889764
11
7.599654094488189
21
-5.5475604724409449
0
LINE
8
BLACK
6
CONTINUOUS
10
7.599654094488189
20
-5.5475604724409449
11
7.5995428346456695
21
-5.5474607480314964
0
LINE
8
BLACK
6
CONTINUOUS
10
7.5995428346456695
20
-5.5474607480314964
11
7.5994175984251964
21
-5.5473791338582679
0
LINE
8
BLACK
6
CONTINUOUS
10
7.5994175984251964
20
-5.5473791338582679
11
7.5923096456692916
21
-5.5416801181102358
0
LINE
8
BLACK
6
CONTINUOUS
10
7.5923096456692916
20
-5.5416801181102358
11
7.5921997244094488
21
-5.5415726771653544
0
LINE
8
BLACK
6
CONTINUOUS
10
7.5921997244094488
20
-5.5415726771653544
11
7.5920750393700782
21
-5.5414832677165355
0
LINE
8
BLACK
6
CONTINUOUS
10
7.5920750393700782
20
-5.5414832677165355
11
7.5853426771653538
21
-5.535575275590551
0
LINE
8
BLACK
6
CONTINUOUS
10
7.5853426771653538
20
-5.535575275590551
11
7.5852348818897637
21
-5.5354601181102359
0
LINE
8
BLACK
6
CONTINUOUS
10
7.5852348818897637
20
-5.5354601181102359
11
7.5851112204724407
21
-5.5353625984251966
0
LINE
8
BLACK
6
CONTINUOUS
10
7.5851112204724407
20
-5.5353625984251966
11
7.5788803543307086
21
-5.5293700393700789
0
LINE
8
BLACK
6
CONTINUOUS
10
7.5788803543307086
20
-5.5293700393700789
11
7.5787754724409444
21
-5.5292471653543309
0
LINE
8
BLACK
6
CONTINUOUS
10
7.5787754724409444
20
-5.5292471653543309
11
7.578653464566929
21
-5.5291413779527554
0
LINE
8
BLACK
6
CONTINUOUS
10
7.578653464566929
20
-5.5291413779527554
11
7.5727957086614168
21
-5.5229551574803146
0
LINE
8
BLACK
6
CONTINUOUS
10
7.5727957086614168
20
-5.5229551574803146
11
7.5726944488188979
21
-5.5228246850393701
0
LINE
8
BLACK
6
CONTINUOUS
10
7.5726944488188979
20
-5.5228246850393701
11
7.5725749212598421
21
-5.5227105511811025
0
LINE
8
BLACK
6
CONTINUOUS
10
7.5725749212598421
20
-5.5227105511811025
11
7.5671936614173223
21
-5.5164536220472442
0
LINE
8
BLACK
6
CONTINUOUS
10
7.5671936614173223
20
-5.5164536220472442
11
7.5670966929133856
21
-5.5163155118110234
0
LINE
8
BLACK
6
CONTINUOUS
10
7.5670966929133856
20
-5.5163155118110234
11
7.5669805905511813
21
-5.5161932677165355
0
LINE
8
BLACK
6
CONTINUOUS
10
7.5669805905511813
20
-5.5161932677165355
11
7.5619700393700784
21
-5.5097567322834644
0
LINE
8
BLACK
6
CONTINUOUS
10
7.5619700393700784
20
-5.5097567322834644
11
7.5618781889763778
21
-5.509611338582677
0
LINE
8
BLACK
6
CONTINUOUS
10
7.5618781889763778
20
-5.509611338582677
11
7.5617662598425195
21
-5.5094810629921263
0
LINE
8
BLACK
6
CONTINUOUS
10
7.5617662598425195
20
-5.5094810629921263
11
7.557206732283464
21
-5.5029809842519688
0
LINE
8
BLACK
6
CONTINUOUS
10
7.557206732283464
20
-5.5029809842519688
11
7.5571209448818895
21
-5.5028288976377953
0
LINE
8
BLACK
6
CONTINUOUS
10
7.5571209448818895
20
-5.5028288976377953
11
7.5570139763779522
21
-5.502690866141732
0
LINE
8
BLACK
6
CONTINUOUS
10
7.5570139763779522
20
-5.502690866141732
11
7.5528234251968502
21
-5.4960237401574803
0
LINE
8
BLACK
6
CONTINUOUS
10
7.5528234251968502
20
-5.4960237401574803
11
7.5527248425196847
21
-5.4958262204724404
0
LINE
8
BLACK
6
CONTINUOUS
10
7.5527248425196847
20
-5.4958262204724404
11
7.5526011417322829
21
-5.4956436220472442
0
LINE
8
BLACK
6
CONTINUOUS
10
7.5526011417322829
20
-5.4956436220472442
11
7.5490818503937005
21
-5.4891587007874012
0
LINE
8
BLACK
6
CONTINUOUS
10
7.5490818503937005
20
-5.4891587007874012
11
7.1031372047244092
21
-5.4891587007874012
0
LINE
8
BLACK
6
CONTINUOUS
10
7.1031372047244092
20
-5.4891587007874012
11
7.1031372047244092
21
-5.5974052362204727
0
LINE
8
BLACK
6
CONTINUOUS
10
7.1031372047244092
20
-5.5974052362204727
11
7.1031176377952754
21
-5.5976037007874018
0
LINE
8
BLACK
6
CONTINUOUS
10
7.1031176377952754
20
-5.5976037007874018
11
7.103125708661417
21
-5.5978028346456687
0
LINE
8
BLACK
6
CONTINUOUS
10
7.103125708661417
20
-5.5978028346456687
11
7.1023470472440939
21
-5.611272913385827
0
LINE
8
BLACK
6
CONTINUOUS
10
7.1023470472440939
20
-5.611272913385827
11
7.1022852362204727
21
-5.6116659055118108
0
LINE
8
BLACK
6
CONTINUOUS
10
7.1022852362204727
20
-5.6116659055118108
11
7.1022553937007871
21
-5.6120631496062989
0
LINE
8
BLACK
6
CONTINUOUS
10
7.1022553937007871
20
-5.6120631496062989
11
7.0999246062992123
21
-5.6253798031496061
0
LINE
8
BLACK
6
CONTINUOUS
10
7.0999246062992123
20
-5.6253798031496061
11
7.0998177559055113
21
-5.6257635826771653
0
LINE
8
BLACK
6
CONTINUOUS
10
7.0998177559055113
20
-5.6257635826771653
11
7.0997422834645665
21
-5.6261547244094485
0
LINE
8
BLACK
6
CONTINUOUS
10
7.0997422834645665
20
-5.6261547244094485
11
7.0958817322834644
21
-5.6391446850393701
0
LINE
8
BLACK
6
CONTINUOUS
10
7.0958817322834644
20
-5.6391446850393701
11
7.0957310236220472
21
-5.6395142913385827
0
LINE
8
BLACK
6
CONTINUOUS
10
7.0957310236220472
20
-5.6395142913385827
11
7.0956107874015748
21
-5.6398943700787401
0
LINE
8
BLACK
6
CONTINUOUS
10
7.0956107874015748
20
-5.6398943700787401
11
7.0902655118110234
21
-5.6523751968503939
0
LINE
8
BLACK
6
CONTINUOUS
10
7.0902655118110234
20
-5.6523751968503939
11
7.0901210236220473
21
-5.6526378740157481
0
LINE
8
BLACK
6
CONTINUOUS
10
7.0901210236220473
20
-5.6526378740157481
11
7.0900060236220472
21
-5.6529150000000001
0
LINE
8
BLACK
6
CONTINUOUS
10
7.0900060236220472
20
-5.6529150000000001
11
7.0867992125984252
21
-5.658904015748031
0
LINE
8
BLACK
6
CONTINUOUS
10
7.0867992125984252
20
-5.658904015748031
11
7.0866876377952757
21
-5.6590706692913386
0
LINE
8
BLACK
6
CONTINUOUS
10
7.0866876377952757
20
-5.6590706692913386
11
7.0866000787401573
21
-5.6592512992125981
0
LINE
8
BLACK
6
CONTINUOUS
10
7.0866000787401573
20
-5.6592512992125981
11
7.0830459055118107
21
-5.6650520078740154
0
LINE
8
BLACK
6
CONTINUOUS
10
7.0830459055118107
20
-5.6650520078740154
11
7.0829247244094491
21
-5.6652120472440943
0
LINE
8
BLACK
6
CONTINUOUS
10
7.0829247244094491
20
-5.6652120472440943
11
7.0828266929133861
21
-5.665387519685039
0
LINE
8
BLACK
6
CONTINUOUS
10
7.0828266929133861
20
-5.665387519685039
11
7.0789488188976373
21
-5.6709609448818901
0
LINE
8
BLACK
6
CONTINUOUS
10
7.0789488188976373
20
-5.6709609448818901
11
7.078818149606299
21
-5.6711141732283465
0
LINE
8
BLACK
6
CONTINUOUS
10
7.078818149606299
20
-5.6711141732283465
11
7.0787099212598426
21
-5.6712837795275588
0
LINE
8
BLACK
6
CONTINUOUS
10
7.0787099212598426
20
-5.6712837795275588
11
7.0745012992125984
21
-5.6766377952755906
0
LINE
8
BLACK
6
CONTINUOUS
10
7.0745012992125984
20
-5.6766377952755906
11
7.074312992125984
21
-5.676834133858268
0
LINE
8
BLACK
6
CONTINUOUS
10
7.074312992125984
20
-5.676834133858268
11
7.0741489370078741
21
-5.6770514173228346
0
LINE
8
BLACK
6
CONTINUOUS
10
7.0741489370078741
20
-5.6770514173228346
11
7.0663120866141726
21
-5.6855473228346458
0
LINE
8
BLACK
6
CONTINUOUS
10
7.0663120866141726
20
-5.6855473228346458
11
7.0660517322834648
21
-5.6857791338582677
0
LINE
8
BLACK
6
CONTINUOUS
10
7.0660517322834648
20
-5.6857791338582677
11
7.065814803149606
21
-5.6860345275590554
0
LINE
8
BLACK
6
CONTINUOUS
10
7.065814803149606
20
-5.6860345275590554
11
7.0556843307086616
21
-5.69500311023622
0
LINE
8
BLACK
6
CONTINUOUS
10
7.0556843307086616
20
-5.69500311023622
11
7.055363267716535
21
-5.6952354330708657
0
LINE
8
BLACK
6
CONTINUOUS
10
7.055363267716535
20
-5.6952354330708657
11
7.0550615748031493
21
-5.6954935826771651
0
LINE
8
BLACK
6
CONTINUOUS
10
7.0550615748031493
20
-5.6954935826771651
11
7.0439350000000003
21
-5.7032622047244095
0
LINE
8
BLACK
6
CONTINUOUS
10
7.0439350000000003
20
-5.7032622047244095
11
7.0435891338582675
21
-5.7034562598425191
0
LINE
8
BLACK
6
CONTINUOUS
10
7.0435891338582675
20
-5.7034562598425191
11
7.0432601574803151
21
-5.7036777952755902
0
LINE
8
BLACK
6
CONTINUOUS
10
7.0432601574803151
20
-5.7036777952755902
11
7.0312768503937004
21
-5.7101378346456695
0
LINE
8
BLACK
6
CONTINUOUS
10
7.0312768503937004
20
-5.7101378346456695
11
7.0309106299212596
21
-5.7102910236220472
0
LINE
8
BLACK
6
CONTINUOUS
10
7.0309106299212596
20
-5.7102910236220472
11
7.0305581889763777
21
-5.7104733858267718
0
LINE
8
BLACK
6
CONTINUOUS
10
7.0305581889763777
20
-5.7104733858267718
11
7.0178809842519687
21
-5.7155257086614171
0
LINE
8
BLACK
6
CONTINUOUS
10
7.0178809842519687
20
-5.7155257086614171
11
7.0175940944881887
21
-5.7156085039370081
0
LINE
8
BLACK
6
CONTINUOUS
10
7.0175940944881887
20
-5.7156085039370081
11
7.0173184645669293
21
-5.7157221259842519
0
LINE
8
BLACK
6
CONTINUOUS
10
7.0173184645669293
20
-5.7157221259842519
11
7.0107791732283467
21
-5.7176930314960632
0
LINE
8
BLACK
6
CONTINUOUS
10
7.0107791732283467
20
-5.7176930314960632
11
7.0105833858267719
21
-5.7177315748031496
0
LINE
8
BLACK
6
CONTINUOUS
10
7.0105833858267719
20
-5.7177315748031496
11
7.0103948425196849
21
-5.7177968503937002
0
LINE
8
BLACK
6
CONTINUOUS
10
7.0103948425196849
20
-5.7177968503937002
11
7.0037429133858264
21
-5.7193890551181097
0
LINE
8
BLACK
6
CONTINUOUS
10
7.0037429133858264
20
-5.7193890551181097
11
7.0035451574803149
21
-5.7194162598425198
0
LINE
8
BLACK
6
CONTINUOUS
10
7.0035451574803149
20
-5.7194162598425198
11
7.0033527165354332
21
-5.7194706299212594
0
LINE
8
BLACK
6
CONTINUOUS
10
7.0033527165354332
20
-5.7194706299212594
11
6.9966332283464565
21
-5.720673070866142
0
LINE
8
BLACK
6
CONTINUOUS
10
6.9966332283464565
20
-5.720673070866142
11
6.9964336220472436
21
-5.7206888188976377
0
LINE
8
BLACK
6
CONTINUOUS
10
6.9964336220472436
20
-5.7206888188976377
11
6.9962381496062989
21
-5.720732007874016
0
LINE
8
BLACK
6
CONTINUOUS
10
6.9962381496062989
20
-5.720732007874016
11
6.9894401574803151
21
-5.7215453937007874
0
LINE
8
BLACK
6
CONTINUOUS
10
6.9894401574803151
20
-5.7215453937007874
11
6.9891845669291337
21
-5.7215507086614172
0
LINE
8
BLACK
6
CONTINUOUS
10
6.9891845669291337
20
-5.7215507086614172
11
6.9889316535433066
21
-5.7215872047244094
0
LINE
8
BLACK
6
CONTINUOUS
10
6.9889316535433066
20
-5.7215872047244094
11
6.9783651574803152
21
-5.722063188976378
0
LINE
8
BLACK
6
CONTINUOUS
10
6.9783651574803152
20
-5.722063188976378
11
6.9781812204724405
21
-5.7220533858267713
0
LINE
8
BLACK
6
CONTINUOUS
10
6.9781812204724405
20
-5.7220533858267713
11
6.9779979527559055
21
-5.722069921259842
0
LINE
8
BLACK
6
CONTINUOUS
10
6.9779979527559055
20
-5.722069921259842
11
6.8274725196850392
21
-5.7208206299212598
0
LINE
8
BLACK
6
CONTINUOUS
10
6.8274725196850392
20
-5.7208206299212598
11
4.4870664566929133
21
-5.7208206299212598
0
LINE
8
BLACK
6
CONTINUOUS
10
4.4870664566929133
20
-5.7208206299212598
11
4.4850605511811024
21
-5.7209462204724408
0
LINE
8
BLACK
6
CONTINUOUS
10
4.4850605511811024
20
-5.7209462204724408
11
4.4848400000000002
21
-5.720938346456693
0
LINE
8
BLACK
6
CONTINUOUS
10
4.4848400000000002
20
-5.720938346456693
11
4.4846202362204721
21
-5.7209596850393698
0
LINE
8
BLACK
6
CONTINUOUS
10
4.4846202362204721
20
-5.7209596850393698
11
4.3871217716535433
21
-5.7208206299212598
0
LINE
8
BLACK
6
CONTINUOUS
10
4.3871217716535433
20
-5.7208206299212598
11
4.3264366929133855
21
-5.7208206299212598
0
LINE
8
BLACK
6
CONTINUOUS
10
4.3264366929133855
20
-5.7208206299212598
11
4.3263377559055121
21
-5.7208108661417318
0
LINE
8
BLACK
6
CONTINUOUS
10
4.3263377559055121
20
-5.7208108661417318
11
4.3262384251968502
21
-5.7208177952755905
0
LINE
8
BLACK
6
CONTINUOUS
10
4.3262384251968502
20
-5.7208177952755905
11
4.3194006692913387
21
-5.7206209448818894
0
LINE
8
BLACK
6
CONTINUOUS
10
4.3194006692913387
20
-5.7206209448818894
11
4.3192000393700782
21
-5.7205953149606295
0
LINE
8
BLACK
6
CONTINUOUS
10
4.3192000393700782
20
-5.7205953149606295
11
4.3189979527559057
21
-5.7205975196850396
0
LINE
8
BLACK
6
CONTINUOUS
10
4.3189979527559057
20
-5.7205975196850396
11
4.3122535826771653
21
-5.7200069685039372
0
LINE
8
BLACK
6
CONTINUOUS
10
4.3122535826771653
20
-5.7200069685039372
11
4.3119985039370077
21
-5.7199590944881891
0
LINE
8
BLACK
6
CONTINUOUS
10
4.3119985039370077
20
-5.7199590944881891
11
4.3117398818897641
21
-5.719942440944882
0
LINE
8
BLACK
6
CONTINUOUS
10
4.3117398818897641
20
-5.719942440944882
11
4.3012949606299209
21
-5.7182300000000001
0
LINE
8
BLACK
6
CONTINUOUS
10
4.3012949606299209
20
-5.7182300000000001
11
4.3012613385826768
21
-5.7182210236220472
0
LINE
8
BLACK
6
CONTINUOUS
10
4.3012613385826768
20
-5.7182210236220472
11
4.3009298818897639
21
-5.7181883858267719
0
LINE
8
BLACK
6
CONTINUOUS
10
4.3009298818897639
20
-5.7181883858267719
11
4.3008312204724408
21
-5.7181475196850391
0
LINE
8
BLACK
6
CONTINUOUS
10
4.3008312204724408
20
-5.7181475196850391
11
4.3005831102362206
21
-5.7181100787401578
0
LINE
8
BLACK
6
CONTINUOUS
10
4.3005831102362206
20
-5.7181100787401578
11
4.2896105511811022
21
-5.7153322047244091
0
LINE
8
BLACK
6
CONTINUOUS
10
4.2896105511811022
20
-5.7153322047244091
11
4.2892701574803151
21
-5.7152094094488186
0
LINE
8
BLACK
6
CONTINUOUS
10
4.2892701574803151
20
-5.7152094094488186
11
4.2889200393700788
21
-5.7151182677165355
0
LINE
8
BLACK
6
CONTINUOUS
10
4.2889200393700788
20
-5.7151182677165355
11
4.2875888976377956
21
-5.7146279527559054
0
LINE
8
BLACK
6
CONTINUOUS
10
4.2875888976377956
20
-5.7146279527559054
11
4.2875874803149605
21
-5.7146272440944879
0
LINE
8
BLACK
6
CONTINUOUS
10
4.2875874803149605
20
-5.7146272440944879
11
4.2875863385826767
21
-5.7146269685039366
0
LINE
8
BLACK
6
CONTINUOUS
10
4.2875863385826767
20
-5.7146269685039366
11
4.2863495275590546
21
-5.7141708267716531
0
LINE
8
BLACK
6
CONTINUOUS
10
4.2863495275590546
20
-5.7141708267716531
11
4.284398031496063
21
-5.7134987007874019
0
LINE
8
BLACK
6
CONTINUOUS
10
4.284398031496063
20
-5.7134987007874019
11
4.2843323228346453
21
-5.7134685433070862
0
LINE
8
BLACK
6
CONTINUOUS
10
4.2843323228346453
20
-5.7134685433070862
11
4.2842624015748028
21
-5.7134503937007874
0
LINE
8
BLACK
6
CONTINUOUS
10
4.2842624015748028
20
-5.7134503937007874
11
4.278227716535433
21
-5.7112298425196846
0
LINE
8
BLACK
6
CONTINUOUS
10
4.278227716535433
20
-5.7112298425196846
11
4.2778832677165353
21
-5.7110631102362204
0
LINE
8
BLACK
6
CONTINUOUS
10
4.2778832677165353
20
-5.7110631102362204
11
4.2775257086614173
21
-5.7109262992125984
0
LINE
8
BLACK
6
CONTINUOUS
10
4.2775257086614173
20
-5.7109262992125984
11
4.2742667322834649
21
-5.709296771653543
0
LINE
8
BLACK
6
CONTINUOUS
10
4.2742667322834649
20
-5.709296771653543
11
4.2672569685039372
21
-5.7059982677165353
0
LINE
8
BLACK
6
CONTINUOUS
10
4.2672569685039372
20
-5.7059982677165353
11
4.2669604330708664
21
-5.7058213385826768
0
LINE
8
BLACK
6
CONTINUOUS
10
4.2669604330708664
20
-5.7058213385826768
11
4.2666483858267714
21
-5.7056737401574802
0
LINE
8
BLACK
6
CONTINUOUS
10
4.2666483858267714
20
-5.7056737401574802
11
4.2638679921259843
21
-5.7040072047244097
0
LINE
8
BLACK
6
CONTINUOUS
10
4.2638679921259843
20
-5.7040072047244097
11
4.2638502362204722
21
-5.7039940551181099
0
LINE
8
BLACK
6
CONTINUOUS
10
4.2638502362204722
20
-5.7039940551181099
11
4.2638301968503933
21
-5.703984409448819
0
LINE
8
BLACK
6
CONTINUOUS
10
4.2638301968503933
20
-5.703984409448819
11
4.2567502755905515
21
-5.6996789763779523
0
LINE
8
BLACK
6
CONTINUOUS
10
4.2567502755905515
20
-5.6996789763779523
11
4.2564144881889767
21
-5.6994265748031498
0
LINE
8
BLACK
6
CONTINUOUS
10
4.2564144881889767
20
-5.6994265748031498
11
4.2560608267716535
21
-5.6991998425196853
0
LINE
8
BLACK
6
CONTINUOUS
10
4.2560608267716535
20
-5.6991998425196853
11
4.2557341338582679
21
-5.6989418897637796
0
LINE
8
BLACK
6
CONTINUOUS
10
4.2557341338582679
20
-5.6989418897637796
11
4.2548597637795273
21
-5.6983321259842521
0
LINE
8
BLACK
6
CONTINUOUS
10
4.2548597637795273
20
-5.6983321259842521
11
4.2547711811023623
21
-5.6982564173228347
0
LINE
8
BLACK
6
CONTINUOUS
10
4.2547711811023623
20
-5.6982564173228347
11
4.2546712992125979
21
-5.6981959448818893
0
LINE
8
BLACK
6
CONTINUOUS
10
4.2546712992125979
20
-5.6981959448818893
11
4.2484293307086611
21
-5.6935220866141734
0
LINE
8
BLACK
6
CONTINUOUS
10
4.2484293307086611
20
-5.6935220866141734
11
4.2482727559055116
21
-5.6933788582677165
0
LINE
8
BLACK
6
CONTINUOUS
10
4.2482727559055116
20
-5.6933788582677165
11
4.2480985039370074
21
-5.6932581102362203
0
LINE
8
BLACK
6
CONTINUOUS
10
4.2480985039370074
20
-5.6932581102362203
11
4.2421641338582674
21
-5.6882172834645672
0
LINE
8
BLACK
6
CONTINUOUS
10
4.2421641338582674
20
-5.6882172834645672
11
4.2420261811023625
21
-5.6880745669291342
0
LINE
8
BLACK
6
CONTINUOUS
10
4.2420261811023625
20
-5.6880745669291342
11
4.2418700787401571
21
-5.6879525590551179
0
LINE
8
BLACK
6
CONTINUOUS
10
4.2418700787401571
20
-5.6879525590551179
11
4.2380758267716532
21
-5.6843347244094486
0
LINE
8
BLACK
6
CONTINUOUS
10
4.2380758267716532
20
-5.6843347244094486
11
4.2379155905511814
21
-5.6841487007874019
0
LINE
8
BLACK
6
CONTINUOUS
10
4.2379155905511814
20
-5.6841487007874019
11
4.2377332283464568
21
-5.6839839763779523
0
LINE
8
BLACK
6
CONTINUOUS
10
4.2377332283464568
20
-5.6839839763779523
11
4.2308832283464568
21
-5.6764520472440942
0
LINE
8
BLACK
6
CONTINUOUS
10
4.2308832283464568
20
-5.6764520472440942
11
4.2307370472440944
21
-5.6762556299212594
0
LINE
8
BLACK
6
CONTINUOUS
10
4.2307370472440944
20
-5.6762556299212594
11
4.2305677165354334
21
-5.6760793700787397
0
LINE
8
BLACK
6
CONTINUOUS
10
4.2305677165354334
20
-5.6760793700787397
11
4.2258890551181105
21
-5.6701388976377949
0
LINE
8
BLACK
6
CONTINUOUS
10
4.2258890551181105
20
-5.6701388976377949
11
4.2258254724409445
21
-5.6700394881889764
0
LINE
8
BLACK
6
CONTINUOUS
10
4.2258254724409445
20
-5.6700394881889764
11
4.2257466535433066
21
-5.669951614173228
0
LINE
8
BLACK
6
CONTINUOUS
10
4.2257466535433066
20
-5.669951614173228
11
4.2242368503937007
21
-5.6678937795275592
0
LINE
8
BLACK
6
CONTINUOUS
10
4.2242368503937007
20
-5.6678937795275592
11
4.2242359055118106
21
-5.6678921653543304
0
LINE
8
BLACK
6
CONTINUOUS
10
4.2242359055118106
20
-5.6678921653543304
11
4.2242346850393702
21
-5.6678908267716537
0
LINE
8
BLACK
6
CONTINUOUS
10
4.2242346850393702
20
-5.6678908267716537
11
4.22268937007874
21
-5.6657822047244091
0
LINE
8
BLACK
6
CONTINUOUS
10
4.22268937007874
20
-5.6657822047244091
11
4.2225533858267719
21
-5.6655523622047239
0
LINE
8
BLACK
6
CONTINUOUS
10
4.2225533858267719
20
-5.6655523622047239
11
4.2223910629921262
21
-5.6653402755905509
0
LINE
8
BLACK
6
CONTINUOUS
10
4.2223910629921262
20
-5.6653402755905509
11
4.2212088188976375
21
-5.6634335826771656
0
LINE
8
BLACK
6
CONTINUOUS
10
4.2212088188976375
20
-5.6634335826771656
11
4.2211791338582678
21
-5.6633732283464564
0
LINE
8
BLACK
6
CONTINUOUS
10
4.2211791338582678
20
-5.6633732283464564
11
4.2211394488188976
21
-5.6633192125984246
0
LINE
8
BLACK
6
CONTINUOUS
10
4.2211394488188976
20
-5.6633192125984246
11
4.22041437007874
21
-5.6620974803149604
0
LINE
8
BLACK
6
CONTINUOUS
10
4.22041437007874
20
-5.6620974803149604
11
4.2203840551181102
21
-5.6620488976377947
0
LINE
8
BLACK
6
CONTINUOUS
10
4.2203840551181102
20
-5.6620488976377947
11
4.2203766141732286
21
-5.6620338582677165
0
LINE
8
BLACK
6
CONTINUOUS
10
4.2203766141732286
20
-5.6620338582677165
11
4.2203753937007873
21
-5.6620318110236223
0
LINE
8
BLACK
6
CONTINUOUS
10
4.2203753937007873
20
-5.6620318110236223
11
4.2203718897637792
21
-5.6620243307086611
0
LINE
8
BLACK
6
CONTINUOUS
10
4.2203718897637792
20
-5.6620243307086611
11
4.2203476377952756
21
-5.66197531496063
0
LINE
8
BLACK
6
CONTINUOUS
10
4.2203476377952756
20
-5.66197531496063
11
4.2202990551181099
21
-5.661909015748031
0
LINE
8
BLACK
6
CONTINUOUS
10
4.2202990551181099
20
-5.661909015748031
11
4.2163416929133861
21
-5.6552173228346456
0
LINE
8
BLACK
6
CONTINUOUS
10
4.2163416929133861
20
-5.6552173228346456
11
4.2161830314960627
21
-5.654876692913386
0
LINE
8
BLACK
6
CONTINUOUS
10
4.2161830314960627
20
-5.654876692913386
11
4.215995078740157
21
-5.6545508267716533
0
LINE
8
BLACK
6
CONTINUOUS
10
4.215995078740157
20
-5.6545508267716533
11
4.2153414566929133
21
-5.6531065748031493
0
LINE
8
BLACK
6
CONTINUOUS
10
4.2153414566929133
20
-5.6531065748031493
11
4.2123661023622043
21
-5.6469778740157475
0
LINE
8
BLACK
6
CONTINUOUS
10
4.2123661023622043
20
-5.6469778740157475
11
4.2122966929133856
21
-5.6467899606299214
0
LINE
8
BLACK
6
CONTINUOUS
10
4.2122966929133856
20
-5.6467899606299214
11
4.2122019685039369
21
-5.6466132677165355
0
LINE
8
BLACK
6
CONTINUOUS
10
4.2122019685039369
20
-5.6466132677165355
11
4.2095418897637797
21
-5.6402133858267716
0
LINE
8
BLACK
6
CONTINUOUS
10
4.2095418897637797
20
-5.6402133858267716
11
4.2094831496062994
21
-5.6400206299212599
0
LINE
8
BLACK
6
CONTINUOUS
10
4.2094831496062994
20
-5.6400206299212599
11
4.2093984251968504
21
-5.639837677165354
0
LINE
8
BLACK
6
CONTINUOUS
10
4.2093984251968504
20
-5.639837677165354
11
4.2071505118110233
21
-5.6333916535433071
0
LINE
8
BLACK
6
CONTINUOUS
10
4.2071505118110233
20
-5.6333916535433071
11
4.2071028740157477
21
-5.6331947244094485
0
LINE
8
BLACK
6
CONTINUOUS
10
4.2071028740157477
20
-5.6331947244094485
11
4.2070287007874017
21
-5.6330063385826774
0
LINE
8
BLACK
6
CONTINUOUS
10
4.2070287007874017
20
-5.6330063385826774
11
4.2051511023622048
21
-5.626399409448819
0
LINE
8
BLACK
6
CONTINUOUS
10
4.2051511023622048
20
-5.626399409448819
11
4.2051150000000002
21
-5.6261996850393698
0
LINE
8
BLACK
6
CONTINUOUS
10
4.2051150000000002
20
-5.6261996850393698
11
4.2050518110236217
21
-5.6260064960629919
0
LINE
8
BLACK
6
CONTINUOUS
10
4.2050518110236217
20
-5.6260064960629919
11
4.2035840551181103
21
-5.6193823228346451
0
LINE
8
BLACK
6
CONTINUOUS
10
4.2035840551181103
20
-5.6193823228346451
11
4.2035597244094491
21
-5.6191805905511814
0
LINE
8
BLACK
6
CONTINUOUS
10
4.2035597244094491
20
-5.6191805905511814
11
4.2035079921259841
21
-5.618983937007874
0
LINE
8
BLACK
6
CONTINUOUS
10
4.2035079921259841
20
-5.618983937007874
11
4.2024225984251968
21
-5.6122229527559053
0
LINE
8
BLACK
6
CONTINUOUS
10
4.2024225984251968
20
-5.6122229527559053
11
4.2024101968503933
21
-5.6120200000000002
0
LINE
8
BLACK
6
CONTINUOUS
10
4.2024101968503933
20
-5.6120200000000002
11
4.2023701968503939
21
-5.6118211811023624
0
LINE
8
BLACK
6
CONTINUOUS
10
4.2023701968503939
20
-5.6118211811023624
11
4.2016894094488189
21
-5.6050608661417325
0
LINE
8
BLACK
6
CONTINUOUS
10
4.2016894094488189
20
-5.6050608661417325
11
4.2016889370078738
21
-5.6048586614173228
0
LINE
8
BLACK
6
CONTINUOUS
10
4.2016889370078738
20
-5.6048586614173228
11
4.2016607480314958
21
-5.6046583858267711
0
LINE
8
BLACK
6
CONTINUOUS
10
4.2016607480314958
20
-5.6046583858267711
11
4.2013732677165354
21
-5.5977829921259845
0
LINE
8
BLACK
6
CONTINUOUS
10
4.2013732677165354
20
-5.5977829921259845
11
4.2013801574803145
21
-5.5976605118110232
0
LINE
8
BLACK
6
CONTINUOUS
10
4.2013801574803145
20
-5.5976605118110232
11
4.2013673622047243
21
-5.5975382677165353
0
LINE
8
BLACK
6
CONTINUOUS
10
4.2013673622047243
20
-5.5975382677165353
11
4.2013581102362201
21
-5.5960598031496058
0
LINE
8
BLACK
6
CONTINUOUS
10
4.2013581102362201
20
-5.5960598031496058
11
4.2013600787401577
21
-5.596038149606299
0
LINE
8
BLACK
6
CONTINUOUS
10
4.2013600787401577
20
-5.596038149606299
11
4.2013579921259838
21
-5.5960166929133859
0
LINE
8
BLACK
6
CONTINUOUS
10
4.2013579921259838
20
-5.5960166929133859
11
4.2013579921259838
21
-5.3719933464566925
0
LINE
8
BLACK
6
CONTINUOUS
10
4.2013579921259838
20
-5.3719933464566925
11
4.2013579921259838
21
-5.37171531496063
0
LINE
8
BLACK
6
CONTINUOUS
10
4.2013579921259838
20
-5.37171531496063
11
4.2013580708661413
21
-5.37171437007874
0
LINE
8
BLACK
6
CONTINUOUS
10
4.2013580708661413
20
-5.37171437007874
11
4.2013579921259838
21
-5.3717134251968499
0
LINE
8
BLACK
6
CONTINUOUS
10
4.2013579921259838
20
-5.3717134251968499
11
4.2017716535433074
21
-3.8700768503937009
0
LINE
8
BLACK
6
CONTINUOUS
10
4.2017716535433074
20
-3.8700768503937009
11
4.2017716535433074
21
-3.8700768110236221
0
LINE
8
BLACK
6
CONTINUOUS
10
4.2017716535433074
20
-3.8700768110236221
11
4.2020497244094486
21
-2.0465031889763781
0
LINE
8
BLACK
6
CONTINUOUS
10
4.2020497244094486
20
-2.0465031889763781
11
4.2020690157480312
21
-2.0463075590551179
0
LINE
8
BLACK
6
CONTINUOUS
10
4.2020690157480312
20
-2.0463075590551179
11
4.2020609448818895
21
-2.0461112992125985
0
LINE
8
BLACK
6
CONTINUOUS
10
4.2020609448818895
20
-2.0461112992125985
11
4.2028341338582678
21
-2.0325762992125984
0
LINE
8
BLACK
6
CONTINUOUS
10
4.2028341338582678
20
-2.0325762992125984
11
4.2028953937007874
21
-2.0321847637795276
0
LINE
8
BLACK
6
CONTINUOUS
10
4.2028953937007874
20
-2.0321847637795276
11
4.2029246456692908
21
-2.0317896456692912
0
LINE
8
BLACK
6
CONTINUOUS
10
4.2029246456692908
20
-2.0317896456692912
11
4.2052293700787402
21
-2.0185265354330708
0
LINE
8
BLACK
6
CONTINUOUS
10
4.2052293700787402
20
-2.0185265354330708
11
4.2053355118110236
21
-2.0181432677165354
0
LINE
8
BLACK
6
CONTINUOUS
10
4.2053355118110236
20
-2.0181432677165354
11
4.2054104724409447
21
-2.0177522440944879
0
LINE
8
BLACK
6
CONTINUOUS
10
4.2054104724409447
20
-2.0177522440944879
11
4.2092214173228344
21
-2.0048653149606297
0
LINE
8
BLACK
6
CONTINUOUS
10
4.2092214173228344
20
-2.0048653149606297
11
4.2093712204724412
21
-2.0044963779527558
0
LINE
8
BLACK
6
CONTINUOUS
10
4.2093712204724412
20
-2.0044963779527558
11
4.209490748031496
21
-2.0041166141732285
0
LINE
8
BLACK
6
CONTINUOUS
10
4.209490748031496
20
-2.0041166141732285
11
4.2147727559055115
21
-1.991729842519685
0
LINE
8
BLACK
6
CONTINUOUS
10
4.2147727559055115
20
-1.991729842519685
11
4.2149637007874015
21
-1.9913812992125983
0
LINE
8
BLACK
6
CONTINUOUS
10
4.2149637007874015
20
-1.9913812992125983
11
4.2151260236220471
21
-1.9910181496062991
0
LINE
8
BLACK
6
CONTINUOUS
10
4.2151260236220471
20
-1.9910181496062991
11
4.2218267322834642
21
-1.9792733858267717
0
LINE
8
BLACK
6
CONTINUOUS
10
4.2218267322834642
20
-1.9792733858267717
11
4.2220561811023618
21
-1.97894968503937
0
LINE
8
BLACK
6
CONTINUOUS
10
4.2220561811023618
20
-1.97894968503937
11
4.2222588188976378
21
-1.9786081496062993
0
LINE
8
BLACK
6
CONTINUOUS
10
4.2222588188976378
20
-1.9786081496062993
11
4.2303026377952753
21
-1.9676602755905512
0
LINE
8
BLACK
6
CONTINUOUS
10
4.2303026377952753
20
-1.9676602755905512
11
4.2305672834645671
21
-1.9673655905511811
0
LINE
8
BLACK
6
CONTINUOUS
10
4.2305672834645671
20
-1.9673655905511811
11
4.2308077952755907
21
-1.9670496456692912
0
LINE
8
BLACK
6
CONTINUOUS
10
4.2308077952755907
20
-1.9670496456692912
11
4.2400923622047246
21
-1.9570583858267716
0
LINE
8
BLACK
6
CONTINUOUS
10
4.2400923622047246
20
-1.9570583858267716
11
4.2403155511811024
21
-1.9568610629921259
0
LINE
8
BLACK
6
CONTINUOUS
10
4.2403155511811024
20
-1.9568610629921259
11
4.2405156299212594
21
-1.9566406299212598
0
LINE
8
BLACK
6
CONTINUOUS
10
4.2405156299212594
20
-1.9566406299212598
11
4.2455835433070863
21
-1.9520529921259842
0
LINE
8
BLACK
6
CONTINUOUS
10
4.2455835433070863
20
-1.9520529921259842
11
4.245743464566929
21
-1.9519344881889764
0
LINE
8
BLACK
6
CONTINUOUS
10
4.245743464566929
20
-1.9519344881889764
11
4.245885551181102
21
-1.9517950393700787
0
LINE
8
BLACK
6
CONTINUOUS
10
4.245885551181102
20
-1.9517950393700787
11
4.2512147244094489
21
-1.9475027559055118
0
LINE
8
BLACK
6
CONTINUOUS
10
4.2512147244094489
20
-1.9475027559055118
11
4.2513812598425194
21
-1.9473936614173228
0
LINE
8
BLACK
6
CONTINUOUS
10
4.2513812598425194
20
-1.9473936614173228
11
4.2515313385826774
21
-1.9472624409448818
0
LINE
8
BLACK
6
CONTINUOUS
10
4.2515313385826774
20
-1.9472624409448818
11
4.2570946850393696
21
-1.9432878346456692
0
LINE
8
BLACK
6
CONTINUOUS
10
4.2570946850393696
20
-1.9432878346456692
11
4.2572679133858271
21
-1.9431881102362205
0
LINE
8
BLACK
6
CONTINUOUS
10
4.2572679133858271
20
-1.9431881102362205
11
4.2574254724409446
21
-1.9430657086614174
0
LINE
8
BLACK
6
CONTINUOUS
10
4.2574254724409446
20
-1.9430657086614174
11
4.2632226377952751
21
-1.9394109055118109
0
LINE
8
BLACK
6
CONTINUOUS
10
4.2632226377952751
20
-1.9394109055118109
11
4.263401417322835
21
-1.9393213385826771
0
LINE
8
BLACK
6
CONTINUOUS
10
4.263401417322835
20
-1.9393213385826771
11
4.2635662204724412
21
-1.9392079527559054
0
LINE
8
BLACK
6
CONTINUOUS
10
4.2635662204724412
20
-1.9392079527559054
11
4.2695452362204724
21
-1.9359059448818898
0
LINE
8
BLACK
6
CONTINUOUS
10
4.2695452362204724
20
-1.9359059448818898
11
4.2697291338582675
21
-1.9358267716535433
0
LINE
8
BLACK
6
CONTINUOUS
10
4.2697291338582675
20
-1.9358267716535433
11
4.2699007480314961
21
-1.9357228346456692
0
LINE
8
BLACK
6
CONTINUOUS
10
4.2699007480314961
20
-1.9357228346456692
11
4.2760849212598426
21
-1.9327620078740158
0
LINE
8
BLACK
6
CONTINUOUS
10
4.2760849212598426
20
-1.9327620078740158
11
4.2762735433070862
21
-1.9326934645669291
0
LINE
8
BLACK
6
CONTINUOUS
10
4.2762735433070862
20
-1.9326934645669291
11
4.276451062992126
21
-1.9325996062992126
0
LINE
8
BLACK
6
CONTINUOUS
10
4.276451062992126
20
-1.9325996062992126
11
4.2827648031496066
21
-1.9300161811023622
0
LINE
8
BLACK
6
CONTINUOUS
10
4.2827648031496066
20
-1.9300161811023622
11
4.2829573622047246
21
-1.9299586614173228
0
LINE
8
BLACK
6
CONTINUOUS
10
4.2829573622047246
20
-1.9299586614173228
11
4.2831403543307083
21
-1.9298751181102363
0
LINE
8
BLACK
6
CONTINUOUS
10
4.2831403543307083
20
-1.9298751181102363
11
4.2896303543307086
21
-1.9276510236220472
0
LINE
8
BLACK
6
CONTINUOUS
10
4.2896303543307086
20
-1.9276510236220472
11
4.2898261417322834
21
-1.9276047637795275
0
LINE
8
BLACK
6
CONTINUOUS
10
4.2898261417322834
20
-1.9276047637795275
11
4.290013622047244
21
-1.9275320472440944
0
LINE
8
BLACK
6
CONTINUOUS
10
4.290013622047244
20
-1.9275320472440944
11
4.2965852755905507
21
-1.9256998818897637
0
LINE
8
BLACK
6
CONTINUOUS
10
4.2965852755905507
20
-1.9256998818897637
11
4.2967834251968506
21
-1.9256650787401575
0
LINE
8
BLACK
6
CONTINUOUS
10
4.2967834251968506
20
-1.9256650787401575
11
4.2969749212598423
21
-1.9256033858267716
0
LINE
8
BLACK
6
CONTINUOUS
10
4.2969749212598423
20
-1.9256033858267716
11
4.303694409448819
21
-1.9241457480314961
0
LINE
8
BLACK
6
CONTINUOUS
10
4.303694409448819
20
-1.9241457480314961
11
4.3038938582677169
21
-1.9241225984251968
0
LINE
8
BLACK
6
CONTINUOUS
10
4.3038938582677169
20
-1.9241225984251968
11
4.3040885039370078
21
-1.9240721653543307
0
LINE
8
BLACK
6
CONTINUOUS
10
4.3040885039370078
20
-1.9240721653543307
11
4.310848937007874
21
-1.9230129133858267
0
LINE
8
BLACK
6
CONTINUOUS
10
4.310848937007874
20
-1.9230129133858267
11
4.311049173228346
21
-1.9230014173228347
0
LINE
8
BLACK
6
CONTINUOUS
10
4.311049173228346
20
-1.9230014173228347
11
4.3112457086614171
21
-1.9229625196850393
0
LINE
8
BLACK
6
CONTINUOUS
10
4.3112457086614171
20
-1.9229625196850393
11
4.3181268110236219
21
-1.9222904724409449
0
LINE
8
BLACK
6
CONTINUOUS
10
4.3181268110236219
20
-1.9222904724409449
11
4.3183452362204724
21
-1.9222906299212599
0
LINE
8
BLACK
6
CONTINUOUS
10
4.3183452362204724
20
-1.9222906299212599
11
4.3185617322834648
21
-1.9222618503937008
0
LINE
8
BLACK
6
CONTINUOUS
10
4.3185617322834648
20
-1.9222618503937008
11
4.3267580314960625
21
-1.921982401574803
0
LINE
8
BLACK
6
CONTINUOUS
10
4.3267580314960625
20
-1.921982401574803
11
4.3268754724409444
21
-1.9219899212598426
0
LINE
8
BLACK
6
CONTINUOUS
10
4.3268754724409444
20
-1.9219899212598426
11
4.3269927952755909
21
-1.9219783858267716
0
LINE
8
BLACK
6
CONTINUOUS
10
4.3269927952755909
20
-1.9219783858267716
11
4.7155151181102362
21
-1.9219783858267716
0
LINE
8
BLACK
6
CONTINUOUS
10
4.7155151181102362
20
-1.9219783858267716
11
4.7155151181102362
21
-1.8967854724409448
0
LINE
8
BLACK
6
CONTINUOUS
10
4.7155151181102362
20
-1.8967854724409448
11
4.71553437007874
21
-1.8965896456692912
0
LINE
8
BLACK
6
CONTINUOUS
10
4.71553437007874
20
-1.8965896456692912
11
4.7155262992125984
21
-1.8963930708661416
0
LINE
8
BLACK
6
CONTINUOUS
10
4.7155262992125984
20
-1.8963930708661416
11
4.7162995669291341
21
-1.8828379133858266
0
LINE
8
BLACK
6
CONTINUOUS
10
4.7162995669291341
20
-1.8828379133858266
11
4.7163607086614174
21
-1.8824468110236221
0
LINE
8
BLACK
6
CONTINUOUS
10
4.7163607086614174
20
-1.8824468110236221
11
4.7163898425196846
21
-1.882052401574803
0
LINE
8
BLACK
6
CONTINUOUS
10
4.7163898425196846
20
-1.882052401574803
11
4.7186949606299216
21
-1.8687677165354331
0
LINE
8
BLACK
6
CONTINUOUS
10
4.7186949606299216
20
-1.8687677165354331
11
4.7188009842519687
21
-1.8683845669291339
0
LINE
8
BLACK
6
CONTINUOUS
10
4.7188009842519687
20
-1.8683845669291339
11
4.718875590551181
21
-1.8679944881889763
0
LINE
8
BLACK
6
CONTINUOUS
10
4.718875590551181
20
-1.8679944881889763
11
4.722687125984252
21
-1.855086338582677
0
LINE
8
BLACK
6
CONTINUOUS
10
4.722687125984252
20
-1.855086338582677
11
4.7228366141732279
21
-1.8547177165354329
0
LINE
8
BLACK
6
CONTINUOUS
10
4.7228366141732279
20
-1.8547177165354329
11
4.7229557874015748
21
-1.8543383858267717
0
LINE
8
BLACK
6
CONTINUOUS
10
4.7229557874015748
20
-1.8543383858267717
11
4.7282381102362203
21
-1.8419323228346456
0
LINE
8
BLACK
6
CONTINUOUS
10
4.7282381102362203
20
-1.8419323228346456
11
4.7284287401574803
21
-1.8415838976377952
0
LINE
8
BLACK
6
CONTINUOUS
10
4.7284287401574803
20
-1.8415838976377952
11
4.7285906692913384
21
-1.8412210236220472
0
LINE
8
BLACK
6
CONTINUOUS
10
4.7285906692913384
20
-1.8412210236220472
11
4.7352905905511813
21
-1.8294601968503936
0
LINE
8
BLACK
6
CONTINUOUS
10
4.7352905905511813
20
-1.8294601968503936
11
4.7355198031496064
21
-1.8291363779527559
0
LINE
8
BLACK
6
CONTINUOUS
10
4.7355198031496064
20
-1.8291363779527559
11
4.735722047244094
21
-1.8287949999999999
0
LINE
8
BLACK
6
CONTINUOUS
10
4.735722047244094
20
-1.8287949999999999
11
4.7437631496062993
21
-1.8178349999999999
0
LINE
8
BLACK
6
CONTINUOUS
10
4.7437631496062993
20
-1.8178349999999999
11
4.7440279527559053
21
-1.8175397244094489
0
LINE
8
BLACK
6
CONTINUOUS
10
4.7440279527559053
20
-1.8175397244094489
11
4.7442679527559051
21
-1.8172240157480315
0
LINE
8
BLACK
6
CONTINUOUS
10
4.7442679527559051
20
-1.8172240157480315
11
4.7535473228346454
21
-1.8072246062992126
0
LINE
8
BLACK
6
CONTINUOUS
10
4.7535473228346454
20
-1.8072246062992126
11
4.7537703149606294
21
-1.8070272047244094
0
LINE
8
BLACK
6
CONTINUOUS
10
4.7537703149606294
20
-1.8070272047244094
11
4.7539704330708661
21
-1.8068064173228346
0
LINE
8
BLACK
6
CONTINUOUS
10
4.7539704330708661
20
-1.8068064173228346
11
4.7590342519685036
21
-1.8022164173228346
0
LINE
8
BLACK
6
CONTINUOUS
10
4.7590342519685036
20
-1.8022164173228346
11
4.7591941338582675
21
-1.8020977952755906
0
LINE
8
BLACK
6
CONTINUOUS
10
4.7591941338582675
20
-1.8020977952755906
11
4.7593362598425193
21
-1.8019581102362203
0
LINE
8
BLACK
6
CONTINUOUS
10
4.7593362598425193
20
-1.8019581102362203
11
4.7646616929133856
21
-1.7976633858267717
0
LINE
8
BLACK
6
CONTINUOUS
10
4.7646616929133856
20
-1.7976633858267717
11
4.7648283070866144
21
-1.7975540944881889
0
LINE
8
BLACK
6
CONTINUOUS
10
4.7648283070866144
20
-1.7975540944881889
11
4.7649784251968503
21
-1.7974226771653543
0
LINE
8
BLACK
6
CONTINUOUS
10
4.7649784251968503
20
-1.7974226771653543
11
4.7705366535433074
21
-1.7934468897637794
0
LINE
8
BLACK
6
CONTINUOUS
10
4.7705366535433074
20
-1.7934468897637794
11
4.7707098031496065
21
-1.7933470866141732
0
LINE
8
BLACK
6
CONTINUOUS
10
4.7707098031496065
20
-1.7933470866141732
11
4.770867519685039
21
-1.7932244094488188
0
LINE
8
BLACK
6
CONTINUOUS
10
4.770867519685039
20
-1.7932244094488188
11
4.7766600787401572
21
-1.7895681889763779
0
LINE
8
BLACK
6
CONTINUOUS
10
4.7766600787401572
20
-1.7895681889763779
11
4.7768388188976374
21
-1.7894785039370078
0
LINE
8
BLACK
6
CONTINUOUS
10
4.7768388188976374
20
-1.7894785039370078
11
4.7770038188976374
21
-1.7893648818897638
0
LINE
8
BLACK
6
CONTINUOUS
10
4.7770038188976374
20
-1.7893648818897638
11
4.7829772047244097
21
-1.7860622047244095
0
LINE
8
BLACK
6
CONTINUOUS
10
4.7829772047244097
20
-1.7860622047244095
11
4.7831613385826772
21
-1.7859828346456692
0
LINE
8
BLACK
6
CONTINUOUS
10
4.7831613385826772
20
-1.7859828346456692
11
4.783332952755905
21
-1.785878779527559
0
LINE
8
BLACK
6
CONTINUOUS
10
4.783332952755905
20
-1.785878779527559
11
4.7895122440944879
21
-1.7829168897637795
0
LINE
8
BLACK
6
CONTINUOUS
10
4.7895122440944879
20
-1.7829168897637795
11
4.7897009448818899
21
-1.7828482283464566
0
LINE
8
BLACK
6
CONTINUOUS
10
4.7897009448818899
20
-1.7828482283464566
11
4.789878582677165
21
-1.7827542125984253
0
LINE
8
BLACK
6
CONTINUOUS
10
4.789878582677165
20
-1.7827542125984253
11
4.7961872834645671
21
-1.7801699606299213
0
LINE
8
BLACK
6
CONTINUOUS
10
4.7961872834645671
20
-1.7801699606299213
11
4.7963798818897638
21
-1.7801123228346456
0
LINE
8
BLACK
6
CONTINUOUS
10
4.7963798818897638
20
-1.7801123228346456
11
4.7965630314960626
21
-1.7800286614173229
0
LINE
8
BLACK
6
CONTINUOUS
10
4.7965630314960626
20
-1.7800286614173229
11
4.8030489370078735
21
-1.7778034251968504
0
LINE
8
BLACK
6
CONTINUOUS
10
4.8030489370078735
20
-1.7778034251968504
11
4.8032446850393704
21
-1.7777570866141732
0
LINE
8
BLACK
6
CONTINUOUS
10
4.8032446850393704
20
-1.7777570866141732
11
4.8034324015748027
21
-1.7776842125984251
0
LINE
8
BLACK
6
CONTINUOUS
10
4.8034324015748027
20
-1.7776842125984251
11
4.8100006692913384
21
-1.7758507086614173
0
LINE
8
BLACK
6
CONTINUOUS
10
4.8100006692913384
20
-1.7758507086614173
11
4.8101988188976375
21
-1.7758158661417323
0
LINE
8
BLACK
6
CONTINUOUS
10
4.8101988188976375
20
-1.7758158661417323
11
4.8103904330708662
21
-1.7757540551181101
0
LINE
8
BLACK
6
CONTINUOUS
10
4.8103904330708662
20
-1.7757540551181101
11
4.8171077952755903
21
-1.7742947244094487
0
LINE
8
BLACK
6
CONTINUOUS
10
4.8171077952755903
20
-1.7742947244094487
11
4.8173073228346457
21
-1.7742714960629922
0
LINE
8
BLACK
6
CONTINUOUS
10
4.8173073228346457
20
-1.7742714960629922
11
4.8175019291338579
21
-1.7742210236220473
0
LINE
8
BLACK
6
CONTINUOUS
10
4.8175019291338579
20
-1.7742210236220473
11
4.8242619685039365
21
-1.7731597637795276
0
LINE
8
BLACK
6
CONTINUOUS
10
4.8242619685039365
20
-1.7731597637795276
11
4.8244622047244095
21
-1.7731482283464566
0
LINE
8
BLACK
6
CONTINUOUS
10
4.8244622047244095
20
-1.7731482283464566
11
4.8246587007874018
21
-1.7731092519685039
0
LINE
8
BLACK
6
CONTINUOUS
10
4.8246587007874018
20
-1.7731092519685039
11
4.8315409842519683
21
-1.7724349606299212
0
LINE
8
BLACK
6
CONTINUOUS
10
4.8315409842519683
20
-1.7724349606299212
11
4.8317600000000001
21
-1.7724350393700787
0
LINE
8
BLACK
6
CONTINUOUS
10
4.8317600000000001
20
-1.7724350393700787
11
4.8319769685039367
21
-1.7724061811023621
0
LINE
8
BLACK
6
CONTINUOUS
10
4.8319769685039367
20
-1.7724061811023621
11
4.8402223622047247
21
-1.7721237795275591
0
LINE
8
BLACK
6
CONTINUOUS
10
4.8402223622047247
20
-1.7721237795275591
11
4.8403403149606294
21
-1.7721312992125984
0
LINE
8
BLACK
6
CONTINUOUS
10
4.8403403149606294
20
-1.7721312992125984
11
4.8404581889763776
21
-1.7721197244094489
0
LINE
8
BLACK
6
CONTINUOUS
10
4.8404581889763776
20
-1.7721197244094489
11
5.1214248031496066
21
-1.7721197244094489
0
LINE
8
BLACK
6
CONTINUOUS
10
5.1214248031496066
20
-1.7721197244094489
11
5.1216198818897638
21
-1.7721389370078739
0
LINE
8
BLACK
6
CONTINUOUS
10
5.1216198818897638
20
-1.7721389370078739
11
5.1218155905511811
21
-1.7721308267716536
0
LINE
8
BLACK
6
CONTINUOUS
10
5.1218155905511811
20
-1.7721308267716536
11
5.1354249212598422
21
-1.7729040157480314
0
LINE
8
BLACK
6
CONTINUOUS
10
5.1354249212598422
20
-1.7729040157480314
11
5.1358142913385825
21
-1.7729648031496064
0
LINE
8
BLACK
6
CONTINUOUS
10
5.1358142913385825
20
-1.7729648031496064
11
5.1362075984251971
21
-1.7729935826771652
0
LINE
8
BLACK
6
CONTINUOUS
10
5.1362075984251971
20
-1.7729935826771652
11
5.1495387401574799
21
-1.7752978346456691
0
LINE
8
BLACK
6
CONTINUOUS
10
5.1495387401574799
20
-1.7752978346456691
11
5.1499206299212599
21
-1.7754032283464567
0
LINE
8
BLACK
6
CONTINUOUS
10
5.1499206299212599
20
-1.7754032283464567
11
5.1503098425196852
21
-1.7754772834645669
0
LINE
8
BLACK
6
CONTINUOUS
10
5.1503098425196852
20
-1.7754772834645669
11
5.1632573228346459
21
-1.7792864173228347
0
LINE
8
BLACK
6
CONTINUOUS
10
5.1632573228346459
20
-1.7792864173228347
11
5.1636249606299209
21
-1.7794350787401574
0
LINE
8
BLACK
6
CONTINUOUS
10
5.1636249606299209
20
-1.7794350787401574
11
5.1640037401574803
21
-1.7795535433070866
0
LINE
8
BLACK
6
CONTINUOUS
10
5.1640037401574803
20
-1.7795535433070866
11
5.1764426377952759
21
-1.784831062992126
0
LINE
8
BLACK
6
CONTINUOUS
10
5.1764426377952759
20
-1.784831062992126
11
5.1767909055118109
21
-1.7850210629921259
0
LINE
8
BLACK
6
CONTINUOUS
10
5.1767909055118109
20
-1.7850210629921259
11
5.1771531496062995
21
-1.7851820472440945
0
LINE
8
BLACK
6
CONTINUOUS
10
5.1771531496062995
20
-1.7851820472440945
11
5.188941062992126
21
-1.7918742519685038
0
LINE
8
BLACK
6
CONTINUOUS
10
5.188941062992126
20
-1.7918742519685038
11
5.1892646850393698
21
-1.7921026377952756
0
LINE
8
BLACK
6
CONTINUOUS
10
5.1892646850393698
20
-1.7921026377952756
11
5.1896061811023619
21
-1.7923041732283465
0
LINE
8
BLACK
6
CONTINUOUS
10
5.1896061811023619
20
-1.7923041732283465
11
5.2005881889763774
21
-1.8003340944881889
0
LINE
8
BLACK
6
CONTINUOUS
10
5.2005881889763774
20
-1.8003340944881889
11
5.2008837007874016
21
-1.8005983070866141
0
LINE
8
BLACK
6
CONTINUOUS
10
5.2008837007874016
20
-1.8005983070866141
11
5.2011996456692913
21
-1.8008375984251968
0
LINE
8
BLACK
6
CONTINUOUS
10
5.2011996456692913
20
-1.8008375984251968
11
5.2112166141732281
21
-1.8101020078740158
0
LINE
8
BLACK
6
CONTINUOUS
10
5.2112166141732281
20
-1.8101020078740158
11
5.2114143700787396
21
-1.8103246456692912
0
LINE
8
BLACK
6
CONTINUOUS
10
5.2114143700787396
20
-1.8103246456692912
11
5.2116354330708656
21
-1.8105243307086614
0
LINE
8
BLACK
6
CONTINUOUS
10
5.2116354330708656
20
-1.8105243307086614
11
5.2162328346456688
21
-1.8155791338582676
0
LINE
8
BLACK
6
CONTINUOUS
10
5.2162328346456688
20
-1.8155791338582676
11
5.2163518503937008
21
-1.8157390551181103
0
LINE
8
BLACK
6
CONTINUOUS
10
5.2163518503937008
20
-1.8157390551181103
11
5.2164917716535433
21
-1.815880905511811
0
LINE
8
BLACK
6
CONTINUOUS
10
5.2164917716535433
20
-1.815880905511811
11
5.2207927952755906
21
-1.821196062992126
0
LINE
8
BLACK
6
CONTINUOUS
10
5.2207927952755906
20
-1.821196062992126
11
5.2209024015748033
21
-1.8213625984251969
0
LINE
8
BLACK
6
CONTINUOUS
10
5.2209024015748033
20
-1.8213625984251969
11
5.221034133858268
21
-1.821512559055118
0
LINE
8
BLACK
6
CONTINUOUS
10
5.221034133858268
20
-1.821512559055118
11
5.225015472440945
21
-1.8270594488188976
0
LINE
8
BLACK
6
CONTINUOUS
10
5.225015472440945
20
-1.8270594488188976
11
5.225115590551181
21
-1.8272325590551182
0
LINE
8
BLACK
6
CONTINUOUS
10
5.225115590551181
20
-1.8272325590551182
11
5.2252387401574802
21
-1.8273903149606299
0
LINE
8
BLACK
6
CONTINUOUS
10
5.2252387401574802
20
-1.8273903149606299
11
5.228899566929134
21
-1.8331700787401575
0
LINE
8
BLACK
6
CONTINUOUS
10
5.228899566929134
20
-1.8331700787401575
11
5.2289896850393696
21
-1.8333490551181102
0
LINE
8
BLACK
6
CONTINUOUS
10
5.2289896850393696
20
-1.8333490551181102
11
5.2291036220472442
21
-1.8335139370078739
0
LINE
8
BLACK
6
CONTINUOUS
10
5.2291036220472442
20
-1.8335139370078739
11
5.2324102755905511
21
-1.8394733858267716
0
LINE
8
BLACK
6
CONTINUOUS
10
5.2324102755905511
20
-1.8394733858267716
11
5.2324900787401569
21
-1.8396578740157481
0
LINE
8
BLACK
6
CONTINUOUS
10
5.2324900787401569
20
-1.8396578740157481
11
5.2325945275590549
21
-1.839829527559055
0
LINE
8
BLACK
6
CONTINUOUS
10
5.2325945275590549
20
-1.839829527559055
11
5.2355594881889767
21
-1.8459933070866141
0
LINE
8
BLACK
6
CONTINUOUS
10
5.2355594881889767
20
-1.8459933070866141
11
5.2356285433070866
21
-1.8461824409448819
0
LINE
8
BLACK
6
CONTINUOUS
10
5.2356285433070866
20
-1.8461824409448819
11
5.2357229527559053
21
-1.846360157480315
0
LINE
8
BLACK
6
CONTINUOUS
10
5.2357229527559053
20
-1.846360157480315
11
5.2383096456692915
21
-1.8526519291338581
0
LINE
8
BLACK
6
CONTINUOUS
10
5.2383096456692915
20
-1.8526519291338581
11
5.2383676771653542
21
-1.8528450787401574
0
LINE
8
BLACK
6
CONTINUOUS
10
5.2383676771653542
20
-1.8528450787401574
11
5.2384516929133857
21
-1.8530283464566928
0
LINE
8
BLACK
6
CONTINUOUS
10
5.2384516929133857
20
-1.8530283464566928
11
5.2406788582677164
21
-1.8594955511811022
0
LINE
8
BLACK
6
CONTINUOUS
10
5.2406788582677164
20
-1.8594955511811022
11
5.2407255511811019
21
-1.8596919291338583
0
LINE
8
BLACK
6
CONTINUOUS
10
5.2407255511811019
20
-1.8596919291338583
11
5.2407987795275588
21
-1.8598799606299212
0
LINE
8
BLACK
6
CONTINUOUS
10
5.2407987795275588
20
-1.8598799606299212
11
5.2426335433070861
21
-1.8664279133858268
0
LINE
8
BLACK
6
CONTINUOUS
10
5.2426335433070861
20
-1.8664279133858268
11
5.2426686614173228
21
-1.8666266929133857
0
LINE
8
BLACK
6
CONTINUOUS
10
5.2426686614173228
20
-1.8666266929133857
11
5.2427308267716537
21
-1.8668187401574803
0
LINE
8
BLACK
6
CONTINUOUS
10
5.2427308267716537
20
-1.8668187401574803
11
5.2441909842519685
21
-1.8735138976377952
0
LINE
8
BLACK
6
CONTINUOUS
10
5.2441909842519685
20
-1.8735138976377952
11
5.2442144094488183
21
-1.8737141338582677
0
LINE
8
BLACK
6
CONTINUOUS
10
5.2442144094488183
20
-1.8737141338582677
11
5.2442651968503933
21
-1.8739092913385826
0
LINE
8
BLACK
6
CONTINUOUS
10
5.2442651968503933
20
-1.8739092913385826
11
5.2453269291338582
21
-1.8806451968503937
0
LINE
8
BLACK
6
CONTINUOUS
10
5.2453269291338582
20
-1.8806451968503937
11
5.2453386220472442
21
-1.8808461811023622
0
LINE
8
BLACK
6
CONTINUOUS
10
5.2453386220472442
20
-1.8808461811023622
11
5.2453778346456694
21
-1.8810434251968504
0
LINE
8
BLACK
6
CONTINUOUS
10
5.2453778346456694
20
-1.8810434251968504
11
5.2460523228346458
21
-1.8878996062992126
0
LINE
8
BLACK
6
CONTINUOUS
10
5.2460523228346458
20
-1.8878996062992126
11
5.2460522834645671
21
-1.8881192125984252
0
LINE
8
BLACK
6
CONTINUOUS
10
5.2460522834645671
20
-1.8881192125984252
11
5.2460813779527555
21
-1.8883372834645669
0
LINE
8
BLACK
6
CONTINUOUS
10
5.2460813779527555
20
-1.8883372834645669
11
5.2463638188976374
21
-1.8965486220472441
0
LINE
8
BLACK
6
CONTINUOUS
10
5.2463638188976374
20
-1.8965486220472441
11
5.2463562204724408
21
-1.8966672834645668
0
LINE
8
BLACK
6
CONTINUOUS
10
5.2463562204724408
20
-1.8966672834645668
11
5.246367874015748
21
-1.8967854724409448
0
LINE
8
BLACK
6
CONTINUOUS
10
5.246367874015748
20
-1.8967854724409448
11
5.246367874015748
21
-1.9219783858267716
0
LINE
8
BLACK
6
CONTINUOUS
10
5.246367874015748
20
-1.9219783858267716
11
6.0222627952755907
21
-1.9219783858267716
0
LINE
8
BLACK
6
CONTINUOUS
10
6.0222627952755907
20
-1.9219783858267716
11
6.0227995275590551
21
-1.9125766535433071
0
LINE
8
BLACK
6
CONTINUOUS
10
6.0227995275590551
20
-1.9125766535433071
11
6.022860748031496
21
-1.9121852362204723
0
LINE
8
BLACK
6
CONTINUOUS
10
6.022860748031496
20
-1.9121852362204723
11
6.0228900000000003
21
-1.9117900787401574
0
LINE
8
BLACK
6
CONTINUOUS
10
6.0228900000000003
20
-1.9117900787401574
11
6.0251925984251971
21
-1.8985358267716534
0
LINE
8
BLACK
6
CONTINUOUS
10
6.0251925984251971
20
-1.8985358267716534
11
6.0252987795275592
21
-1.8981524409448818
0
LINE
8
BLACK
6
CONTINUOUS
10
6.0252987795275592
20
-1.8981524409448818
11
6.0253735039370078
21
-1.8977622440944881
0
LINE
8
BLACK
6
CONTINUOUS
10
6.0253735039370078
20
-1.8977622440944881
11
6.029183070866142
21
-1.8848730708661416
0
LINE
8
BLACK
6
CONTINUOUS
10
6.029183070866142
20
-1.8848730708661416
11
6.0293151574803145
21
-1.8845475984251967
0
LINE
8
BLACK
6
CONTINUOUS
10
6.0293151574803145
20
-1.8845475984251967
11
6.0294161417322831
21
-1.8842106692913385
0
LINE
8
BLACK
6
CONTINUOUS
10
6.0294161417322831
20
-1.8842106692913385
11
6.0331389763779528
21
-1.875136968503937
0
LINE
8
BLACK
6
CONTINUOUS
10
6.0331389763779528
20
-1.875136968503937
11
6.0359122440944883
21
-1.8625664960629922
0
LINE
8
BLACK
6
CONTINUOUS
10
6.0359122440944883
20
-1.8625664960629922
11
6.0360355905511813
21
-1.8621883464566928
0
LINE
8
BLACK
6
CONTINUOUS
10
6.0360355905511813
20
-1.8621883464566928
11
6.0361278740157482
21
-1.8618018503937008
0
LINE
8
BLACK
6
CONTINUOUS
10
6.0361278740157482
20
-1.8618018503937008
11
6.0405234251968505
21
-1.8490735826771654
0
LINE
8
BLACK
6
CONTINUOUS
10
6.0405234251968505
20
-1.8490735826771654
11
6.0406893700787396
21
-1.8487123622047243
0
LINE
8
BLACK
6
CONTINUOUS
10
6.0406893700787396
20
-1.8487123622047243
11
6.0408255511811024
21
-1.8483389763779527
0
LINE
8
BLACK
6
CONTINUOUS
10
6.0408255511811024
20
-1.8483389763779527
11
6.0466737007874016
21
-1.8361662598425197
0
LINE
8
BLACK
6
CONTINUOUS
10
6.0466737007874016
20
-1.8361662598425197
11
6.0468798818897636
21
-1.8358269291338583
0
LINE
8
BLACK
6
CONTINUOUS
10
6.0468798818897636
20
-1.8358269291338583
11
6.0470577952755908
21
-1.8354722440944882
0
LINE
8
BLACK
6
CONTINUOUS
10
6.0470577952755908
20
-1.8354722440944882
11
6.054297047244094
21
-1.824003779527559
0
LINE
8
BLACK
6
CONTINUOUS
10
6.054297047244094
20
-1.824003779527559
11
6.0545405905511807
21
-1.8236907480314961
0
LINE
8
BLACK
6
CONTINUOUS
10
6.0545405905511807
20
-1.8236907480314961
11
6.0547578346456694
21
-1.8233591732283465
0
LINE
8
BLACK
6
CONTINUOUS
10
6.0547578346456694
20
-1.8233591732283465
11
6.0633016929133854
21
-1.8127533070866142
0
LINE
8
BLACK
6
CONTINUOUS
10
6.0633016929133854
20
-1.8127533070866142
11
6.0635795275590549
21
-1.8124703543307086
0
LINE
8
BLACK
6
CONTINUOUS
10
6.0635795275590549
20
-1.8124703543307086
11
6.0638334645669287
21
-1.8121658267716536
0
LINE
8
BLACK
6
CONTINUOUS
10
6.0638334645669287
20
-1.8121658267716536
11
6.0735687795275588
21
-1.8025812992125985
0
LINE
8
BLACK
6
CONTINUOUS
10
6.0735687795275588
20
-1.8025812992125985
11
6.0738006299212595
21
-1.8023940157480314
0
LINE
8
BLACK
6
CONTINUOUS
10
6.0738006299212595
20
-1.8023940157480314
11
6.0740104330708657
21
-1.8021825590551181
0
LINE
8
BLACK
6
CONTINUOUS
10
6.0740104330708657
20
-1.8021825590551181
11
6.0792797244094485
21
-1.7978229527559055
0
LINE
8
BLACK
6
CONTINUOUS
10
6.0792797244094485
20
-1.7978229527559055
11
6.0794449212598423
21
-1.7977115748031496
0
LINE
8
BLACK
6
CONTINUOUS
10
6.0794449212598423
20
-1.7977115748031496
11
6.0795932677165352
21
-1.7975784251968503
0
LINE
8
BLACK
6
CONTINUOUS
10
6.0795932677165352
20
-1.7975784251968503
11
6.08511374015748
21
-1.7935238582677164
0
LINE
8
BLACK
6
CONTINUOUS
10
6.08511374015748
20
-1.7935238582677164
11
6.0852853937007874
21
-1.7934220078740157
0
LINE
8
BLACK
6
CONTINUOUS
10
6.0852853937007874
20
-1.7934220078740157
11
6.0854412992125981
21
-1.7932975590551181
0
LINE
8
BLACK
6
CONTINUOUS
10
6.0854412992125981
20
-1.7932975590551181
11
6.0911746850393698
21
-1.7895764566929133
0
LINE
8
BLACK
6
CONTINUOUS
10
6.0911746850393698
20
-1.7895764566929133
11
6.0913522440944883
21
-1.7894845669291337
0
LINE
8
BLACK
6
CONTINUOUS
10
6.0913522440944883
20
-1.7894845669291337
11
6.0915156299212594
21
-1.789368937007874
0
LINE
8
BLACK
6
CONTINUOUS
10
6.0915156299212594
20
-1.789368937007874
11
6.0974723228346459
21
-1.7859761417322835
0
LINE
8
BLACK
6
CONTINUOUS
10
6.0974723228346459
20
-1.7859761417322835
11
6.0976553543307084
21
-1.7858944881889764
0
LINE
8
BLACK
6
CONTINUOUS
10
6.0976553543307084
20
-1.7858944881889764
11
6.0978252755905507
21
-1.7857884645669291
0
LINE
8
BLACK
6
CONTINUOUS
10
6.0978252755905507
20
-1.7857884645669291
11
6.1039425984251965
21
-1.7827596850393701
0
LINE
8
BLACK
6
CONTINUOUS
10
6.1039425984251965
20
-1.7827596850393701
11
6.1041304724409446
21
-1.782688622047244
0
LINE
8
BLACK
6
CONTINUOUS
10
6.1041304724409446
20
-1.782688622047244
11
6.1043065354330706
21
-1.7825925196850394
0
LINE
8
BLACK
6
CONTINUOUS
10
6.1043065354330706
20
-1.7825925196850394
11
6.1106185039370073
21
-1.7799120472440944
0
LINE
8
BLACK
6
CONTINUOUS
10
6.1106185039370073
20
-1.7799120472440944
11
6.1108102362204724
21
-1.7798520078740157
0
LINE
8
BLACK
6
CONTINUOUS
10
6.1108102362204724
20
-1.7798520078740157
11
6.1109920078740156
21
-1.7797661023622047
0
LINE
8
BLACK
6
CONTINUOUS
10
6.1109920078740156
20
-1.7797661023622047
11
6.1174143307086615
21
-1.7774698818897638
0
LINE
8
BLACK
6
CONTINUOUS
10
6.1174143307086615
20
-1.7774698818897638
11
6.117609527559055
21
-1.7774210236220471
0
LINE
8
BLACK
6
CONTINUOUS
10
6.117609527559055
20
-1.7774210236220471
11
6.1177960629921255
21
-1.7773458267716535
0
LINE
8
BLACK
6
CONTINUOUS
10
6.1177960629921255
20
-1.7773458267716535
11
6.1243844881889764
21
-1.7754147637795274
0
LINE
8
BLACK
6
CONTINUOUS
10
6.1243844881889764
20
-1.7754147637795274
11
6.1245823622047242
21
-1.7753773228346457
0
LINE
8
BLACK
6
CONTINUOUS
10
6.1245823622047242
20
-1.7753773228346457
11
6.1247727559055116
21
-1.775313188976378
0
LINE
8
BLACK
6
CONTINUOUS
10
6.1247727559055116
20
-1.775313188976378
11
6.1314269291338581
21
-1.7737772440944881
0
LINE
8
BLACK
6
CONTINUOUS
10
6.1314269291338581
20
-1.7737772440944881
11
6.1316261023622047
21
-1.7737514566929133
0
LINE
8
BLACK
6
CONTINUOUS
10
6.1316261023622047
20
-1.7737514566929133
11
6.131820039370079
21
-1.7736984645669291
0
LINE
8
BLACK
6
CONTINUOUS
10
6.131820039370079
20
-1.7736984645669291
11
6.1386125984251967
21
-1.7725419291338582
0
LINE
8
BLACK
6
CONTINUOUS
10
6.1386125984251967
20
-1.7725419291338582
11
6.1388125196850396
21
-1.7725277952755905
0
LINE
8
BLACK
6
CONTINUOUS
10
6.1388125196850396
20
-1.7725277952755905
11
6.139008700787401
21
-1.7724862598425197
0
LINE
8
BLACK
6
CONTINUOUS
10
6.139008700787401
20
-1.7724862598425197
11
6.1458305118110239
21
-1.7717287795275589
0
LINE
8
BLACK
6
CONTINUOUS
10
6.1458305118110239
20
-1.7717287795275589
11
6.1460301181102359
21
-1.7717262992125984
0
LINE
8
BLACK
6
CONTINUOUS
10
6.1460301181102359
20
-1.7717262992125984
11
6.1462277165354333
21
-1.7716962598425197
0
LINE
8
BLACK
6
CONTINUOUS
10
6.1462277165354333
20
-1.7716962598425197
11
6.1531615748031498
21
-1.7713302755905511
0
LINE
8
BLACK
6
CONTINUOUS
10
6.1531615748031498
20
-1.7713302755905511
11
6.1533024803149603
21
-1.771336653543307
0
LINE
8
BLACK
6
CONTINUOUS
10
6.1533024803149603
20
-1.771336653543307
11
6.1534427165354328
21
-1.7713211811023621
0
LINE
8
BLACK
6
CONTINUOUS
10
6.1534427165354328
20
-1.7713211811023621
11
6.1563233464566931
21
-1.7712868897637795
0
LINE
8
BLACK
6
CONTINUOUS
10
6.1563233464566931
20
-1.7712868897637795
11
6.1563644488188976
21
-1.7712904330708661
0
LINE
8
BLACK
6
CONTINUOUS
10
6.1563644488188976
20
-1.7712904330708661
11
6.1564053543307082
21
-1.7712864173228346
0
LINE
8
BLACK
6
CONTINUOUS
10
6.1564053543307082
20
-1.7712864173228346
11
6.4048713385826774
21
-1.7712864173228346
0
LINE
8
BLACK
6
CONTINUOUS
10
6.4048713385826774
20
-1.7712864173228346
11
6.4050688582677164
21
-1.7713058661417322
0
LINE
8
BLACK
6
CONTINUOUS
10
6.156447677165354
20
-1.7850659448818897
11
6.1537472440944878
21
-1.7850980708661417
0
LINE
8
BLACK
6
CONTINUOUS
10
6.1537472440944878
20
-1.7850980708661417
11
6.1471528740157479
21
-1.7854461417322833
0
LINE
8
BLACK
6
CONTINUOUS
10
6.1471528740157479
20
-1.7854461417322833
11
6.1407281496062991
21
-1.7861595275590552
0
LINE
8
BLACK
6
CONTINUOUS
10
6.1407281496062991
20
-1.7861595275590552
11
6.1343304330708657
21
-1.7872488188976376
0
LINE
8
BLACK
6
CONTINUOUS
10
6.1343304330708657
20
-1.7872488188976376
11
6.1280675590551184
21
-1.7886944488188976
0
LINE
8
BLACK
6
CONTINUOUS
10
6.1280675590551184
20
-1.7886944488188976
11
6.1218643700787396
21
-1.7905125590551181
0
LINE
8
BLACK
6
CONTINUOUS
10
6.1218643700787396
20
-1.7905125590551181
11
6.1158198425196852
21
-1.7926737007874016
0
LINE
8
BLACK
6
CONTINUOUS
10
6.1158198425196852
20
-1.7926737007874016
11
6.1098769685039365
21
-1.7951974409448819
0
LINE
8
BLACK
6
CONTINUOUS
10
6.1098769685039365
20
-1.7951974409448819
11
6.1041188582677162
21
-1.798048346456693
0
LINE
8
BLACK
6
CONTINUOUS
10
6.1041188582677162
20
-1.798048346456693
11
6.0985086614173225
21
-1.8012437795275591
0
LINE
8
BLACK
6
CONTINUOUS
10
6.0985086614173225
20
-1.8012437795275591
11
6.0931101574803153
21
-1.8047475590551181
0
LINE
8
BLACK
6
CONTINUOUS
10
6.0931101574803153
20
-1.8047475590551181
11
6.08791031496063
21
-1.8085666141732284
0
LINE
8
BLACK
6
CONTINUOUS
10
6.08791031496063
20
-1.8085666141732284
11
6.0830239763779526
21
-1.8126094488188975
0
LINE
8
BLACK
6
CONTINUOUS
10
6.0830239763779526
20
-1.8126094488188975
11
6.0737834645669286
21
-1.8217068110236221
0
LINE
8
BLACK
6
CONTINUOUS
10
6.0737834645669286
20
-1.8217068110236221
11
6.0657375196850394
21
-1.831694527559055
0
LINE
8
BLACK
6
CONTINUOUS
10
6.0657375196850394
20
-1.831694527559055
11
6.0589220866141735
21
-1.8424916535433071
0
LINE
8
BLACK
6
CONTINUOUS
10
6.0589220866141735
20
-1.8424916535433071
11
6.0534182677165349
21
-1.853947559055118
0
LINE
8
BLACK
6
CONTINUOUS
10
6.0534182677165349
20
-1.853947559055118
11
6.0492825196850388
21
-1.8659235039370079
0
LINE
8
BLACK
6
CONTINUOUS
10
6.0492825196850388
20
-1.8659235039370079
11
6.0464668503937009
21
-1.8786863385826771
0
LINE
8
BLACK
6
CONTINUOUS
10
6.0464668503937009
20
-1.8786863385826771
11
6.046283267716535
21
-1.879248937007874
0
LINE
8
BLACK
6
CONTINUOUS
10
6.046283267716535
20
-1.879248937007874
11
6.046112992125984
21
-1.8798172834645668
0
LINE
8
BLACK
6
CONTINUOUS
10
6.046112992125984
20
-1.8798172834645668
11
6.0422977952755907
21
-1.8891159842519685
0
LINE
8
BLACK
6
CONTINUOUS
10
6.0422977952755907
20
-1.8891159842519685
11
6.0387006692913383
21
-1.9012863779527558
0
LINE
8
BLACK
6
CONTINUOUS
10
6.0387006692913383
20
-1.9012863779527558
11
6.0365340551181097
21
-1.9137578740157479
0
LINE
8
BLACK
6
CONTINUOUS
10
6.0365340551181097
20
-1.9137578740157479
11
6.0357950787401577
21
-1.9267032677165354
0
LINE
8
BLACK
6
CONTINUOUS
10
6.0357950787401577
20
-1.9267032677165354
11
6.0357950787401577
21
-1.9288681496062992
0
LINE
8
BLACK
6
CONTINUOUS
10
6.0357950787401577
20
-1.9288681496062992
11
6.0356626771653543
21
-1.930212283464567
0
LINE
8
BLACK
6
CONTINUOUS
10
6.0356626771653543
20
-1.930212283464567
11
6.0346339370078743
21
-1.9326959055118109
0
LINE
8
BLACK
6
CONTINUOUS
10
6.0346339370078743
20
-1.9326959055118109
11
6.0327330708661417
21
-1.9345967716535433
0
LINE
8
BLACK
6
CONTINUOUS
10
6.0327330708661417
20
-1.9345967716535433
11
6.0302494488188971
21
-1.9356255118110235
0
LINE
8
BLACK
6
CONTINUOUS
10
6.0302494488188971
20
-1.9356255118110235
11
6.02890531496063
21
-1.9357579133858267
0
LINE
8
BLACK
6
CONTINUOUS
10
6.02890531496063
20
-1.9357579133858267
11
5.2394781102362202
21
-1.9357579133858267
0
LINE
8
BLACK
6
CONTINUOUS
10
5.2394781102362202
20
-1.9357579133858267
11
5.2381339763779522
21
-1.9356255118110235
0
LINE
8
BLACK
6
CONTINUOUS
10
5.2381339763779522
20
-1.9356255118110235
11
5.2356503543307085
21
-1.9345967716535433
0
LINE
8
BLACK
6
CONTINUOUS
10
5.2356503543307085
20
-1.9345967716535433
11
5.2337494881889759
21
-1.9326959055118109
0
LINE
8
BLACK
6
CONTINUOUS
10
5.2337494881889759
20
-1.9326959055118109
11
5.2327207480314959
21
-1.930212283464567
0
LINE
8
BLACK
6
CONTINUOUS
10
5.2327207480314959
20
-1.930212283464567
11
5.2325883464566925
21
-1.9288681496062992
0
LINE
8
BLACK
6
CONTINUOUS
10
5.2325883464566925
20
-1.9288681496062992
11
5.2325883464566925
21
-1.89690437007874
0
LINE
8
BLACK
6
CONTINUOUS
10
5.2325883464566925
20
-1.89690437007874
11
5.2323174803149604
21
-1.8890298818897637
0
LINE
8
BLACK
6
CONTINUOUS
10
5.2323174803149604
20
-1.8890298818897637
11
5.2316842125984246
21
-1.8825925984251968
0
LINE
8
BLACK
6
CONTINUOUS
10
5.2316842125984246
20
-1.8825925984251968
11
5.2306850000000003
21
-1.8762533464566928
0
LINE
8
BLACK
6
CONTINUOUS
10
5.2306850000000003
20
-1.8762533464566928
11
5.2293106692913387
21
-1.869951811023622
0
LINE
8
BLACK
6
CONTINUOUS
10
5.2293106692913387
20
-1.869951811023622
11
5.2275844881889766
21
-1.863791377952756
0
LINE
8
BLACK
6
CONTINUOUS
10
5.2275844881889766
20
-1.863791377952756
11
5.2254887401574805
21
-1.8577056299212598
0
LINE
8
BLACK
6
CONTINUOUS
10
5.2254887401574805
20
-1.8577056299212598
11
5.2230548031496058
21
-1.8517853937007873
0
LINE
8
BLACK
6
CONTINUOUS
10
5.2230548031496058
20
-1.8517853937007873
11
5.2202639763779528
21
-1.8459836614173228
0
LINE
8
BLACK
6
CONTINUOUS
10
5.2202639763779528
20
-1.8459836614173228
11
5.2171514566929131
21
-1.840374094488189
0
LINE
8
BLACK
6
CONTINUOUS
10
5.2171514566929131
20
-1.840374094488189
11
5.2137045669291338
21
-1.8349321259842519
0
LINE
8
BLACK
6
CONTINUOUS
10
5.2137045669291338
20
-1.8349321259842519
11
5.20995594488189
21
-1.8297094488188976
0
LINE
8
BLACK
6
CONTINUOUS
10
5.20995594488189
20
-1.8297094488188976
11
5.2059049999999996
21
-1.8247032677165353
0
LINE
8
BLACK
6
CONTINUOUS
10
5.2059049999999996
20
-1.8247032677165353
11
5.2016418503937008
21
-1.8200160236220473
0
LINE
8
BLACK
6
CONTINUOUS
10
5.2016418503937008
20
-1.8200160236220473
11
5.1921346062992129
21
-1.8112230708661416
0
LINE
8
BLACK
6
CONTINUOUS
10
5.1921346062992129
20
-1.8112230708661416
11
5.1817931496062988
21
-1.803661496062992
0
LINE
8
BLACK
6
CONTINUOUS
10
5.1817931496062988
20
-1.803661496062992
11
5.1706954330708657
21
-1.7973611417322835
0
LINE
8
BLACK
6
CONTINUOUS
10
5.1706954330708657
20
-1.7973611417322835
11
5.1589871653543309
21
-1.7923935826771653
0
LINE
8
BLACK
6
CONTINUOUS
10
5.1589871653543309
20
-1.7923935826771653
11
5.1468011023622049
21
-1.7888084645669291
0
LINE
8
BLACK
6
CONTINUOUS
10
5.1468011023622049
20
-1.7888084645669291
11
5.1342493700787397
21
-1.7866389370078739
0
LINE
8
BLACK
6
CONTINUOUS
10
5.1342493700787397
20
-1.7866389370078739
11
5.1212294488188972
21
-1.785899251968504
0
LINE
8
BLACK
6
CONTINUOUS
10
5.1212294488188972
20
-1.785899251968504
11
4.8405756299212594
21
-1.785899251968504
0
LINE
8
BLACK
6
CONTINUOUS
10
4.8405756299212594
20
-1.785899251968504
11
4.8326672834645672
21
-1.7861700787401575
0
LINE
8
BLACK
6
CONTINUOUS
10
4.8326672834645672
20
-1.7861700787401575
11
4.826201771653543
21
-1.7868035433070866
0
LINE
8
BLACK
6
CONTINUOUS
10
4.826201771653543
20
-1.7868035433070866
11
4.8198368897637796
21
-1.7878027559055119
0
LINE
8
BLACK
6
CONTINUOUS
10
4.8198368897637796
20
-1.7878027559055119
11
4.8135120078740155
21
-1.7891768503937007
0
LINE
8
BLACK
6
CONTINUOUS
10
4.8135120078740155
20
-1.7891768503937007
11
4.8073308267716532
21
-1.7909022834645669
0
LINE
8
BLACK
6
CONTINUOUS
10
4.8073308267716532
20
-1.7909022834645669
11
4.8012244881889758
21
-1.7929973622047244
0
LINE
8
BLACK
6
CONTINUOUS
10
4.8012244881889758
20
-1.7929973622047244
11
4.7952872440944878
21
-1.7954294488188975
0
LINE
8
BLACK
6
CONTINUOUS
10
4.7952872440944878
20
-1.7954294488188975
11
4.7894698031496059
21
-1.798217874015748
0
LINE
8
BLACK
6
CONTINUOUS
10
4.7894698031496059
20
-1.798217874015748
11
4.7838459448818895
21
-1.8013273622047243
0
LINE
8
BLACK
6
CONTINUOUS
10
4.7838459448818895
20
-1.8013273622047243
11
4.7783914960629916
21
-1.804770157480315
0
LINE
8
BLACK
6
CONTINUOUS
10
4.7783914960629916
20
-1.804770157480315
11
4.773156771653543
21
-1.8085145275590551
0
LINE
8
BLACK
6
CONTINUOUS
10
4.773156771653543
20
-1.8085145275590551
11
4.7681409448818899
21
-1.8125596456692914
0
LINE
8
BLACK
6
CONTINUOUS
10
4.7681409448818899
20
-1.8125596456692914
11
4.7634452362204724
21
-1.8168159842519684
0
LINE
8
BLACK
6
CONTINUOUS
10
4.7634452362204724
20
-1.8168159842519684
11
4.7546384251968501
21
-1.8263061811023622
0
LINE
8
BLACK
6
CONTINUOUS
10
4.7546384251968501
20
-1.8263061811023622
11
4.7470670078740156
21
-1.8366259842519685
0
LINE
8
BLACK
6
CONTINUOUS
10
4.7470670078740156
20
-1.8366259842519685
11
4.7407603937007874
21
-1.8476964173228345
0
LINE
8
BLACK
6
CONTINUOUS
10
4.7407603937007874
20
-1.8476964173228345
11
4.7357898425196847
21
-1.8593702362204725
0
LINE
8
BLACK
6
CONTINUOUS
10
4.7357898425196847
20
-1.8593702362204725
11
4.7322035826771653
21
-1.8715155118110236
0
LINE
8
BLACK
6
CONTINUOUS
10
4.7322035826771653
20
-1.8715155118110236
11
4.7300341732283462
21
-1.8840178740157481
0
LINE
8
BLACK
6
CONTINUOUS
10
4.7300341732283462
20
-1.8840178740157481
11
4.7292946456692908
21
-1.8969818503937008
0
LINE
8
BLACK
6
CONTINUOUS
10
4.7292946456692908
20
-1.8969818503937008
11
4.7292946456692908
21
-1.9288681496062992
0
LINE
8
BLACK
6
CONTINUOUS
10
4.7292946456692908
20
-1.9288681496062992
11
4.7291622440944883
21
-1.930212283464567
0
LINE
8
BLACK
6
CONTINUOUS
10
4.7291622440944883
20
-1.930212283464567
11
4.7281335039370074
21
-1.9326959055118109
0
LINE
8
BLACK
6
CONTINUOUS
10
4.7281335039370074
20
-1.9326959055118109
11
4.7262326377952757
21
-1.9345967716535433
0
LINE
8
BLACK
6
CONTINUOUS
10
4.7262326377952757
20
-1.9345967716535433
11
4.7237490157480311
21
-1.9356255118110235
0
LINE
8
BLACK
6
CONTINUOUS
10
4.7237490157480311
20
-1.9356255118110235
11
4.7224048818897639
21
-1.9357579133858267
0
LINE
8
BLACK
6
CONTINUOUS
10
4.7224048818897639
20
-1.9357579133858267
11
4.3271097637795277
21
-1.9357579133858267
0
LINE
8
BLACK
6
CONTINUOUS
10
4.3271097637795277
20
-1.9357579133858267
11
4.319249251968504
21
-1.936025905511811
0
LINE
8
BLACK
6
CONTINUOUS
10
4.319249251968504
20
-1.936025905511811
11
4.3127846456692911
21
-1.9366572834645668
0
LINE
8
BLACK
6
CONTINUOUS
10
4.3127846456692911
20
-1.9366572834645668
11
4.3064192913385826
21
-1.9376546062992126
0
LINE
8
BLACK
6
CONTINUOUS
10
4.3064192913385826
20
-1.9376546062992126
11
4.3000925196850392
21
-1.9390270866141732
0
LINE
8
BLACK
6
CONTINUOUS
10
4.3000925196850392
20
-1.9390270866141732
11
4.2939077952755902
21
-1.9407513779527559
0
LINE
8
BLACK
6
CONTINUOUS
10
4.2939077952755902
20
-1.9407513779527559
11
4.2877973228346455
21
-1.9428453937007875
0
LINE
8
BLACK
6
CONTINUOUS
10
4.2877973228346455
20
-1.9428453937007875
11
4.2818549212598427
21
-1.9452768503937008
0
LINE
8
BLACK
6
CONTINUOUS
10
4.2818549212598427
20
-1.9452768503937008
11
4.2760315748031497
21
-1.9480649999999999
0
LINE
8
BLACK
6
CONTINUOUS
10
4.2760315748031497
20
-1.9480649999999999
11
4.2704026377952751
21
-1.9511736614173227
0
LINE
8
BLACK
6
CONTINUOUS
10
4.2704026377952751
20
-1.9511736614173227
11
4.2649431496062995
21
-1.9546155118110236
0
LINE
8
BLACK
6
CONTINUOUS
10
4.2649431496062995
20
-1.9546155118110236
11
4.2597030314960627
21
-1.9583591732283465
0
LINE
8
BLACK
6
CONTINUOUS
10
4.2597030314960627
20
-1.9583591732283465
11
4.2546836614173227
21
-1.9624019685039369
0
LINE
8
BLACK
6
CONTINUOUS
10
4.2546836614173227
20
-1.9624019685039369
11
4.2499838976377955
21
-1.9666562992125984
0
LINE
8
BLACK
6
CONTINUOUS
10
4.2499838976377955
20
-1.9666562992125984
11
4.2411720078740158
21
-1.9761390157480314
0
LINE
8
BLACK
6
CONTINUOUS
10
4.2411720078740158
20
-1.9761390157480314
11
4.2335983464566924
21
-1.9864470078740157
0
LINE
8
BLACK
6
CONTINUOUS
10
4.2335983464566924
20
-1.9864470078740157
11
4.227291771653543
21
-1.9975010629921259
0
LINE
8
BLACK
6
CONTINUOUS
10
4.227291771653543
20
-1.9975010629921259
11
4.2223222834645666
21
-2.009154960629921
0
LINE
8
BLACK
6
CONTINUOUS
10
4.2223222834645666
20
-2.009154960629921
11
4.2187372047244089
21
-2.0212780708661415
0
LINE
8
BLACK
6
CONTINUOUS
10
4.2187372047244089
20
-2.0212780708661415
11
4.2165685826771648
21
-2.0337580314960628
0
LINE
8
BLACK
6
CONTINUOUS
10
4.2165685826771648
20
-2.0337580314960628
11
4.2158292125984254
21
-2.0467012992125984
0
LINE
8
BLACK
6
CONTINUOUS
10
4.2158292125984254
20
-2.0467012992125984
11
4.215551181102362
21
-3.8700798031496064
0
LINE
8
BLACK
6
CONTINUOUS
10
4.215551181102362
20
-3.8700798031496064
11
4.2155511023622045
21
-3.8700801968503935
0
LINE
8
BLACK
6
CONTINUOUS
10
4.2155511023622045
20
-3.8700801968503935
11
4.215551181102362
21
-3.8700806692913385
0
LINE
8
BLACK
6
CONTINUOUS
10
4.215551181102362
20
-3.8700806692913385
11
4.2151375196850394
21
-5.37171531496063
0
LINE
8
BLACK
6
CONTINUOUS
10
4.2151375196850394
20
-5.37171531496063
11
4.2151375196850394
21
-5.3719933464566925
0
LINE
8
BLACK
6
CONTINUOUS
10
4.2151375196850394
20
-5.3719933464566925
11
4.2151375196850394
21
-5.5959924409448814
0
LINE
8
BLACK
6
CONTINUOUS
10
4.2151375196850394
20
-5.5959924409448814
11
4.2151458661417323
21
-5.5973303149606295
0
LINE
8
BLACK
6
CONTINUOUS
10
4.2151458661417323
20
-5.5973303149606295
11
4.2154197637795274
21
-5.6038811023622044
0
LINE
8
BLACK
6
CONTINUOUS
10
4.2154197637795274
20
-5.6038811023622044
11
4.2160599999999997
21
-5.6102383858267713
0
LINE
8
BLACK
6
CONTINUOUS
10
4.2160599999999997
20
-5.6102383858267713
11
4.2170812204724406
21
-5.6165997244094488
0
LINE
8
BLACK
6
CONTINUOUS
10
4.2170812204724406
20
-5.6165997244094488
11
4.2184612204724408
21
-5.622827834645669
0
LINE
8
BLACK
6
CONTINUOUS
10
4.2184612204724408
20
-5.622827834645669
11
4.2202280314960632
21
-5.6290449606299209
0
LINE
8
BLACK
6
CONTINUOUS
10
4.2202280314960632
20
-5.6290449606299209
11
4.2223431889763781
21
-5.6351101968503938
0
LINE
8
BLACK
6
CONTINUOUS
10
4.2223431889763781
20
-5.6351101968503938
11
4.22484937007874
21
-5.6411398031496063
0
LINE
8
BLACK
6
CONTINUOUS
10
4.22484937007874
20
-5.6411398031496063
11
4.227778267716535
21
-5.6471727559055118
0
LINE
8
BLACK
6
CONTINUOUS
10
4.227778267716535
20
-5.6471727559055118
11
4.2278105511811024
21
-5.6472601968503939
0
LINE
8
BLACK
6
CONTINUOUS
10
4.2278105511811024
20
-5.6472601968503939
11
4.2278572440944879
21
-5.6473411417322836
0
LINE
8
BLACK
6
CONTINUOUS
10
4.2278572440944879
20
-5.6473411417322836
11
4.2283938188976373
21
-5.6485268503937007
0
LINE
8
BLACK
6
CONTINUOUS
10
4.2283938188976373
20
-5.6485268503937007
11
4.2321177952755908
21
-5.6548238582677168
0
LINE
8
BLACK
6
CONTINUOUS
10
4.2321177952755908
20
-5.6548238582677168
11
4.2321456299212601
21
-5.6548684251968506
0
LINE
8
BLACK
6
CONTINUOUS
10
4.2321456299212601
20
-5.6548684251968506
11
4.2321531102362204
21
-5.6548835433070863
0
LINE
8
BLACK
6
CONTINUOUS
10
4.2321531102362204
20
-5.6548835433070863
11
4.2321597244094491
21
-5.6548947244094485
0
LINE
8
BLACK
6
CONTINUOUS
10
4.2321597244094491
20
-5.6548947244094485
11
4.2321768503937003
21
-5.6549315354330707
0
LINE
8
BLACK
6
CONTINUOUS
10
4.2321768503937003
20
-5.6549315354330707
11
4.2321797244094483
21
-5.6549373228346456
0
LINE
8
BLACK
6
CONTINUOUS
10
4.2321797244094483
20
-5.6549373228346456
11
4.2322251574803147
21
-5.6549991338582677
0
LINE
8
BLACK
6
CONTINUOUS
10
4.2322251574803147
20
-5.6549991338582677
11
4.2329546850393696
21
-5.6562283464566931
0
LINE
8
BLACK
6
CONTINUOUS
10
4.2329546850393696
20
-5.6562283464566931
11
4.2339615748031498
21
-5.6578522440944878
0
LINE
8
BLACK
6
CONTINUOUS
10
4.2339615748031498
20
-5.6578522440944878
11
4.2353469291338586
21
-5.659742598425197
0
LINE
8
BLACK
6
CONTINUOUS
10
4.2353469291338586
20
-5.659742598425197
11
4.2367873622047245
21
-5.6617059055118109
0
LINE
8
BLACK
6
CONTINUOUS
10
4.2367873622047245
20
-5.6617059055118109
11
4.2412415354330708
21
-5.6673613385826771
0
LINE
8
BLACK
6
CONTINUOUS
10
4.2412415354330708
20
-5.6673613385826771
11
4.247762480314961
21
-5.6745314960629916
0
LINE
8
BLACK
6
CONTINUOUS
10
4.247762480314961
20
-5.6745314960629916
11
4.2512357874015745
21
-5.6778432677165354
0
LINE
8
BLACK
6
CONTINUOUS
10
4.2512357874015745
20
-5.6778432677165354
11
4.2568576771653541
21
-5.6826187007874012
0
LINE
8
BLACK
6
CONTINUOUS
10
4.2568576771653541
20
-5.6826187007874012
11
4.2628374409448817
21
-5.6870962598425194
0
LINE
8
BLACK
6
CONTINUOUS
10
4.2628374409448817
20
-5.6870962598425194
11
4.2637842125984253
21
-5.6877565354330706
0
LINE
8
BLACK
6
CONTINUOUS
10
4.2637842125984253
20
-5.6877565354330706
11
4.2639398818897636
21
-5.6878895669291341
0
LINE
8
BLACK
6
CONTINUOUS
10
4.2639398818897636
20
-5.6878895669291341
11
4.2641123622047239
21
-5.6880001574803147
0
LINE
8
BLACK
6
CONTINUOUS
10
4.2641123622047239
20
-5.6880001574803147
11
4.2642692125984247
21
-5.6881239763779528
0
LINE
8
BLACK
6
CONTINUOUS
10
4.2642692125984247
20
-5.6881239763779528
11
4.2709736614173224
21
-5.692201062992126
0
LINE
8
BLACK
6
CONTINUOUS
10
4.2709736614173224
20
-5.692201062992126
11
4.2734361811023618
21
-5.6936770472440941
0
LINE
8
BLACK
6
CONTINUOUS
10
4.2734361811023618
20
-5.6936770472440941
11
4.280207322834646
21
-5.6968633070866144
0
LINE
8
BLACK
6
CONTINUOUS
10
4.280207322834646
20
-5.6968633070866144
11
4.2802781496062989
21
-5.6969055511811026
0
LINE
8
BLACK
6
CONTINUOUS
10
4.2802781496062989
20
-5.6969055511811026
11
4.2803550393700789
21
-5.6969349999999999
0
LINE
8
BLACK
6
CONTINUOUS
10
4.2803550393700789
20
-5.6969349999999999
11
4.283345590551181
21
-5.6984302755905514
0
LINE
8
BLACK
6
CONTINUOUS
10
4.283345590551181
20
-5.6984302755905514
11
4.2889536614173229
21
-5.7004938582677163
0
LINE
8
BLACK
6
CONTINUOUS
10
4.2889536614173229
20
-5.7004938582677163
11
4.2909070078740159
21
-5.7011665748031497
0
LINE
8
BLACK
6
CONTINUOUS
10
4.2909070078740159
20
-5.7011665748031497
11
4.2909751574803146
21
-5.7011978346456695
0
LINE
8
BLACK
6
CONTINUOUS
10
4.2909751574803146
20
-5.7011978346456695
11
4.291047480314961
21
-5.7012166929133858
0
LINE
8
BLACK
6
CONTINUOUS
10
4.291047480314961
20
-5.7012166929133858
11
4.2923515354330704
21
-5.7016976377952755
0
LINE
8
BLACK
6
CONTINUOUS
10
4.2923515354330704
20
-5.7016976377952755
11
4.2923518110236216
21
-5.701697716535433
0
LINE
8
BLACK
6
CONTINUOUS
10
4.2923518110236216
20
-5.701697716535433
11
4.2933433464566928
21
-5.7020629133858263
0
LINE
8
BLACK
6
CONTINUOUS
10
4.2933433464566928
20
-5.7020629133858263
11
4.303479921259842
21
-5.7046291732283461
0
LINE
8
BLACK
6
CONTINUOUS
10
4.303479921259842
20
-5.7046291732283461
11
4.3035243307086617
21
-5.7046320472440941
0
LINE
8
BLACK
6
CONTINUOUS
10
4.3035243307086617
20
-5.7046320472440941
11
4.3137133464566926
21
-5.706302519685039
0
LINE
8
BLACK
6
CONTINUOUS
10
4.3137133464566926
20
-5.706302519685039
11
4.3199985433070864
21
-5.7068528740157483
0
LINE
8
BLACK
6
CONTINUOUS
10
4.3199985433070864
20
-5.7068528740157483
11
4.3265364960629924
21
-5.7070411023622043
0
LINE
8
BLACK
6
CONTINUOUS
10
4.3265364960629924
20
-5.7070411023622043
11
4.3871316141732279
21
-5.7070411023622043
0
LINE
8
BLACK
6
CONTINUOUS
10
4.3871316141732279
20
-5.7070411023622043
11
4.3871364960629924
21
-5.7070415748031493
0
LINE
8
BLACK
6
CONTINUOUS
10
4.3871364960629924
20
-5.7070415748031493
11
4.3871414566929134
21
-5.7070411023622043
0
LINE
8
BLACK
6
CONTINUOUS
10
4.3871414566929134
20
-5.7070411023622043
11
4.4844195669291338
21
-5.7071798425196851
0
LINE
8
BLACK
6
CONTINUOUS
10
4.4844195669291338
20
-5.7071798425196851
11
4.4864204330708661
21
-5.7070545669291342
0
LINE
8
BLACK
6
CONTINUOUS
10
4.4864204330708661
20
-5.7070545669291342
11
4.4866361417322835
21
-5.7070622440944883
0
LINE
8
BLACK
6
CONTINUOUS
10
4.4866361417322835
20
-5.7070622440944883
11
4.4868509842519684
21
-5.7070411023622043
0
LINE
8
BLACK
6
CONTINUOUS
10
4.4868509842519684
20
-5.7070411023622043
11
6.827501220472441
21
-5.7070411023622043
0
LINE
8
BLACK
6
CONTINUOUS
10
6.827501220472441
20
-5.7070411023622043
11
6.8275297637795278
21
-5.7070438976377948
0
LINE
8
BLACK
6
CONTINUOUS
10
6.8275297637795278
20
-5.7070438976377948
11
6.8275583858267712
21
-5.7070413385826768
0
LINE
8
BLACK
6
CONTINUOUS
10
6.8275583858267712
20
-5.7070413385826768
11
6.9779283858267718
21
-5.7082893307086611
0
LINE
8
BLACK
6
CONTINUOUS
10
6.9779283858267718
20
-5.7082893307086611
11
6.9880564566929131
21
-5.7078330708661413
0
LINE
8
BLACK
6
CONTINUOUS
10
6.9880564566929131
20
-5.7078330708661413
11
6.9944025984251965
21
-5.7070737795275592
0
LINE
8
BLACK
6
CONTINUOUS
10
6.9944025984251965
20
-5.7070737795275592
11
7.0007297637795274
21
-5.7059415354330705
0
LINE
8
BLACK
6
CONTINUOUS
10
7.0007297637795274
20
-5.7059415354330705
11
7.0069932283464569
21
-5.7044422834645667
0
LINE
8
BLACK
6
CONTINUOUS
10
7.0069932283464569
20
-5.7044422834645667
11
7.0130562204724409
21
-5.702614960629921
0
LINE
8
BLACK
6
CONTINUOUS
10
7.0130562204724409
20
-5.702614960629921
11
7.0250878740157479
21
-5.6978199606299214
0
LINE
8
BLACK
6
CONTINUOUS
10
7.0250878740157479
20
-5.6978199606299214
11
7.036372047244094
21
-5.6917368110236222
0
LINE
8
BLACK
6
CONTINUOUS
10
7.036372047244094
20
-5.6917368110236222
11
7.0468477952755908
21
-5.6844225590551183
0
LINE
8
BLACK
6
CONTINUOUS
10
7.0468477952755908
20
-5.6844225590551183
11
7.0564197637795276
21
-5.6759483858267714
0
LINE
8
BLACK
6
CONTINUOUS
10
7.0564197637795276
20
-5.6759483858267714
11
7.0638364173228343
21
-5.6679079921259845
0
LINE
8
BLACK
6
CONTINUOUS
10
7.0638364173228343
20
-5.6679079921259845
11
7.067752440944882
21
-5.6629261417322834
0
LINE
8
BLACK
6
CONTINUOUS
10
7.067752440944882
20
-5.6629261417322834
11
7.0714011811023623
21
-5.6576820472440943
0
LINE
8
BLACK
6
CONTINUOUS
10
7.0714011811023623
20
-5.6576820472440943
11
7.0747459055118105
21
-5.6522231496062991
0
LINE
8
BLACK
6
CONTINUOUS
10
7.0747459055118105
20
-5.6522231496062991
11
7.0777168897637797
21
-5.6466745669291338
0
LINE
8
BLACK
6
CONTINUOUS
10
7.0777168897637797
20
-5.6466745669291338
11
7.0827868897637796
21
-5.6348364566929137
0
LINE
8
BLACK
6
CONTINUOUS
10
7.0827868897637796
20
-5.6348364566929137
11
7.0864201181102358
21
-5.6226113779527553
0
LINE
8
BLACK
6
CONTINUOUS
10
7.0864201181102358
20
-5.6226113779527553
11
7.0886134645669285
21
-5.6100799606299212
0
LINE
8
BLACK
6
CONTINUOUS
10
7.0886134645669285
20
-5.6100799606299212
11
7.0893576771653546
21
-5.5972064960629924
0
LINE
8
BLACK
6
CONTINUOUS
10
7.0893576771653546
20
-5.5972064960629924
11
7.0893576771653546
21
-5.4822689370078743
0
LINE
8
BLACK
6
CONTINUOUS
10
7.0893576771653546
20
-5.4822689370078743
11
7.0894900787401571
21
-5.4809248031496063
0
LINE
8
BLACK
6
CONTINUOUS
10
7.0894900787401571
20
-5.4809248031496063
11
7.090518818897638
21
-5.4784411811023617
0
LINE
8
BLACK
6
CONTINUOUS
10
7.090518818897638
20
-5.4784411811023617
11
7.0924196850393697
21
-5.47654031496063
0
LINE
8
BLACK
6
CONTINUOUS
10
7.0924196850393697
20
-5.47654031496063
11
7.0949033070866143
21
-5.4755115748031491
0
LINE
8
BLACK
6
CONTINUOUS
10
7.0949033070866143
20
-5.4755115748031491
11
7.0962474409448815
21
-5.4753791732283466
0
LINE
8
BLACK
6
CONTINUOUS
10
7.0962474409448815
20
-5.4753791732283466
11
7.553181811023622
21
-5.4753791732283466
0
LINE
8
BLACK
6
CONTINUOUS
10
7.553181811023622
20
-5.4753791732283466
11
7.5536504724409443
21
-5.4754253149606296
0
LINE
8
BLACK
6
CONTINUOUS
10
7.5536504724409443
20
-5.4754253149606296
11
7.5538136614173226
21
-5.4754082283464562
0
LINE
8
BLACK
6
CONTINUOUS
10
7.5538136614173226
20
-5.4754082283464562
11
7.5539812992125981
21
-5.475457913385827
0
LINE
8
BLACK
6
CONTINUOUS
10
7.5539812992125981
20
-5.475457913385827
11
7.55452594488189
21
-5.4755115748031491
0
LINE
8
BLACK
6
CONTINUOUS
10
7.55452594488189
20
-5.4755115748031491
11
7.5554411417322829
21
-5.4758906299212597
0
LINE
8
BLACK
6
CONTINUOUS
10
7.5554411417322829
20
-5.4758906299212597
11
7.5563910629921258
21
-5.4761722440944878
0
LINE
8
BLACK
6
CONTINUOUS
10
7.5563910629921258
20
-5.4761722440944878
11
7.5566736220472439
21
-5.4764011417322838
0
LINE
8
BLACK
6
CONTINUOUS
10
7.5566736220472439
20
-5.4764011417322838
11
7.5570095669291337
21
-5.47654031496063
0
LINE
8
BLACK
6
CONTINUOUS
10
7.5570095669291337
20
-5.47654031496063
11
7.5577100787401577
21
-5.477240826771653
0
LINE
8
BLACK
6
CONTINUOUS
10
7.5577100787401577
20
-5.477240826771653
11
7.5584798425196853
21
-5.4778644488188979
0
LINE
8
BLACK
6
CONTINUOUS
10
7.5584798425196853
20
-5.4778644488188979
11
7.5587866929133858
21
-5.478317440944882
0
LINE
8
BLACK
6
CONTINUOUS
10
7.5587866929133858
20
-5.478317440944882
11
7.5589104330708663
21
-5.4784411811023617
0
LINE
8
BLACK
6
CONTINUOUS
10
7.5589104330708663
20
-5.4784411811023617
11
7.5589732283464564
21
-5.4785928346456689
0
LINE
8
BLACK
6
CONTINUOUS
10
7.5589732283464564
20
-5.4785928346456689
11
7.5592373228346457
21
-5.4789826771653543
0
LINE
8
BLACK
6
CONTINUOUS
10
7.5592373228346457
20
-5.4789826771653543
11
7.564607125984252
21
-5.4888775196850395
0
LINE
8
BLACK
6
CONTINUOUS
10
7.564607125984252
20
-5.4888775196850395
11
7.5685877952755902
21
-5.4952107874015743
0
LINE
8
BLACK
6
CONTINUOUS
10
7.5685877952755902
20
-5.4952107874015743
11
7.5729489370078742
21
-5.5014279921259845
0
LINE
8
BLACK
6
CONTINUOUS
10
7.5729489370078742
20
-5.5014279921259845
11
7.5777508267716538
21
-5.5075963779527557
0
LINE
8
BLACK
6
CONTINUOUS
10
7.5777508267716538
20
-5.5075963779527557
11
7.5829144488188973
21
-5.5136003149606294
0
LINE
8
BLACK
6
CONTINUOUS
10
7.5829144488188973
20
-5.5136003149606294
11
7.5885482677165355
21
-5.5195500393700785
0
LINE
8
BLACK
6
CONTINUOUS
10
7.5885482677165355
20
-5.5195500393700785
11
7.5945494488188974
21
-5.525321732283464
0
LINE
8
BLACK
6
CONTINUOUS
10
7.5945494488188974
20
-5.525321732283464
11
7.601048858267716
21
-5.5310252755905509
0
LINE
8
BLACK
6
CONTINUOUS
10
7.601048858267716
20
-5.5310252755905509
11
7.6079207480314963
21
-5.5365350393700785
0
LINE
8
BLACK
6
CONTINUOUS
10
7.6079207480314963
20
-5.5365350393700785
11
7.6153156692913386
21
-5.5419559055118111
0
LINE
8
BLACK
6
CONTINUOUS
10
7.6153156692913386
20
-5.5419559055118111
11
7.6230874409448814
21
-5.5471653149606297
0
LINE
8
BLACK
6
CONTINUOUS
10
7.6230874409448814
20
-5.5471653149606297
11
7.6314019291338582
21
-5.5522593700787404
0
LINE
8
BLACK
6
CONTINUOUS
10
7.6314019291338582
20
-5.5522593700787404
11
7.6400974015748027
21
-5.5571238188976375
0
LINE
8
BLACK
6
CONTINUOUS
10
7.6400974015748027
20
-5.5571238188976375
11
7.649347283464567
21
-5.5618411417322831
0
LINE
8
BLACK
6
CONTINUOUS
10
7.649347283464567
20
-5.5618411417322831
11
7.6589792519685034
21
-5.566308976377953
0
LINE
8
BLACK
6
CONTINUOUS
10
7.6589792519685034
20
-5.566308976377953
11
7.6691694488188977
21
-5.57059531496063
0
LINE
8
BLACK
6
CONTINUOUS
10
7.6691694488188977
20
-5.57059531496063
11
7.6797416929133853
21
-5.5746122047244091
0
LINE
8
BLACK
6
CONTINUOUS
10
7.6797416929133853
20
-5.5746122047244091
11
7.6908674015748026
21
-5.5784118897637791
0
LINE
8
BLACK
6
CONTINUOUS
10
7.6908674015748026
20
-5.5784118897637791
11
7.7023708661417318
21
-5.5819213385826769
0
LINE
8
BLACK
6
CONTINUOUS
10
7.7023708661417318
20
-5.5819213385826769
11
7.7144170078740153
21
-5.5851787007874014
0
LINE
8
BLACK
6
CONTINUOUS
10
7.7144170078740153
20
-5.5851787007874014
11
7.7268316535433073
21
-5.5881247637795273
0
LINE
8
BLACK
6
CONTINUOUS
10
7.7268316535433073
20
-5.5881247637795273
11
7.739767598425197
21
-5.5907846062992128
0
LINE
8
BLACK
6
CONTINUOUS
10
7.739767598425197
20
-5.5907846062992128
11
7.7530646062992128
21
-5.59311374015748
0
LINE
8
BLACK
6
CONTINUOUS
10
7.7530646062992128
20
-5.59311374015748
11
7.7668510236220474
21
-5.5951245275590553
0
LINE
8
BLACK
6
CONTINUOUS
10
7.7668510236220474
20
-5.5951245275590553
11
7.7809889763779525
21
-5.596786220472441
0
LINE
8
BLACK
6
CONTINUOUS
10
7.7809889763779525
20
-5.596786220472441
11
7.7955809055118106
21
-5.5981012598425197
0
LINE
8
BLACK
6
CONTINUOUS
10
7.7955809055118106
20
-5.5981012598425197
11
7.8105083464566931
21
-5.5990492519685038
0
LINE
8
BLACK
6
CONTINUOUS
10
7.8105083464566931
20
-5.5990492519685038
11
7.8258473228346457
21
-5.5996262598425197
0
LINE
8
BLACK
6
CONTINUOUS
10
7.8258473228346457
20
-5.5996262598425197
11
7.8415176771653545
21
-5.5998201181102365
0
LINE
8
BLACK
6
CONTINUOUS
10
7.8415176771653545
20
-5.5998201181102365
11
7.8544184251968501
21
-5.5996883858267719
0
LINE
8
BLACK
6
CONTINUOUS
10
7.8544184251968501
20
-5.5996883858267719
11
7.884690157480315
21
-5.5983035039370082
0
LINE
8
BLACK
6
CONTINUOUS
10
7.884690157480315
20
-5.5983035039370082
11
7.9133462992125985
21
-5.5954860236220467
0
LINE
8
BLACK
6
CONTINUOUS
10
7.9133462992125985
20
-5.5954860236220467
11
7.9403436614173231
21
-5.5913271653543308
0
LINE
8
BLACK
6
CONTINUOUS
10
7.9403436614173231
20
-5.5913271653543308
11
7.9656039763779525
21
-5.5859286614173227
0
LINE
8
BLACK
6
CONTINUOUS
10
7.9656039763779525
20
-5.5859286614173227
11
7.9890716535433066
21
-5.5793978740157479
0
LINE
8
BLACK
6
CONTINUOUS
10
7.9890716535433066
20
-5.5793978740157479
11
8.0107120866141734
21
-5.571844803149606
0
LINE
8
BLACK
6
CONTINUOUS
10
8.0107120866141734
20
-5.571844803149606
11
8.0305134251968511
21
-5.5633788976377954
0
LINE
8
BLACK
6
CONTINUOUS
10
8.0305134251968511
20
-5.5633788976377954
11
8.0484835039370068
21
-5.5541060629921262
0
LINE
8
BLACK
6
CONTINUOUS
10
8.0484835039370068
20
-5.5541060629921262
11
8.0646502755905516
21
-5.5441243700787401
0
LINE
8
BLACK
6
CONTINUOUS
10
8.0646502755905516
20
-5.5441243700787401
11
8.0790552362204728
21
-5.5335227165354333
0
LINE
8
BLACK
6
CONTINUOUS
10
8.0790552362204728
20
-5.5335227165354333
11
8.0917543700787391
21
-5.5223748031496065
0
LINE
8
BLACK
6
CONTINUOUS
10
8.0917543700787391
20
-5.5223748031496065
11
8.1028099606299211
21
-5.5107388582677164
0
LINE
8
BLACK
6
CONTINUOUS
10
8.1028099606299211
20
-5.5107388582677164
11
8.1122851181102362
21
-5.4986562992125982
0
LINE
8
BLACK
6
CONTINUOUS
10
8.1122851181102362
20
-5.4986562992125982
11
8.120239999999999
21
-5.4861491732283465
0
LINE
8
BLACK
6
CONTINUOUS
10
8.120239999999999
20
-5.4861491732283465
11
8.1267251968503942
21
-5.4732205511811021
0
LINE
8
BLACK
6
CONTINUOUS
10
8.1267251968503942
20
-5.4732205511811021
11
8.1317755118110231
21
-5.4598579133858269
0
LINE
8
BLACK
6
CONTINUOUS
10
8.1317755118110231
20
-5.4598579133858269
11
8.1354293307086607
21
-5.4459479133858268
0
LINE
8
BLACK
6
CONTINUOUS
10
8.1354293307086607
20
-5.4459479133858268
11
8.1366954330708658
21
-5.4389391732283467
0
LINE
8
BLACK
6
CONTINUOUS
10
8.1366954330708658
20
-5.4389391732283467
11
8.1376177559055112
21
-5.4317145275590546
0
LINE
8
BLACK
6
CONTINUOUS
10
8.1376177559055112
20
-5.4317145275590546
11
8.1381762992125974
21
-5.4243472834645665
0
LINE
8
BLACK
6
CONTINUOUS
10
8.1381762992125974
20
-5.4243472834645665
11
8.1383601181102367
21
-5.4169971653543305
0
LINE
8
BLACK
6
CONTINUOUS
10
8.1383601181102367
20
-5.4169971653543305
11
8.1383116535433064
21
-5.4162708661417325
0
LINE
8
BLACK
6
CONTINUOUS
10
8.1383116535433064
20
-5.4162708661417325
11
8.1383116535433064
21
-5.4162705905511812
0
LINE
8
BLACK
6
CONTINUOUS
10
8.1383116535433064
20
-5.4162705905511812
11
8.1382421259842523
21
-5.4152281496062988
0
LINE
8
BLACK
6
CONTINUOUS
10
8.1382421259842523
20
-5.4152281496062988
11
8.1382549212598416
21
-5.4148229921259841
0
LINE
8
BLACK
6
CONTINUOUS
10
8.1382549212598416
20
-5.4148229921259841
11
8.1382358267716537
21
-5.4144183070866143
0
LINE
8
BLACK
6
CONTINUOUS
10
8.1382358267716537
20
-5.4144183070866143
11
8.1383006299212592
21
-5.4131488582677161
0
LINE
8
BLACK
6
CONTINUOUS
10
8.1383006299212592
20
-5.4131488582677161
11
8.1383658661417329
21
-5.4118228346456689
0
LINE
8
BLACK
6
CONTINUOUS
10
8.1383658661417329
20
-5.4118228346456689
11
8.1383658661417329
21
-4.3434514173228349
0
LINE
8
BLACK
6
CONTINUOUS
10
8.1383658661417329
20
-4.3434514173228349
11
8.1376848818897631
21
-4.330968031496063
0
LINE
8
BLACK
6
CONTINUOUS
10
8.1376848818897631
20
-4.330968031496063
11
8.1368037007874019
21
-4.3246495275590551
0
LINE
8
BLACK
6
CONTINUOUS
10
8.1368037007874019
20
-4.3246495275590551
11
8.1355506299212603
21
-4.3183692913385823
0
LINE
8
BLACK
6
CONTINUOUS
10
8.1355506299212603
20
-4.3183692913385823
11
8.1339240551181096
21
-4.312139724409449
0
LINE
8
BLACK
6
CONTINUOUS
10
8.1339240551181096
20
-4.312139724409449
11
8.1319504330708661
21
-4.3060599999999996
0
LINE
8
BLACK
6
CONTINUOUS
10
8.1319504330708661
20
-4.3060599999999996
11
8.1296113779527559
21
-4.3000711811023624
0
LINE
8
BLACK
6
CONTINUOUS
10
8.1296113779527559
20
-4.3000711811023624
11
8.1269404330708657
21
-4.2942584645669291
0
LINE
8
BLACK
6
CONTINUOUS
10
8.1269404330708657
20
-4.2942584645669291
11
8.1239208267716538
21
-4.2885835826771652
0
LINE
8
BLACK
6
CONTINUOUS
10
8.1239208267716538
20
-4.2885835826771652
11
8.1205867322834635
21
-4.2831108267716536
0
LINE
8
BLACK
6
CONTINUOUS
10
8.1205867322834635
20
-4.2831108267716536
11
8.1169305118110238
21
-4.2778259055118113
0
LINE
8
BLACK
6
CONTINUOUS
10
8.1169305118110238
20
-4.2778259055118113
11
8.1129810236220479
21
-4.2727701181102358
0
LINE
8
BLACK
6
CONTINUOUS
10
8.1129810236220479
20
-4.2727701181102358
11
8.1087455905511803
21
-4.2679506692913387
0
LINE
8
BLACK
6
CONTINUOUS
10
8.1087455905511803
20
-4.2679506692913387
11
8.1041008661417315
21
-4.2632440157480316
0
LINE
8
BLACK
6
CONTINUOUS
10
8.1041008661417315
20
-4.2632440157480316
11
8.1033055511811014
21
-4.2622616929133859
0
LINE
8
BLACK
6
CONTINUOUS
10
8.1033055511811014
20
-4.2622616929133859
11
8.1032762204724413
21
-4.262232362204724
0
LINE
8
BLACK
6
CONTINUOUS
10
8.1032762204724413
20
-4.262232362204724
11
8.103270354330709
21
-4.2622182283464563
0
LINE
8
BLACK
6
CONTINUOUS
10
8.103270354330709
20
-4.2622182283464563
11
8.103250984251968
21
-4.2621942913385826
0
LINE
8
BLACK
6
CONTINUOUS
10
8.103250984251968
20
-4.2621942913385826
11
8.10275342519685
21
-4.2609702755905507
0
LINE
8
BLACK
6
CONTINUOUS
10
8.10275342519685
20
-4.2609702755905507
11
8.1022474803149596
21
-4.2597487401574803
0
LINE
8
BLACK
6
CONTINUOUS
10
8.1022474803149596
20
-4.2597487401574803
11
8.1022444488188974
21
-4.259718031496063
0
LINE
8
BLACK
6
CONTINUOUS
10
8.1022444488188974
20
-4.259718031496063
11
8.1022387007874013
21
-4.2597038976377952
0
LINE
8
BLACK
6
CONTINUOUS
10
8.1022387007874013
20
-4.2597038976377952
11
8.1022389370078738
21
-4.2596624015748032
0
LINE
8
BLACK
6
CONTINUOUS
10
8.1022389370078738
20
-4.2596624015748032
11
8.102115078740157
21
-4.2584046062992122
0
LINE
8
BLACK
6
CONTINUOUS
10
8.102115078740157
20
-4.2584046062992122
11
8.102115078740157
21
-4.0189648031496059
0
LINE
8
BLACK
6
CONTINUOUS
10
8.102115078740157
20
-4.0189648031496059
11
8.1017462992125981
21
-4.0097936614173229
0
LINE
8
BLACK
6
CONTINUOUS
10
8.1017462992125981
20
-4.0097936614173229
11
8.1010414173228344
21
-4.003398582677165
0
LINE
8
BLACK
6
CONTINUOUS
10
8.1010414173228344
20
-4.003398582677165
11
8.0999694488188982
21
-3.9970844881889764
0
LINE
8
BLACK
6
CONTINUOUS
10
8.0999694488188982
20
-3.9970844881889764
11
8.098522047244094
21
-3.9908077952755905
0
LINE
8
BLACK
6
CONTINUOUS
10
8.098522047244094
20
-3.9908077952755905
11
8.0967240551181092
21
-3.9846743700787401
0
LINE
8
BLACK
6
CONTINUOUS
10
8.0967240551181092
20
-3.9846743700787401
11
8.0945570472440949
21
-3.9786183858267714
0
LINE
8
BLACK
6
CONTINUOUS
10
8.0945570472440949
20
-3.9786183858267714
11
8.0920530708661413
21
-3.9727295275590548
0
LINE
8
BLACK
6
CONTINUOUS
10
8.0920530708661413
20
-3.9727295275590548
11
8.0891944094488188
21
-3.9669647244094488
0
LINE
8
BLACK
6
CONTINUOUS
10
8.0891944094488188
20
-3.9669647244094488
11
8.0860164566929136
21
-3.9613952755905513
0
LINE
8
BLACK
6
CONTINUOUS
10
8.0860164566929136
20
-3.9613952755905513
11
8.0825071653543308
21
-3.9559985039370078
0
LINE
8
BLACK
6
CONTINUOUS
10
8.0825071653543308
20
-3.9559985039370078
11
8.0786985039370069
21
-3.9508237795275591
0
LINE
8
BLACK
6
CONTINUOUS
10
8.0786985039370069
20
-3.9508237795275591
11
8.0745932283464565
21
-3.9458726771653541
0
LINE
8
BLACK
6
CONTINUOUS
10
8.0745932283464565
20
-3.9458726771653541
11
8.0700762204724406
21
-3.9410239763779527
0
LINE
8
BLACK
6
CONTINUOUS
10
8.0700762204724406
20
-3.9410239763779527
11
8.0694928740157472
21
-3.9402595275590548
0
LINE
8
BLACK
6
CONTINUOUS
10
8.0694928740157472
20
-3.9402595275590548
11
8.069388779527559
21
-3.9401554330708661
0
LINE
8
BLACK
6
CONTINUOUS
10
8.069388779527559
20
-3.9401554330708661
11
8.0693594881889759
21
-3.9400847244094486
0
LINE
8
BLACK
6
CONTINUOUS
10
8.0693594881889759
20
-3.9400847244094486
11
8.0692568897637802
21
-3.9399502755905509
0
LINE
8
BLACK
6
CONTINUOUS
10
8.0692568897637802
20
-3.9399502755905509
11
8.0688286220472438
21
-3.9388031102362202
0
LINE
8
BLACK
6
CONTINUOUS
10
8.0688286220472438
20
-3.9388031102362202
11
8.068360039370079
21
-3.937671811023622
0
LINE
8
BLACK
6
CONTINUOUS
10
8.068360039370079
20
-3.937671811023622
11
8.0683434251968507
21
-3.9375034251968501
0
LINE
8
BLACK
6
CONTINUOUS
10
8.0683434251968507
20
-3.9375034251968501
11
8.0683166929133865
21
-3.9374317716535434
0
LINE
8
BLACK
6
CONTINUOUS
10
8.0683166929133865
20
-3.9374317716535434
11
8.0683218897637801
21
-3.9372846062992126
0
LINE
8
BLACK
6
CONTINUOUS
10
8.0683218897637801
20
-3.9372846062992126
11
8.0682276377952746
21
-3.9363276771653544
0
LINE
8
BLACK
6
CONTINUOUS
10
8.0682276377952746
20
-3.9363276771653544
11
8.0682276377952746
21
-3.6567981102362204
0
LINE
8
BLACK
6
CONTINUOUS
10
8.0682276377952746
20
-3.6567981102362204
11
8.0675578740157476
21
-3.6444962598425197
0
LINE
8
BLACK
6
CONTINUOUS
10
8.0675578740157476
20
-3.6444962598425197
11
8.0666819291338587
21
-3.6382122834645667
0
LINE
8
BLACK
6
CONTINUOUS
10
8.0666819291338587
20
-3.6382122834645667
11
8.0654337795275595
21
-3.6319648425196851
0
LINE
8
BLACK
6
CONTINUOUS
10
8.0654337795275595
20
-3.6319648425196851
11
8.0638103149606302
21
-3.6257609842519685
0
LINE
8
BLACK
6
CONTINUOUS
10
8.0638103149606302
20
-3.6257609842519685
11
8.0618394488188976
21
-3.6197062598425198
0
LINE
8
BLACK
6
CONTINUOUS
10
8.0618394488188976
20
-3.6197062598425198
11
8.0595005511811024
21
-3.6137353937007872
0
LINE
8
BLACK
6
CONTINUOUS
10
8.0595005511811024
20
-3.6137353937007872
11
8.0568282283464558
21
-3.6079378346456692
0
LINE
8
BLACK
6
CONTINUOUS
10
8.0568282283464558
20
-3.6079378346456692
11
8.0538043307086618
21
-3.6022729133858267
0
LINE
8
BLACK
6
CONTINUOUS
10
8.0538043307086618
20
-3.6022729133858267
11
8.0504642519685046
21
-3.5968075590551178
0
LINE
8
BLACK
6
CONTINUOUS
10
8.0504642519685046
20
-3.5968075590551178
11
8.046798582677166
21
-3.5915254330708661
0
LINE
8
BLACK
6
CONTINUOUS
10
8.046798582677166
20
-3.5915254330708661
11
8.0428385039370074
21
-3.5864714566929132
0
LINE
8
BLACK
6
CONTINUOUS
10
8.0428385039370074
20
-3.5864714566929132
11
8.0385891732283454
21
-3.5816501968503935
0
LINE
8
BLACK
6
CONTINUOUS
10
8.0385891732283454
20
-3.5816501968503935
11
8.0341391732283469
21
-3.5771532283464564
0
LINE
8
BLACK
6
CONTINUOUS
10
8.0341391732283469
20
-3.5771532283464564
11
8.0239893700787395
21
-3.5685305905511808
0
LINE
8
BLACK
6
CONTINUOUS
10
8.0239893700787395
20
-3.5685305905511808
11
8.0230507086614171
21
-3.567559409448819
0
LINE
8
BLACK
6
CONTINUOUS
10
8.0230507086614171
20
-3.567559409448819
11
8.0229215748031493
21
-3.5673076377952757
0
LINE
8
BLACK
6
CONTINUOUS
10
8.0229215748031493
20
-3.5673076377952757
11
8.0227214960629922
21
-3.5671075590551182
0
LINE
8
BLACK
6
CONTINUOUS
10
8.0227214960629922
20
-3.5671075590551182
11
8.0223121259842518
21
-3.5661192519685039
0
LINE
8
BLACK
6
CONTINUOUS
10
8.0223121259842518
20
-3.5661192519685039
11
8.0218239763779522
21
-3.5651674015748029
0
LINE
8
BLACK
6
CONTINUOUS
10
8.0218239763779522
20
-3.5651674015748029
11
8.0218010236220465
21
-3.5648853149606299
0
LINE
8
BLACK
6
CONTINUOUS
10
8.0218010236220465
20
-3.5648853149606299
11
8.0216927559055122
21
-3.5646239370078741
0
LINE
8
BLACK
6
CONTINUOUS
10
8.0216927559055122
20
-3.5646239370078741
11
8.0215603543307079
21
-3.563279803149606
0
LINE
8
BLACK
6
CONTINUOUS
10
8.0215603543307079
20
-3.563279803149606
11
8.0215603543307079
21
-3.5489741338582674
0
LINE
8
BLACK
6
CONTINUOUS
10
8.0215603543307079
20
-3.5489741338582674
11
8.0216927559055122
21
-3.5476299999999998
0
LINE
8
BLACK
6
CONTINUOUS
10
8.0216927559055122
20
-3.5476299999999998
11
8.0217480314960632
21
-3.5474964960629922
0
LINE
8
BLACK
6
CONTINUOUS
10
8.0217480314960632
20
-3.5474964960629922
11
8.0217540157480318
21
-3.5473521653543307
0
LINE
8
BLACK
6
CONTINUOUS
10
8.0217540157480318
20
-3.5473521653543307
11
8.0221990944881885
21
-3.5460769685039368
0
LINE
8
BLACK
6
CONTINUOUS
10
8.0221990944881885
20
-3.5460769685039368
11
8.0275818897637787
21
-3.5344626771653544
0
LINE
8
BLACK
6
CONTINUOUS
10
8.0275818897637787
20
-3.5344626771653544
11
8.0450529921259832
21
-3.4943677952755903
0
LINE
8
BLACK
6
CONTINUOUS
10
8.0450529921259832
20
-3.4943677952755903
11
8.0610431102362199
21
-3.4537711417322834
0
LINE
8
BLACK
6
CONTINUOUS
10
8.0610431102362199
20
-3.4537711417322834
11
8.0755545669291333
21
-3.4126776771653544
0
LINE
8
BLACK
6
CONTINUOUS
10
8.0755545669291333
20
-3.4126776771653544
11
8.0885751574803155
21
-3.3711272440944882
0
LINE
8
BLACK
6
CONTINUOUS
10
8.0885751574803155
20
-3.3711272440944882
11
8.1000925590551187
21
-3.3291637007874013
0
LINE
8
BLACK
6
CONTINUOUS
10
8.1000925590551187
20
-3.3291637007874013
11
8.1100978346456696
21
-3.2868226771653544
0
LINE
8
BLACK
6
CONTINUOUS
10
8.1100978346456696
20
-3.2868226771653544
11
8.1185820472440948
21
-3.2441415748031495
0
LINE
8
BLACK
6
CONTINUOUS
10
8.1185820472440948
20
-3.2441415748031495
11
8.125537755905512
21
-3.2011552362204725
0
LINE
8
BLACK
6
CONTINUOUS
10
8.125537755905512
20
-3.2011552362204725
11
8.1309583070866136
21
-3.1578948031496061
0
LINE
8
BLACK
6
CONTINUOUS
10
8.1309583070866136
20
-3.1578948031496061
11
8.1348373228346453
21
-3.1143920078740157
0
LINE
8
BLACK
6
CONTINUOUS
10
8.1348373228346453
20
-3.1143920078740157
11
8.1371691732283455
21
-3.0706707086614173
0
LINE
8
BLACK
6
CONTINUOUS
10
8.1371691732283455
20
-3.0706707086614173
11
8.1379480314960624
21
-3.0267435826771654
0
LINE
8
BLACK
6
CONTINUOUS
10
8.1379480314960624
20
-3.0267435826771654
11
8.137559291338583
21
-2.9956610629921259
0
LINE
8
BLACK
6
CONTINUOUS
10
8.137559291338583
20
-2.9956610629921259
11
8.1368101181102368
21
-2.9736058267716534
0
LINE
8
BLACK
6
CONTINUOUS
10
8.1368101181102368
20
-2.9736058267716534
11
8.1356712204724406
21
-2.9516382283464568
0
LINE
8
BLACK
6
CONTINUOUS
10
8.1356712204724406
20
-2.9516382283464568
11
8.1341387401574803
21
-2.9296776377952756
0
LINE
8
BLACK
6
CONTINUOUS
10
8.1341387401574803
20
-2.9296776377952756
11
8.132219724409449
21
-2.9078176377952754
0
LINE
8
BLACK
6
CONTINUOUS
10
8.132219724409449
20
-2.9078176377952754
11
8.129907401574803
21
-2.8859763385826769
0
LINE
8
BLACK
6
CONTINUOUS
10
8.129907401574803
20
-2.8859763385826769
11
8.1272119291338587
21
-2.8642455905511812
0
LINE
8
BLACK
6
CONTINUOUS
10
8.1272119291338587
20
-2.8642455905511812
11
8.1241229133858273
21
-2.842538897637795
0
LINE
8
BLACK
6
CONTINUOUS
10
8.1241229133858273
20
-2.842538897637795
11
8.1206541338582667
21
-2.8209507874015749
0
LINE
8
BLACK
6
CONTINUOUS
10
8.1206541338582667
20
-2.8209507874015749
11
8.1167916535433076
21
-2.7993935039370079
0
LINE
8
BLACK
6
CONTINUOUS
10
8.1167916535433076
20
-2.7993935039370079
11
8.1125542913385829
21
-2.7779698425196848
0
LINE
8
BLACK
6
CONTINUOUS
10
8.1125542913385829
20
-2.7779698425196848
11
8.1079225984251959
21
-2.7565813385826772
0
LINE
8
BLACK
6
CONTINUOUS
10
8.1079225984251959
20
-2.7565813385826772
11
8.1029192125984242
21
-2.7353320866141733
0
LINE
8
BLACK
6
CONTINUOUS
10
8.1029192125984242
20
-2.7353320866141733
11
8.0975241338582684
21
-2.7141366141732282
0
LINE
8
BLACK
6
CONTINUOUS
10
8.0975241338582684
20
-2.7141366141732282
11
8.091760944881889
21
-2.6930867322834646
0
LINE
8
BLACK
6
CONTINUOUS
10
8.091760944881889
20
-2.6930867322834646
11
8.0856068897637794
21
-2.6720996850393699
0
LINE
8
BLACK
6
CONTINUOUS
10
8.0856068897637794
20
-2.6720996850393699
11
8.0790889763779532
21
-2.6512675196850393
0
LINE
8
BLACK
6
CONTINUOUS
10
8.0790889763779532
20
-2.6512675196850393
11
8.0721826771653546
21
-2.6305116929133856
0
LINE
8
BLACK
6
CONTINUOUS
10
8.0721826771653546
20
-2.6305116929133856
11
8.0649161811023617
21
-2.609917244094488
0
LINE
8
BLACK
6
CONTINUOUS
10
8.0649161811023617
20
-2.609917244094488
11
8.0572642125984242
21
-2.5894129921259843
0
LINE
8
BLACK
6
CONTINUOUS
10
8.0572642125984242
20
-2.5894129921259843
11
8.0492581889763777
21
-2.5690827952755906
0
LINE
8
BLACK
6
CONTINUOUS
10
8.0492581889763777
20
-2.5690827952755906
11
8.0408684645669286
21
-2.5488520866141733
0
LINE
8
BLACK
6
CONTINUOUS
10
8.0408684645669286
20
-2.5488520866141733
11
8.0321308267716542
21
-2.5288073228346457
0
LINE
8
BLACK
6
CONTINUOUS
10
8.0321308267716542
20
-2.5288073228346457
11
8.0230137007874021
21
-2.5088762204724411
0
LINE
8
BLACK
6
CONTINUOUS
10
8.0230137007874021
20
-2.5088762204724411
11
8.0135536614173226
21
-2.4891389763779528
0
LINE
8
BLACK
6
CONTINUOUS
10
8.0135536614173226
20
-2.4891389763779528
11
8.0037185433070857
21
-2.4695290551181102
0
LINE
8
BLACK
6
CONTINUOUS
10
8.0037185433070857
20
-2.4695290551181102
11
7.9935473622047244
21
-2.4501244488188978
0
LINE
8
BLACK
6
CONTINUOUS
10
7.9935473622047244
20
-2.4501244488188978
11
7.9830077559055113
21
-2.4308636614173227
0
LINE
8
BLACK
6
CONTINUOUS
10
7.9830077559055113
20
-2.4308636614173227
11
7.9721370866141728
21
-2.4118153149606298
0
LINE
8
BLACK
6
CONTINUOUS
10
7.9721370866141728
20
-2.4118153149606298
11
7.9609062598425195
21
-2.3929284251968501
0
LINE
8
BLACK
6
CONTINUOUS
10
7.9609062598425195
20
-2.3929284251968501
11
7.9493485433070861
21
-2.3742596062992125
0
LINE
8
BLACK
6
CONTINUOUS
10
7.9493485433070861
20
-2.3742596062992125
11
7.9374412598425197
21
-2.3557720866141731
0
LINE
8
BLACK
6
CONTINUOUS
10
7.9374412598425197
20
-2.3557720866141731
11
7.9252133070866142
21
-2.3375110629921259
0
LINE
8
BLACK
6
CONTINUOUS
10
7.9252133070866142
20
-2.3375110629921259
11
7.9126452755905508
21
-2.3194475984251968
0
LINE
8
BLACK
6
CONTINUOUS
10
7.9126452755905508
20
-2.3194475984251968
11
7.8997619291338577
21
-2.301617559055118
0
LINE
8
BLACK
6
CONTINUOUS
10
7.8997619291338577
20
-2.301617559055118
11
7.8865493307086609
21
-2.2840016929133857
0
LINE
8
BLACK
6
CONTINUOUS
10
7.8865493307086609
20
-2.2840016929133857
11
7.8730301968503937
21
-2.2666305118110235
0
LINE
8
BLACK
6
CONTINUOUS
10
7.8730301968503937
20
-2.2666305118110235
11
7.8591932283464567
21
-2.2494893307086614
0
LINE
8
BLACK
6
CONTINUOUS
10
7.8591932283464567
20
-2.2494893307086614
11
7.8450543700787403
21
-2.2325981496062992
0
LINE
8
BLACK
6
CONTINUOUS
10
7.8450543700787403
20
-2.2325981496062992
11
7.8306120472440943
21
-2.2159550000000001
0
LINE
8
BLACK
6
CONTINUOUS
10
7.8306120472440943
20
-2.2159550000000001
11
7.8158762992125981
21
-2.1995714173228347
0
LINE
8
BLACK
6
CONTINUOUS
10
7.8158762992125981
20
-2.1995714173228347
11
7.8008496850393696
21
-2.1834501181102364
0
LINE
8
BLACK
6
CONTINUOUS
10
7.8008496850393696
20
-2.1834501181102364
11
7.7855584251968502
21
-2.1676185433070865
0
LINE
8
BLACK
6
CONTINUOUS
10
7.7855584251968502
20
-2.1676185433070865
11
7.7540815354330705
21
-2.1367209055118108
0
LINE
8
BLACK
6
CONTINUOUS
10
7.7540815354330705
20
-2.1367209055118108
11
7.7215543700787403
21
-2.1069853543307087
0
LINE
8
BLACK
6
CONTINUOUS
10
7.7215543700787403
20
-2.1069853543307087
11
7.6880057480314958
21
-2.0784353543307086
0
LINE
8
BLACK
6
CONTINUOUS
10
7.6880057480314958
20
-2.0784353543307086
11
7.6534818503937005
21
-2.0511083464566928
0
LINE
8
BLACK
6
CONTINUOUS
10
7.6534818503937005
20
-2.0511083464566928
11
7.618033543307086
21
-2.0250427952755907
0
LINE
8
BLACK
6
CONTINUOUS
10
7.618033543307086
20
-2.0250427952755907
11
7.5817123228346457
21
-2.0002742519685039
0
LINE
8
BLACK
6
CONTINUOUS
10
7.5817123228346457
20
-2.0002742519685039
11
7.5445661417322833
21
-1.9768331496062992
0
LINE
8
BLACK
6
CONTINUOUS
10
7.5445661417322833
20
-1.9768331496062992
11
7.5066476377952753
21
-1.954750275590551
0
LINE
8
BLACK
6
CONTINUOUS
10
7.5066476377952753
20
-1.954750275590551
11
7.4680057086614173
21
-1.9340517322834645
0
LINE
8
BLACK
6
CONTINUOUS
10
7.4680057086614173
20
-1.9340517322834645
11
7.4286876771653541
21
-1.9147607086614173
0
LINE
8
BLACK
6
CONTINUOUS
10
7.4286876771653541
20
-1.9147607086614173
11
7.3887472047244094
21
-1.8969014173228347
0
LINE
8
BLACK
6
CONTINUOUS
10
7.3887472047244094
20
-1.8969014173228347
11
7.3482259448818894
21
-1.8804903937007873
0
LINE
8
BLACK
6
CONTINUOUS
10
7.3482259448818894
20
-1.8804903937007873
11
7.3071719291338582
21
-1.8655457480314961
0
LINE
8
BLACK
6
CONTINUOUS
10
7.3071719291338582
20
-1.8655457480314961
11
7.2656283858267718
21
-1.8520820078740157
0
LINE
8
BLACK
6
CONTINUOUS
10
7.2656283858267718
20
-1.8520820078740157
11
7.2236381102362204
21
-1.8401122047244094
0
LINE
8
BLACK
6
CONTINUOUS
10
7.2236381102362204
20
-1.8401122047244094
11
7.1812420472440941
21
-1.829647874015748
0
LINE
8
BLACK
6
CONTINUOUS
10
7.1812420472440941
20
-1.829647874015748
11
7.138478622047244
21
-1.8206987795275591
0
LINE
8
BLACK
6
CONTINUOUS
10
7.138478622047244
20
-1.8206987795275591
11
7.0953817322834647
21
-1.813273188976378
0
LINE
8
BLACK
6
CONTINUOUS
10
7.0953817322834647
20
-1.813273188976378
11
7.0519885433070861
21
-1.8073793307086614
0
LINE
8
BLACK
6
CONTINUOUS
10
7.0519885433070861
20
-1.8073793307086614
11
7.0083294881889762
21
-1.8030239763779528
0
LINE
8
BLACK
6
CONTINUOUS
10
7.0083294881889762
20
-1.8030239763779528
11
6.9644388976377956
21
-1.8002139763779528
0
LINE
8
BLACK
6
CONTINUOUS
10
6.9644388976377956
20
-1.8002139763779528
11
6.9202187007874016
21
-1.7989517716535433
0
LINE
8
BLACK
6
CONTINUOUS
10
6.9202187007874016
20
-1.7989517716535433
11
6.9199339370078743
21
-1.7989154724409449
0
LINE
8
BLACK
6
CONTINUOUS
10
6.9199339370078743
20
-1.7989154724409449
11
6.9196471653543306
21
-1.7989116141732282
0
LINE
8
BLACK
6
CONTINUOUS
10
6.9196471653543306
20
-1.7989116141732282
11
6.9194022834645672
21
-1.7988841338582677
0
LINE
8
BLACK
6
CONTINUOUS
10
6.9194022834645672
20
-1.7988841338582677
11
6.9166807480314958
21
-1.7986765354330709
0
LINE
8
BLACK
6
CONTINUOUS
10
6.9166807480314958
20
-1.7986765354330709
11
6.4597307086614171
21
-1.7986765354330709
0
LINE
8
BLACK
6
CONTINUOUS
10
6.4597307086614171
20
-1.7986765354330709
11
6.458386574803149
21
-1.7985441338582677
0
LINE
8
BLACK
6
CONTINUOUS
10
6.458386574803149
20
-1.7985441338582677
11
6.4581346062992129
21
-1.7984397637795275
0
LINE
8
BLACK
6
CONTINUOUS
10
6.4581346062992129
20
-1.7984397637795275
11
6.4578627165354332
21
-1.798418464566929
0
LINE
8
BLACK
6
CONTINUOUS
10
6.4578627165354332
20
-1.798418464566929
11
6.4566048425196847
21
-1.7979266141732284
0
LINE
8
BLACK
6
CONTINUOUS
10
6.4566048425196847
20
-1.7979266141732284
11
6.454072047244094
21
-1.796637125984252
0
LINE
8
BLACK
6
CONTINUOUS
10
6.454072047244094
20
-1.796637125984252
11
6.4421384645669288
21
-1.7915764173228346
0
LINE
8
BLACK
6
CONTINUOUS
10
6.4421384645669288
20
-1.7915764173228346
11
6.4299298425196847
21
-1.7879734251968504
0
LINE
8
BLACK
6
CONTINUOUS
10
6.4299298425196847
20
-1.7879734251968504
11
6.4174657086614175
21
-1.7858024803149606
0
LINE
8
BLACK
6
CONTINUOUS
10
6.4174657086614175
20
-1.7858024803149606
11
6.4046729133858262
21
-1.7850659448818897
0
LINE
8
BLACK
6
CONTINUOUS
10
6.4046729133858262
20
-1.7850659448818897
11
6.156447677165354
21
-1.7850659448818897
  0
ENDSEC
  0
EOF
